<svg version="1.1" id="Слой_1" xmlns="http://www.w3.org/2000/svg" xmlns:xlink="http://www.w3.org/1999/xlink" viewBox="0 0 80 80">
<path fill="#86898C" d="M23.32,13.58h36.67c-0.22,0.87-0.49,1.78-0.82,2.72H24.24c0,0.01,0,0.01,0.01,0.02
		c0.08,0.22,0.18,0.45,0.29,0.67c0.49,1.11,1.04,2.16,1.67,3.15h31.26c-0.51,0.95-1.06,1.86-1.67,2.73H28.22
		c0.01,0.01,0.01,0.01,0.02,0.02c1.23,1.43,2.63,2.69,4.22,3.82h20.08c-2.19,2.11-4.78,3.87-7.77,5.29c0.01,0,0.02,0.01,0.03,0.01
		c4.83,1.6,8.87,3.63,12.27,5.94C63.58,33,67.25,27,69.31,21.99c3.49-8.51,3.13-15.81,3.08-16.61c-0.21-3.17-2.94-5.58-6.11-5.37
		c-3.17,0.21-5.57,2.94-5.37,6.11c0.01,0.03,0.07,1.44-0.19,3.62h-38.2c0,0,0,0.01,0,0.01C22.67,10.86,22.92,12.16,23.32,13.58z"/>
	<path fill="#86898C" d="M56.79,66.11H19.91c0.22-0.87,0.49-1.79,0.82-2.72h35.09c-0.52-1.26-1.19-2.54-2.05-3.84H22.44
		c0.5-0.91,1.07-1.82,1.72-2.72H51.7c-1.19-1.34-2.61-2.63-4.32-3.84H27.52c2.05-1.92,4.59-3.71,7.73-5.21
		c-4.84-1.56-8.9-3.58-12.32-5.92C16.67,46.59,13.06,52.17,11,56.85c-3.57,8.13-3.49,15.6-3.38,17.7c0.17,3.07,2.7,5.45,5.74,5.45
		c0.1,0,0.2,0,0.3-0.01c3.17-0.16,5.61-2.87,5.44-6.04c-0.04-0.76-0.06-2.18,0.14-4h38.31c-0.13-1.13-0.37-2.44-0.76-3.83
		C56.79,66.12,56.79,66.11,56.79,66.11z"/>
	<path fill="#86898C" d="M41.27,34.24C18.25,27.76,19.04,7.04,19.09,6.09c0.19-3.16-2.21-5.88-5.37-6.08c-3.17-0.2-5.91,2.2-6.11,5.37
		c-0.05,0.81-0.41,8.11,3.08,16.61c3.3,8.04,10.74,18.62,27.46,23.32c22.74,6.4,22.93,24.98,22.74,28.64
		c-0.16,3.17,2.27,5.87,5.44,6.04C66.44,80,66.54,80,66.64,80c3.04,0,5.58-2.38,5.74-5.44c0.11-2.1,0.19-9.58-3.38-17.7
		C65.61,49.15,58.04,38.96,41.27,34.24z"/>
</svg>
