<svg version="1.1" id="Слой_1" xmlns="http://www.w3.org/2000/svg" xmlns:xlink="http://www.w3.org/1999/xlink" viewBox="0 0 80 80">
<path fill="#86898C" d="M45.2,64.88H34.88c-0.95,0-1.72,0.77-1.72,1.72v6.66c0,0.95,0.77,1.72,1.72,1.72H45.2
		c0.95,0,1.73-0.77,1.72-1.72V66.6C46.92,65.65,46.15,64.88,45.2,64.88z M43.48,71.53h-6.87v-3.21h6.87V71.53z"/>
	<path fill="#86898C" d="M54.43,76.56h-1.64V61.58c0-0.95-0.77-1.72-1.72-1.72h-4.9l-1.94-11.85c-0.14-0.83-0.86-1.44-1.7-1.44h-4.91
		c-0.84,0-1.56,0.61-1.7,1.43l-2.07,11.86h-4.84c-0.95,0-1.72,0.77-1.72,1.72v14.98h-1.64c-0.95,0-1.72,0.77-1.72,1.72
		c0,0.95,0.77,1.72,1.72,1.72h3.36h22.06h3.36c0.96,0,1.73-0.77,1.72-1.72C56.15,77.33,55.38,76.56,54.43,76.56z M39.06,50.02h2
		l1.61,9.83h-5.32L39.06,50.02z M30.73,63.3h4.57h9.4h4.65v13.25H30.73V63.3z"/>
	<path fill="#86898C" d="M43.88,45.57c0.95,0,1.72-0.77,1.72-1.72c0-0.95-0.77-1.72-1.72-1.72h-7.67c-0.95,0-1.72,0.77-1.72,1.72
		c0,0.95,0.77,1.72,1.72,1.72H43.88z"/>
	<path fill="#86898C" d="M63.79,17.29c-0.2-0.62-0.74-1.08-1.39-1.17l-14.41-2.1L41.55,0.96C41.25,0.37,40.66,0,40,0
		s-1.25,0.37-1.55,0.95l-6.44,13.06l-14.41,2.1c-0.65,0.09-1.19,0.55-1.39,1.17c-0.2,0.63-0.03,1.31,0.44,1.77L27.07,29.2
		l-2.46,14.35c-0.11,0.65,0.16,1.3,0.69,1.69c0.3,0.22,0.65,0.33,1.01,0.33c0.28,0,0.55-0.06,0.8-0.2L40,38.6l12.88,6.78
		c0.58,0.31,1.28,0.26,1.81-0.13c0.54-0.39,0.8-1.04,0.69-1.69l-2.46-14.35l10.43-10.15C63.82,18.6,63.99,17.91,63.79,17.29z
		 M55.84,18.63l-8.04,2.58c-0.45-0.94-1.06-1.79-1.81-2.51l0.99-1.35L55.84,18.63z M30.56,29.28l1.68-0.56
		c0.45,0.93,1.06,1.77,1.82,2.48l-5.01,6.92L30.56,29.28z M44.95,23.34c0.17,0.51,0.25,1.04,0.25,1.59c0,0.56-0.09,1.11-0.27,1.64
		c-0.34,1.02-1.01,1.93-1.89,2.57c-0.89,0.65-1.95,0.99-3.05,0.99s-2.16-0.34-3.05-0.99c-0.88-0.64-1.55-1.55-1.89-2.58
		c-0.17-0.52-0.26-1.07-0.26-1.64c0-0.54,0.08-1.08,0.25-1.59c0.33-1.05,0.98-1.95,1.88-2.61c0.9-0.66,1.96-1.01,3.08-1.01
		s2.18,0.35,3.07,1.02C43.95,21.37,44.62,22.3,44.95,23.34z M35.91,32.54c0.92,0.49,1.91,0.82,2.94,0.95v1.82l-7.99,4.2L35.91,32.54
		z M41.15,33.49c1.03-0.14,2.02-0.46,2.94-0.96l5.05,6.98l-7.99-4.2V33.49z M49.44,29.28l1.51,8.84l-5.01-6.93
		c0.75-0.71,1.37-1.54,1.82-2.47L49.44,29.28z M45.12,16l-0.99,1.34c-0.93-0.51-1.93-0.84-2.99-0.98V7.95L45.12,16z M38.85,7.95
		v8.41c-1.05,0.14-2.06,0.47-2.99,0.98L34.88,16L38.85,7.95z M33.02,17.36l0.99,1.35c-0.76,0.73-1.37,1.58-1.82,2.52l-8.04-2.58
		L33.02,17.36z M23.36,20.79l8.14,2.61c-0.09,0.5-0.15,1.02-0.15,1.54c0,0.55,0.07,1.08,0.16,1.61l-1.68,0.56L23.36,20.79z
		 M50.16,27.1l-1.67-0.56c0.1-0.53,0.16-1.06,0.16-1.61c0-0.52-0.06-1.03-0.15-1.53l8.12-2.61L50.16,27.1z"/>
</svg>
