<svg version="1.1" id="Слой_1" xmlns="http://www.w3.org/2000/svg" xmlns:xlink="http://www.w3.org/1999/xlink" viewBox="0 0 80 80">
<path fill="#86898C" d="M71.01,23.65c-0.22-0.66-0.79-1.14-1.48-1.25L50.3,19.46L41.68,1.07C41.38,0.42,40.72,0,40,0
		c-0.72,0-1.38,0.42-1.69,1.07l-8.62,18.39L10.46,22.4c-0.69,0.11-1.26,0.59-1.48,1.25c-0.22,0.66-0.06,1.39,0.43,1.89l13.97,14.34
		l-3.3,20.28c-0.11,0.7,0.19,1.41,0.77,1.82c0.58,0.41,1.35,0.46,1.97,0.11l12.79-7.08l-2.04,13.08h-4.83
		c-0.98,0-1.77,0.75-1.85,1.71c-0.88,0.15-1.55,0.9-1.55,1.83v6.51c0,1.03,0.83,1.86,1.86,1.86h25.6c1.03,0,1.86-0.83,1.86-1.86
		v-6.51c0-1.01-0.8-1.83-1.81-1.85c-0.09-0.95-0.87-1.69-1.84-1.69h-4.59l-2.04-13.08l12.8,7.08c0.28,0.15,0.59,0.23,0.9,0.23
		c0.38,0,0.75-0.11,1.06-0.33c0.59-0.41,0.88-1.12,0.77-1.82l-3.3-20.28l13.97-14.35C71.06,25.04,71.23,24.31,71.01,23.65z
		 M50.94,76.28H29.06V73.5h21.88V76.28z M42.66,68.09h-5.33l2.39-15.36L40,52.58l0.27,0.15L42.66,68.09z M53.28,37.96
		c-0.41,0.43-0.59,1.02-0.5,1.6l2.84,17.42l-14.73-8.15c-0.56-0.31-1.24-0.31-1.8,0l-14.73,8.15l2.84-17.42
		c0.1-0.58-0.09-1.18-0.5-1.6L14.6,25.54l16.64-2.55c0.61-0.09,1.14-0.49,1.4-1.05L40,6.25l7.34,15.69c0.26,0.56,0.79,0.96,1.4,1.05
		l16.64,2.55L53.28,37.96z"/>
	<path fill="#86898C" d="M41.12,10.58c-0.2-0.43-0.64-0.71-1.12-0.71s-0.92,0.27-1.12,0.71l-6.17,13.16l-13.77,2.11
		c-0.46,0.07-0.84,0.39-0.99,0.83c-0.15,0.44-0.03,0.93,0.29,1.26l10,10.26l-2.36,14.51c-0.08,0.47,0.12,0.94,0.51,1.21
		c0.38,0.27,0.89,0.3,1.31,0.07L40,47.18l12.3,6.81c0.19,0.11,0.39,0.16,0.6,0.16c0.25,0,0.5-0.08,0.71-0.23
		c0.39-0.27,0.59-0.74,0.51-1.21L51.76,38.2l10-10.26c0.33-0.33,0.44-0.82,0.29-1.26c-0.15-0.44-0.53-0.76-0.99-0.83l-13.77-2.11
		L41.12,10.58z M49.55,36.91c-0.28,0.29-0.4,0.68-0.34,1.07l2.05,12.6l-10.66-5.9c-0.19-0.11-0.39-0.16-0.6-0.16
		s-0.41,0.06-0.6,0.17l-10.66,5.9l2.05-12.6c0.06-0.39-0.07-0.79-0.34-1.07l-8.75-8.99l12.03-1.84c0.41-0.06,0.76-0.33,0.94-0.7
		L40,14.02l5.32,11.36c0.18,0.37,0.53,0.64,0.94,0.7l12.04,1.84L49.55,36.91z"/>
</svg>
