<svg version="1.1" id="Слой_1" xmlns="http://www.w3.org/2000/svg" xmlns:xlink="http://www.w3.org/1999/xlink" viewBox="0 0 80 80">
<path fill="#86898C" d="M45.5,43.3c5.9,0,12.3-0.9,18.8-3.2c0.6-0.2,1-0.8,1-1.5V26.8c0-0.4-0.2-0.9-0.6-1.2c-0.3-0.3-0.8-0.4-1.3-0.3
		l-19.8,3.2l-18.2-3.2c-0.4-0.1-0.9,0-1.3,0.3c-0.4,0.3-0.5,0.7-0.5,1.2v11.7c0,0.7,0.4,1.3,1.1,1.5C30.3,41.7,37.5,43.3,45.5,43.3z
		"/>
	<path fill="#86898C" d="M78.8,17.3L44.3,9.2c-0.2-0.1-0.5-0.1-0.7,0l-32.2,8.3c-0.7,0.2-1.2,0.8-1.2,1.6c0,0.7,0.6,1.3,1.3,1.5
		l32.2,5.6c0.1,0,0.2,0,0.3,0c0.1,0,0.2,0,0.3,0l27.4-4.5v5c-0.3,0.2-0.5,0.6-0.6,1l-0.5,3.8c-0.1,0.7,0.3,1.4,1,1.7l2.2,0.8
		c0.2,0.1,0.3,0.1,0.5,0.1c0.4,0,0.7-0.1,1-0.3c0.4-0.3,0.6-0.9,0.6-1.4L75,27.6c0-0.4-0.2-0.7-0.5-0.9v-5.6l4.1-0.7
		c0.7-0.1,1.3-0.7,1.3-1.5C80,18.2,79.5,17.5,78.8,17.3z"/>
	<path fill="#86898C" d="M63.9,49.6c-2.9-0.8-5.5,2.8-6.6,6.8c-0.7,2.5-0.6,4.9,0.2,6.4c0.5,0.9,1.2,1.3,1.7,1.4
		c0.8,0.2,1.7-0.3,1.9-1.1c0.2-0.8-0.2-1.6-0.9-1.9c-0.2-0.4-0.5-1.9,0.1-4c0.9-3.1,2.3-4.6,2.8-4.7c0.5,0.2,1.4,3,0.2,7.3
		c-1.2,4.3-3.3,7.2-4.8,7.8c-0.2,0.1-0.8,0.1-1.9-0.4c-1.4-1-2.1-5.9-0.9-11.1c1-4.4,3.2-8.1,5.2-8.8c0.2,0,0.3-0.1,0.5-0.1
		c0.2,0,0.3,0,0.5,0c0.8,0.2,1.7-0.4,1.8-1.2c0.2-0.8-0.4-1.7-1.2-1.8c-0.3-0.1-0.7-0.1-1-0.1c-0.1,0-0.3,0-0.5,0c0,0,0,0-0.1,0
		c-0.3,0-0.5,0.1-0.8,0.2c-6.7,1.3-15.6,1.3-25.7,0c0,0,0,0,0,0s0,0,0,0c-2.4-0.3-4.9-0.7-7.5-1.1c0,0,0,0-0.1,0
		c-6.8-1.3-13.4-3-18.6-4.9c-0.1,0-0.2,0-0.2-0.1c-3.8-0.8-6.7,3.9-7.7,8.6c-0.7,3.2-0.8,7.5,0.7,9.9C2,58,2.8,58.4,3.5,58.5
		c0.1,0,0.3,0,0.4,0c5.5-0.3,11.1,0,16.9,0.8c-1.2,1.1-2.9,1.8-6,2.1c0,0,0,0-0.1,0c0,0-0.1,0-0.2,0c0,0-0.1,0-0.1,0.1
		c0,0-0.1,0-0.1,0.1c0,0-0.1,0-0.1,0.1c0,0-0.1,0-0.1,0.1c0,0-0.1,0.1-0.1,0.1c0,0-0.1,0.1-0.1,0.1c0,0-0.1,0.1-0.1,0.1
		c0,0-0.1,0.1-0.1,0.1c0,0,0,0.1-0.1,0.2c0,0,0,0,0,0.1c0,0,0,0,0,0.1c0,0,0,0.1,0,0.2c0,0,0,0.1,0,0.1c0,0,0,0.1,0,0.1
		c0,0.1,0,0.1,0,0.2c0,0,0,0,0,0.1c0,0,0,0,0,0c0,0.2,0.1,0.3,0.1,0.5c0,0,0,0.1,0,0.1c0.1,0.1,0.2,0.3,0.3,0.4c0,0,0,0,0,0
		c0.1,0.1,0.3,0.2,0.4,0.3c0,0,0,0,0,0c0,0,0,0,0,0c3.3,1.3,5.8,1.4,7.7,1.1c0.1,0.9,0.4,1.7,0.7,2.5c0,0,0,0,0,0c0,0,0,0,0,0
		c0,0,0,0.1,0.1,0.2c0,0,0.1,0.1,0.1,0.1c0,0.1,0.1,0.1,0.1,0.2c0.1,0.1,0.1,0.1,0.2,0.2c0,0,0.1,0.1,0.1,0.1c0.1,0,0.2,0.1,0.3,0.1
		c0,0,0.1,0,0.1,0.1c0.1,0,0.3,0.1,0.4,0.1h0c0.2,0,0.3,0,0.5-0.1c0,0,0,0,0,0c3.6-1.3,6.5-3.8,8.3-7.3c7.4,1.9,14.8,4.6,20.9,7.8
		l0.2,0.1c0.3,0.2,0.7,0.3,1,0.5c0,0,0,0,0,0c0,0,0,0,0,0c0.8,0.4,1.8,0.8,2.9,0.8c0.5,0,1.1-0.1,1.6-0.3c2.6-1.1,5.2-5,6.5-9.8
		C67.6,55.9,67.2,50.6,63.9,49.6z M25.3,65.4c-0.1-0.6-0.2-1.1-0.1-1.6c0.1-0.5-0.1-1-0.5-1.4c-0.4-0.3-0.9-0.5-1.4-0.3
		c-0.4,0.1-0.9,0.2-1.5,0.3c1-0.7,1.9-1.5,2.6-2.6c1.9,0.3,3.8,0.7,5.7,1.1C29.1,62.6,27.6,64.3,25.3,65.4z M28.5,51.7
		c-0.3,1.4-0.6,3.8-0.2,5.8c-1.4-0.3-2.8-0.5-4.3-0.8c-0.4-0.5-0.9-2.9-0.2-5.7c0.7-2.9,2.1-4.7,2.7-4.6c0,0,0,0,0,0
		c1.3,0.2,2.6,0.4,3.8,0.6C29.5,48.4,28.8,50.1,28.5,51.7z"/>
</svg>
