<svg version="1.1" id="Слой_1" xmlns="http://www.w3.org/2000/svg" xmlns:xlink="http://www.w3.org/1999/xlink" viewBox="0 0 80 80">
<path fill="#86898C" d="M35.13,76.03c0.11-0.03,0.22-0.07,0.33-0.12c7.42-2.77,16.87-7.66,25.31-16.25
		c6.4-6.51,11.14-14.4,14.31-22.29c0.03-0.07,0.06-0.15,0.09-0.22c3.6-9.05,5.11-18.08,4.57-24.98C79.37,7.63,78.08,4.42,76,2.89
		C65.27-5.02,34.48,4.18,19.2,19.87C12.82,26.41,8.03,34.66,4.84,42.9c-0.09,0.17-0.16,0.35-0.2,0.53C4.05,45,3.52,46.56,3.05,48.11
		c-0.07,0.16-0.12,0.32-0.15,0.49c-1.9,6.36-2.82,12.47-2.72,17.52c0.07,3.58,0.71,8.38,3.38,10.91C5.61,78.99,9.71,80,14.87,80
		c3.71,0,7.98-0.52,12.45-1.59c1.07-0.26,2.3-0.59,3.63-0.98c0.12-0.03,0.24-0.06,0.36-0.11C32.5,76.95,33.78,76.53,35.13,76.03z
		 M64.83,4.49c3.69,0,6.65,0.67,8.5,2.03c0.69,0.51,1.61,2.4,1.9,6c0.24,3.02,0.01,7.02-0.86,11.54
		C69.86,13.78,62.55,8.17,57.21,5.27C59.97,4.76,62.55,4.49,64.83,4.49z M22.43,23.03c5.61-5.76,14.05-10.98,23.2-14.45
		c3.4,0.98,20,6.78,25.06,27.75c-2.81,6.86-7.04,13.97-13.14,20.16C49.87,64.3,41.3,68.85,34.44,71.48
		c-9.04-2.58-16.04-7.95-20.79-16c-3.03-5.13-4.16-9.81-4.48-11.35C12.14,36.58,16.57,29.04,22.43,23.03z M6.65,73.76
		c-1.16-1.1-1.9-3.99-1.97-7.73c-0.06-2.81,0.24-5.98,0.86-9.33c0.69,1.47,1.55,3.06,2.59,4.71c3.76,5.93,8.72,10.45,14.57,13.35
		C14.01,76.29,8.18,75.21,6.65,73.76z"/>
	<path fill="#86898C" d="M13.25,41.66L13.25,41.66c-0.23,0.64-0.36,1.05-0.39,1.16c-0.35,1.19,0.33,2.44,1.52,2.8
		c0.21,0.06,0.43,0.09,0.64,0.09c0.97,0,1.87-0.63,2.16-1.61c0.01-0.02,0.07-0.23,0.21-0.6c0.27,0.11,0.55,0.17,0.83,0.17
		c0.86,0,1.69-0.5,2.06-1.34c0.43-0.95,0.13-2.03-0.64-2.66c0.11,0.02,0.22,0.04,0.34,0.04c0.82,0,1.61-0.44,2.01-1.22
		c0.43-0.85,0.29-1.83-0.3-2.51c0.18,0.05,0.37,0.08,0.56,0.08c0.73,0,1.45-0.35,1.89-1.01c0.5-0.75,0.48-1.69,0.04-2.42
		c0.23,0.08,0.47,0.12,0.71,0.12c0.66,0,1.32-0.29,1.76-0.85c0.56-0.7,0.63-1.62,0.27-2.38c0.26,0.1,0.53,0.15,0.8,0.15
		c0.61,0,1.22-0.25,1.67-0.74c0.57-0.62,0.71-1.47,0.47-2.21c0.3,0.14,0.62,0.21,0.94,0.21c0.54,0,1.07-0.19,1.5-0.57
		c0.63-0.56,0.86-1.39,0.7-2.16c0.32,0.17,0.68,0.26,1.04,0.26c0.46,0,0.92-0.14,1.32-0.43c0.73-0.53,1.04-1.41,0.89-2.24
		c0.41,0.33,0.9,0.52,1.42,0.52c0.38,0,0.77-0.1,1.12-0.3c0.79-0.45,1.19-1.31,1.12-2.15c0.42,0.39,0.96,0.62,1.53,0.62
		c0.32,0,0.65-0.07,0.95-0.22c1.04-0.49,1.53-1.66,1.19-2.72c0.15-0.05,0.28-0.11,0.43-0.16c1.17-0.41,1.8-1.69,1.39-2.87
		c-0.41-1.17-1.69-1.8-2.87-1.39c-0.28,0.1-0.55,0.21-0.83,0.31l-0.09-0.2c-0.53-1.13-1.87-1.62-3-1.09c-1.13,0.53-1.62,1.87-1.09,3
		l0.02,0.04c-0.02,0.01-0.04,0.02-0.06,0.03l-0.07-0.13c-0.62-1.08-2-1.45-3.08-0.83s-1.45,2-0.83,3.08l0.01,0.01
		c-0.04,0.03-0.09,0.05-0.13,0.08l-0.1-0.13c-0.73-1.01-2.14-1.24-3.15-0.51c-1.01,0.73-1.24,2.14-0.51,3.15l0.01,0.01c0,0,0,0,0,0
		l-0.07-0.08c-0.83-0.93-2.26-1.02-3.19-0.19c-0.92,0.82-1.01,2.22-0.22,3.15c-0.02,0.02-0.04,0.04-0.06,0.05l-0.12-0.11
		c-0.92-0.84-2.35-0.77-3.19,0.15c-0.78,0.85-0.77,2.13-0.04,2.98c-0.97-0.69-2.31-0.51-3.06,0.42c-0.78,0.97-0.62,2.39,0.35,3.17
		l0.01,0.01c-0.02,0.03-0.04,0.06-0.07,0.09l-0.15-0.1c-1.04-0.69-2.44-0.4-3.13,0.64c-0.69,1.04-0.4,2.44,0.64,3.13l0.09,0.06
		c-0.05,0.07-0.09,0.15-0.14,0.22l-0.19-0.1c-1.11-0.57-2.47-0.14-3.04,0.97c-0.57,1.11-0.14,2.47,0.97,3.04l0.07,0.04
		c-0.01,0.02-0.02,0.04-0.03,0.06c-1.13-0.47-2.43,0.03-2.93,1.16C11.6,39.82,12.11,41.15,13.25,41.66z"/>
</svg>
