<svg width="1280" height="720" viewBox="0 0 1280 720" fill="none" xmlns="http://www.w3.org/2000/svg">
  <defs>
    <linearGradient id="bg2" x1="104" y1="70" x2="1168" y2="648" gradientUnits="userSpaceOnUse">
      <stop stop-color="#FFF7ED"/>
      <stop offset="0.55" stop-color="#FEF3C7"/>
      <stop offset="1" stop-color="#DBEAFE"/>
    </linearGradient>
    <linearGradient id="sheet" x1="232" y1="126" x2="610" y2="572" gradientUnits="userSpaceOnUse">
      <stop stop-color="#FFFFFF"/>
      <stop offset="1" stop-color="#F8FAFC"/>
    </linearGradient>
  </defs>

  <rect width="1280" height="720" rx="36" fill="url(#bg2)"/>
  <circle cx="1098" cy="98" r="102" fill="#0EA5E9" fill-opacity="0.08"/>
  <circle cx="146" cy="610" r="132" fill="#F97316" fill-opacity="0.08"/>
  <path d="M748 170C824 118 930 120 1008 176" stroke="#FB923C" stroke-width="14" stroke-linecap="round" stroke-opacity="0.38"/>
  <path d="M768 214C848 174 944 180 1000 224" stroke="#38BDF8" stroke-width="10" stroke-linecap="round" stroke-opacity="0.28"/>

  <rect x="152" y="104" width="452" height="536" rx="30" fill="#CBD5E1" fill-opacity="0.55"/>
  <rect x="130" y="84" width="452" height="536" rx="30" fill="url(#sheet)"/>
  <rect x="130" y="84" width="452" height="536" rx="30" stroke="#E2E8F0"/>

  <rect x="178" y="142" width="182" height="36" rx="18" fill="#DBEAFE"/>
  <text x="269" y="166" text-anchor="middle" fill="#1D4ED8" font-family="Arial, Helvetica, sans-serif" font-size="20" font-weight="700">CALISMA SAYFASI</text>

  <rect x="178" y="216" width="248" height="18" rx="9" fill="#0F172A" fill-opacity="0.85"/>
  <rect x="178" y="248" width="324" height="12" rx="6" fill="#64748B" fill-opacity="0.58"/>
  <rect x="178" y="274" width="286" height="12" rx="6" fill="#64748B" fill-opacity="0.42"/>

  <circle cx="208" cy="344" r="16" fill="#22C55E" fill-opacity="0.18"/>
  <path d="M200 344L206 350L218 338" stroke="#16A34A" stroke-width="5" stroke-linecap="round" stroke-linejoin="round"/>
  <rect x="238" y="336" width="222" height="14" rx="7" fill="#334155" fill-opacity="0.9"/>

  <circle cx="208" cy="398" r="16" fill="#38BDF8" fill-opacity="0.18"/>
  <rect x="238" y="390" width="248" height="14" rx="7" fill="#334155" fill-opacity="0.78"/>

  <circle cx="208" cy="452" r="16" fill="#F97316" fill-opacity="0.18"/>
  <rect x="238" y="444" width="210" height="14" rx="7" fill="#334155" fill-opacity="0.66"/>

  <circle cx="208" cy="506" r="16" fill="#A855F7" fill-opacity="0.18"/>
  <rect x="238" y="498" width="274" height="14" rx="7" fill="#334155" fill-opacity="0.56"/>

  <rect x="694" y="142" width="428" height="196" rx="30" fill="#0F172A"/>
  <rect x="728" y="176" width="170" height="34" rx="17" fill="#155E75"/>
  <text x="813" y="199" text-anchor="middle" fill="#ECFEFF" font-family="Arial, Helvetica, sans-serif" font-size="19" font-weight="700">GENEL BAKIS</text>
  <text x="728" y="258" fill="#F8FAFC" font-family="Arial, Helvetica, sans-serif" font-size="38" font-weight="700">Sinav Bilgileri</text>
  <text x="728" y="304" fill="#CBD5E1" font-family="Arial, Helvetica, sans-serif" font-size="22">Aciklama, kaynak ve katilim</text>
  <text x="728" y="334" fill="#CBD5E1" font-family="Arial, Helvetica, sans-serif" font-size="22">durumunu one cikarir</text>

  <rect x="694" y="380" width="200" height="182" rx="28" fill="#FFFFFF"/>
  <rect x="726" y="412" width="72" height="72" rx="20" fill="#EEF2FF"/>
  <path d="M762 434V458" stroke="#4F46E5" stroke-width="8" stroke-linecap="round"/>
  <path d="M744 446H780" stroke="#4F46E5" stroke-width="8" stroke-linecap="round"/>
  <text x="726" y="524" fill="#0F172A" font-family="Arial, Helvetica, sans-serif" font-size="22" font-weight="700">Soru Akisi</text>
  <text x="726" y="552" fill="#475569" font-family="Arial, Helvetica, sans-serif" font-size="18">Baslik ve ozet karti</text>

  <rect x="922" y="380" width="200" height="182" rx="28" fill="#FFFFFF"/>
  <circle cx="986" cy="448" r="36" fill="#ECFDF5"/>
  <path d="M986 426V448L1004 459" stroke="#059669" stroke-width="8" stroke-linecap="round" stroke-linejoin="round"/>
  <text x="954" y="524" fill="#0F172A" font-family="Arial, Helvetica, sans-serif" font-size="22" font-weight="700">Sure Paneli</text>
  <text x="954" y="552" fill="#475569" font-family="Arial, Helvetica, sans-serif" font-size="18">Saat ve dakika vurgusu</text>
</svg>