<?xml version="1.0" encoding="utf-8"?>
<svg xmlns="http://www.w3.org/2000/svg" width="163" height="163" viewBox="0 0 163 163">
  <defs>
    <style>.cls-1{fill:#fff;opacity:0.65;}</style>
  </defs>
  <g id="Layer_2" data-name="Layer 2">
    <g id="Layer_1-2" data-name="Layer 1">
      <path class="cls-1" d="M143.6259,134.2227q.8018-.9441,1.5738-1.9126c.1025-.1285.2029-.2583.3046-.3877a81.231,81.231,0,0,0,14.1513-27.313c.0131-.044.0248-.0889.0378-.1328q.549-1.8714,1.0105-3.7774c.1286-.53.25-1.0615.3681-1.5952.155-.7031.3033-1.4087.44-2.1186q.2221-1.1478.4119-2.3067c.0633-.3891.13-.7768.1879-1.1675.1578-1.061.2908-2.13.4071-3.2036q.05-.4644.0949-.93c.1108-1.146.2005-2.2978.2629-3.457.0112-.208.0178-.417.0274-.6255.0581-1.2588.0959-2.5224.0959-3.7949q0-2.06-.1035-4.0933c-.0285-.5776-.0853-1.1474-.1258-1.7216-.0545-.7681-.0992-1.5386-.1749-2.3008-.0739-.7476-.178-1.4859-.272-2.2276-.0728-.5717-.1333-1.1469-.2179-1.7143-.1285-.8662-.2867-1.7222-.4423-2.5791-.0776-.4258-.1441-.8555-.2284-1.2793-.19-.96-.4094-1.91-.633-2.8574-.0721-.3047-.1358-.6128-.2114-.9161-.2585-1.0415-.5451-2.0712-.8432-3.0966-.0569-.1949-.1081-.3916-.1664-.586-.3336-1.1162-.695-2.2192-1.0745-3.3144-.0316-.0908-.0606-.1826-.0925-.2735A81.5274,81.5274,0,0,0,87.1085.2134L87.0991.1973,86.291.1514,86.2887.1509c-.382-.022-.7642-.0425-1.1475-.0591C83.8383.0308,82.6355,0,81.5,0s-2.3383.0308-3.6412.0918c-.3833.0166-.7655.0371-1.1475.0591L76.709.1514l-.8081.0459-.0094.0161A81.5275,81.5275,0,0,0,4.5858,54.54c-.0318.0909-.0609.1827-.0925.2735-.3795,1.0952-.7409,2.1982-1.0745,3.3144-.0583.1944-.11.3911-.1664.586-.2981,1.0254-.5847,2.0551-.8432,3.0966-.0756.3033-.1393.6114-.2114.9161-.2236.9477-.4429,1.8969-.633,2.8574-.0843.4238-.1508.8535-.2284,1.2793-.1556.8569-.3138,1.7129-.4423,2.5791C.81,70.01.749,70.585.6762,71.1567c-.094.7417-.1981,1.48-.272,2.2276-.0757.7622-.12,1.5327-.1749,2.3008-.0405.5742-.0973,1.144-.1258,1.7216Q.0022,79.4407,0,81.5c0,1.2725.0378,2.5361.0959,3.7949.01.2085.0162.4175.0274.6255.0624,1.1592.1521,2.311.2629,3.457q.0447.4659.0949.93C.5974,91.3813.73,92.45.8882,93.5112c.0578.3907.1246.7784.1879,1.1675q.19,1.1595.4119,2.3067c.1367.71.285,1.4155.44,2.1186.1181.5337.24,1.0654.3681,1.5952q.4607,1.9065,1.0105,3.7774c.013.0439.0247.0888.0378.1328a81.2311,81.2311,0,0,0,14.1384,27.2968c.1085.1377.2157.2764.3251.4136q.7655.9581,1.5576,1.8931c.1523.1792.3086.3555.4624.5337,1.1247,1.3013,2.2834,2.5718,3.487,3.7993l.0035.0039.0008,0A81.4425,81.4425,0,0,0,143.1955,134.72C143.3386,134.5537,143.4841,134.39,143.6259,134.2227ZM81.5,8c2.3037,0,4.5792.12,6.8293.3286l5.1581,8.9341L115.23,54.9219A68.415,68.415,0,0,0,83.17,45.416q-1.3129-.0513-2.6338-.0508a64.5707,64.5707,0,0,0-32.1349,8.4629L69.5126,17.2627l5.1581-8.9341C76.9208,8.12,79.1963,8,81.5,8ZM155,81.5a73.08,73.08,0,0,1-5.2463,27.2178l-3.9259-6.8A67.4651,67.4651,0,0,0,95.9755,15.5723L92.0469,8.7676A73.6055,73.6055,0,0,1,155,81.5ZM42.9866,57.207h0L28.6071,82.1133l-9.37,16.2285A64.5149,64.5149,0,0,1,64.9616,19.1445Zm2.4477,1.9688A62.6319,62.6319,0,0,1,71.145,49.0615l.0488-.0088c.6746-.1006,1.353-.1855,2.0327-.2646.0934-.0108.1859-.0264.2795-.0361.6415-.0713,1.2866-.127,1.9326-.1788.1315-.0107.2618-.0263.3934-.0361.6212-.0459,1.2459-.0762,1.8711-.1035.1581-.0068.3148-.02.4732-.0254q1.1753-.044,2.36-.043,1.25,0,2.4922.0479c.3377.0127.6732.039,1.01.0576.49.0264.98.0469,1.4681.085.4336.0332.8647.082,1.2969.124.3874.0381.7761.0674,1.1624.1123.5012.0586,1,.1338,1.4991.2031.3149.044.6314.08.9456.1289.5423.084,1.0817.1856,1.6217.2842.2681.0488.5377.0889.8052.1416.5937.1152,1.1843.249,1.7749.3818.2108.0479.423.087.6335.1368.6186.1464,1.234.3095,1.8491.4736.1809.0488.363.09.5436.14.6418.1778,1.28.3731,1.9181.5713.1515.0469.3042.0879.4554.1358.6717.2138,1.34.4443,2.007.6816.1154.041.2317.0762.347.1182.679.2451,1.3549.5068,2.0293.7754.1024.04.2058.0761.3081.1181.6935.28,1.3837.5762,2.072.8819.0812.0351.1631.0673.2443.1035.6948.3115,1.3861.6387,2.0755.9746.0741.0361.1488.0693.2227.1055.7148.3515,1.426.72,2.1347,1.0986.0464.0244.0933.0469.14.0723q1.0629.5712,2.116,1.1855c.0472.0273.0948.0518.142.08q1.0645.621,2.119,1.2861c.0384.0244.0772.0459.1156.07.7015.4424,1.3992.9014,2.0942,1.3711.0375.0254.0755.0489.113.0742.0967.98.144,1.9112.144,2.835,0,18.0166-16.4389,32.6748-36.645,32.6748S45.146,81.2373,45.146,63.2207A29.2642,29.2642,0,0,1,45.4343,59.1758Zm-3.2495,5.42c.807,19.0352,18.2584,34.3,39.6062,34.3,21.0034,0,38.2348-14.7764,39.5543-33.3818l13.2138,22.8877C126.0664,98.2256,108.4365,113.73,81.791,113.73c-26.912,0-44.6121-15.7559-53.1175-25.7315Zm78.9985-5.3623,0-.002-.1838-.3173L98.038,19.1445a64.5152,64.5152,0,0,1,45.7249,79.1973ZM8,81.5A73.6052,73.6052,0,0,1,70.9526,8.7676L67.024,15.5723A67.4646,67.4646,0,0,0,17.1724,101.918l-3.9259,6.8A73.0788,73.0788,0,0,1,8,81.5ZM81.5,149a67.3211,67.3211,0,0,0,35.3336-10h10.3687a73.2717,73.2717,0,0,1-91.4045,0H46.1664A67.3211,67.3211,0,0,0,81.5,149ZM52.2783,139h58.4434a64.4934,64.4934,0,0,1-58.4434,0Zm69.37-3H32.2408a73.8712,73.8712,0,0,1-17.5159-23.8428l3.6945-6.3984h0l8.6673-15.0127C36.188,101.1494,54.3938,116.73,81.791,116.73c27.1354,0,45.2679-15.3408,54.3513-25.5869l8.4383,14.6162h0l3.6945,6.3984A73.8712,73.8712,0,0,1,130.7592,136Z"/>
    </g>
  </g>
</svg>