<?xml version="1.0" encoding="utf-8"?>
<svg xmlns="http://www.w3.org/2000/svg" width="162.9944" height="163.0005" viewBox="0 0 162.9944 163.0005">
  <defs>
    <style>.cls-1{fill:#fff;opacity:0.65;}</style>
  </defs>
  <g id="Layer_2" data-name="Layer 2">
    <g id="Layer_1-2" data-name="Layer 1">
      <path class="cls-1" d="M162.913,80.2251a11.3552,11.3552,0,0,0-1.1531-3.876l-27.1083-53.416A41.9263,41.9263,0,0,0,97.2983,0H65.7018A41.9435,41.9435,0,0,0,28.3356,22.9331L1.2267,76.3491a11.4276,11.4276,0,0,0,.0005,10.3028l27.1084,53.416a41.5631,41.5631,0,0,0,10.965,13.5478c.0765.0625.1555.1211.2324.1831q.7613.6057,1.55,1.1753c.288.21.5753.42.8687.6236l.0116.0073A41.7524,41.7524,0,0,0,65.7018,163h.2771l.0071,0H97.0012l.0071,0h.29a41.726,41.726,0,0,0,24.8686-8.2153q.5226-.3838,1.0333-.7837c.2169-.1719.4358-.34.6493-.5161a41.5782,41.5782,0,0,0,10.8021-13.417L161.76,86.6519a11.3611,11.3611,0,0,0,1.1531-3.8765A10.0315,10.0315,0,0,0,162.913,80.2251ZM65.7018,8H97.2983a33.24,33.24,0,0,1,29.86,18.147l27.6163,54.4175a2.0483,2.0483,0,0,1,0,1.8715l-27.6164,54.4175a33.1062,33.1062,0,0,1-3.7938,5.855,91.8868,91.8868,0,0,0-27.371-7.1035V106.1255h29.2579a4.53,4.53,0,0,0,3.1816-1.3184l9-9a4.5037,4.5037,0,0,0,0-6.3633l-9-9a4.53,4.53,0,0,0-3.1816-1.3183H95.9933v-13h27.5a4.5049,4.5049,0,0,0,4.5-4.5v-18a4.5049,4.5049,0,0,0-4.5-4.5h-27.5v-3.5a4.5049,4.5049,0,0,0-4.5-4.5h-10a4.5049,4.5049,0,0,0-4.5,4.5v3.5H63.9045c.0534-1.209.0888-2.4209.0888-3.6367V8.0581C64.5611,8.03,65.1284,8,65.7018,8ZM95.9933,42.1255h27.5a1.5016,1.5016,0,0,1,1.5,1.5v18a1.5016,1.5016,0,0,1-1.5,1.5H59.1572a80.9684,80.9684,0,0,0,4.56-21h32.276Zm-16-3v-3.5a1.5016,1.5016,0,0,1,1.5-1.5h10a1.5016,1.5016,0,0,1,1.5,1.5v3.5Zm13,27v13h-13v-13Zm-37.0372-3H43.736a1.4927,1.4927,0,0,1-1.061-.44l-9-9a1.5006,1.5006,0,0,1,0-2.1211l9-8.999a1.4914,1.4914,0,0,1,1.0615-.44H60.7046A77.9747,77.9747,0,0,1,55.9561,63.1255Zm2.0471,3h18.99v13H51.3021A81.7574,81.7574,0,0,0,58.0032,66.1255Zm18.99,16h48.2579a1.51,1.51,0,0,1,1.0605.4394l9,9a1.5012,1.5012,0,0,1,0,2.1211l-9,9a1.5106,1.5106,0,0,1-1.0605.4395H45.4933a1.5017,1.5017,0,0,1-1.5-1.5v-18a1.5016,1.5016,0,0,1,1.5-1.5Zm16,24v29h-13v-29Zm-6.5,32a89.51,89.51,0,0,1,34.7615,6.92A33.45,33.45,0,0,1,97.2983,155H65.7018a33.6067,33.6067,0,0,1-20.5059-6.9028A90.3215,90.3215,0,0,1,86.4933,138.1255Zm-25.5-102.6367c0,1.2158-.0375,2.4277-.093,3.6367H43.736a4.4723,4.4723,0,0,0-3.1821,1.3183l-9,9a4.4995,4.4995,0,0,0,0,6.3633l9.0005,9.001a4.4731,4.4731,0,0,0,3.1816,1.3174H54.7545a78.8959,78.8959,0,0,1-7.0407,13H45.4933a4.5049,4.5049,0,0,0-4.5,4.5v4.1767c-1.0874,1.2207-2.0518,2.253-2.9921,3.1944l-16.87,16.87L8.2256,82.436a2.0472,2.0472,0,0,1,0-1.8711L35.842,26.1465A33.1116,33.1116,0,0,1,60.9933,8.3208ZM35.8419,136.8535,22.5594,110.6807l17.5633-17.563q.4319-.4321.8706-.8887v9.3965a4.505,4.505,0,0,0,4.5,4.5h31.5v29.4853a93.1315,93.1315,0,0,0-34.2819,10.4038A32.9774,32.9774,0,0,1,35.8419,136.8535Z"/>
    </g>
  </g>
</svg>