<?xml version="1.0" encoding="utf-8"?>
<svg xmlns="http://www.w3.org/2000/svg" width="163.0001" height="163" viewBox="0 0 163.0001 163">
  <defs>
    <style>.cls-1{fill:#fff;opacity:0.65;}</style>
  </defs>
  <g id="Layer_2" data-name="Layer 2">
    <g id="Layer_1-2" data-name="Layer 1">
      <path class="cls-1" d="M142.8741,135.1143c.22-.252.4272-.5127.644-.7671.4231-.4961.8463-.9912,1.2576-1.4976.3372-.415.6615-.8384.99-1.2593q2.3621-3.0263,4.4373-6.2729c.1687-.2647.3424-.5259.508-.7925.4537-.728.89-1.4673,1.3215-2.21.1319-.2281.2642-.4556.3939-.6846q.6819-1.2035,1.3247-2.43c.0519-.0991.1018-.2.1532-.2988A81.4889,81.4889,0,0,0,81.5161,0H81.5c-1.25,0-2.4932.0376-3.7338.0942a81.0406,81.0406,0,0,0-38.6439,11.78c-.2861.1743-.5626.3648-.8466.5425-.82.5142-1.64,1.0288-2.4395,1.5708-.4635.314-.9121.65-1.3692.9736-.6117.4331-1.23.8584-1.8285,1.3077-.4681.351-.9207.7241-1.3816,1.0859-.5764.4521-1.159.8965-1.7228,1.3638-.3927.3256-.771.6694-1.158,1.0029-.6211.5347-1.2455,1.0649-1.85,1.6177-.2854.2617-.5593.5366-.8412.8022-.6955.6543-1.3889,1.3106-2.061,1.9888-.1774.1792-.3469.3672-.5227.5478-.7677.7891-1.5254,1.5874-2.2609,2.4068-.0854.0952-.1669.1948-.252.291q-1.229,1.3821-2.3974,2.8169c-.02.0244-.0382.05-.0578.0737q-2.5342,3.13-4.7547,6.51l-.0036.0053-.1846.28-.0015.01A81.0183,81.0183,0,0,0,2.14,62.9766c-.0806.3442-.1625.688-.2386,1.0341q-.2223,1.0152-.42,2.04c-.112.58-.2122,1.1626-.3118,1.7461-.0919.543-.1923,1.0825-.2735,1.6289C.731,70.5293.5927,71.6416.4725,72.76c-.0436.4091-.0769.8213-.1145,1.2319q-.12,1.303-.199,2.6172c-.023.3877-.0472.7749-.0648,1.164C.0382,79.0059,0,80.2441,0,81.4907L0,81.5A81.5,81.5,0,0,0,81.5,163h0c1.184,0,2.3593-.0366,3.53-.0894.5209-.0224,1.0393-.0532,1.5576-.0849.53-.0342,1.0586-.0762,1.5862-.1206q2.32-.1882,4.6032-.5l.0131.0044.3291-.0469.0143-.0024a81.1363,81.1363,0,0,0,40.831-18.3106c.1009-.0849.1985-.1738.299-.2588q1.3618-1.1586,2.6736-2.3715c.2028-.1885.4-.3834.6013-.5738.7655-.7251,1.52-1.4609,2.2572-2.2153.2537-.26.5013-.5254.7518-.7886.6729-.7075,1.3361-1.4233,1.9835-2.1548C142.6434,135.36,142.7628,135.2412,142.8741,135.1143ZM155,81.5A73.5494,73.5494,0,0,1,153.5568,96H138.9645a25.311,25.311,0,0,0-3.1493-10.8438l.0032-.0019-4.9192-9.2285C130.96,75.1221,131,74.3145,131,73.5V27.2178A73.3226,73.3226,0,0,1,155,81.5ZM102.8917,51.5342c.152-.0225.3017-.0488.4575-.0674.1958-.0244.3927-.043.59-.06.427-.0351.859-.0634,1.3115-.0634.3824,0,.7613.0185,1.1384.0458.17.0127.3381.0333.5067.0518.1915.02.3825.043.5724.07.2236.0332.4463.07.6674.1133.1075.02.2143.0439.3213.0674a15.2538,15.2538,0,0,1,3.5159,1.2236c.0333.0166.0667.0322.1.05.26.13.5147.2686.7665.4131.073.042.1447.0869.2172.13.23.1377.4586.2773.6809.4267.1156.0782.2274.1641.3412.2452a15.2239,15.2239,0,0,1,4.4135,4.8711l9.2237,17.2812c-.4813-.3242-.9774-.6269-1.4809-.918-.0645-.0371-.1289-.0752-.1939-.1123a25.3805,25.3805,0,0,0-3.2357-1.542c-.0268-.0107-.0534-.0214-.08-.0312a25.087,25.087,0,0,0-3.461-1.0674L119.1,72.624a25.4294,25.4294,0,0,0-3.4746-.5293q-.1918-.016-.3842-.0293c-.5723-.039-1.1475-.0654-1.7292-.0654-.5445,0-1.0833.0225-1.6192.0566-.1523.01-.3036.0225-.4552.0352q-.6251.05-1.2409.1309c-.1289.0166-.2586.03-.3869.0488q-.7782.1143-1.5413.2724c-.1041.0225-.2062.0489-.31.0723q-.6207.1377-1.23.3067c-.1472.041-.2941.082-.44.125q-.6409.19-1.2682.4111c-.0708.0254-.1431.0469-.2137.0722-.4791.1749-.95.3663-1.4152.5684-.13.0566-.2583.1162-.3874.1748q-.5327.2432-1.052.5078c-.1269.0645-.2541.128-.38.1944-.4444.2373-.8828.4834-1.3112.7451-.0615.0371-.1207.0781-.182.1162q-.5576.3471-1.095.7226c-.1254.087-.2492.1758-.3729.2657-.3239.2334-.6417.4756-.9541.7236-.0892.0713-.1805.14-.2687.2119-.3851.3145-.76.6416-1.1258.9776-.0947.0878-.1859.1787-.2793.2666-.2816.2675-.5572.54-.8265.82-.104.1074-.208.2148-.31.3252-.3283.3525-.65.7129-.9577,1.084-.0143.0175-.03.0332-.0443.0507-.32.3877-.6246.7871-.9217,1.1934-.0856.1172-.1686.2363-.2524.3545q-.34.4819-.6575.98c-.0688.1074-.14.2138-.2073.3232q-.3974.643-.7585,1.31c-.011.0215-.0242.041-.0351.0615V61.1738a15.1969,15.1969,0,0,1,.7578-1.67l.6217-1.0859A15.226,15.226,0,0,1,102.8917,51.5342ZM92.5992,53.45V47.8486a8.8448,8.8448,0,0,1,16.9365-3.5752l2.5752,5.4014c-.269-.11-.5477-.1924-.8216-.2891-.1352-.0478-.2692-.0986-.4058-.1425-.2832-.0928-.568-.1768-.8557-.2549-.2227-.0606-.448-.1123-.6732-.1651-.3273-.0752-.6556-.1445-.9878-.2021-.3565-.0615-.7149-.1143-1.0763-.1553-.1689-.0185-.3378-.0351-.5077-.05-.5077-.043-1.0174-.0722-1.5318-.0722-.4237,0-.8357.0166-1.2407.0419l-.0113.001A17.8408,17.8408,0,0,0,92.5992,53.45ZM113.5123,75c.4655,0,.9283.0186,1.3891.0469.1178.0068.2346.0176.3521.0273q.5595.0425,1.1139.1133c.09.0117.1806.0215.27.0342a22.4,22.4,0,0,1,2.8089.5781c.02.0059.04.0117.06.0166q.69.1919,1.3649.4258l.0292.01a22.5119,22.5119,0,0,1,2.6793,1.1347c.0321.0166.0635.0332.0952.0488q.59.3,1.1612.6338c.04.0235.0819.0469.1224.07q.61.3619,1.1966.7588c.0211.0147.0415.03.0626.045.34.2324.6708.4775.9975.7285l.0935.0732a28.2993,28.2993,0,0,1-7.6559,13.9072l-14.4268,14.4268c-.1123.1123-.2171.23-.3276.3438a10.4716,10.4716,0,0,1-3.6309-7.9229,1.5,1.5,0,0,0-3,0,13.4619,13.4619,0,0,0,4.6452,10.166,31.37,31.37,0,0,0-3.1082,4.6582A22.4879,22.4879,0,0,1,113.5123,75Zm-8.1371,37.3857A13.4128,13.4128,0,0,0,111.7676,114a1.5,1.5,0,1,0,0-3,10.4267,10.4267,0,0,1-4.2927-.9277L121.774,95.7734a31.3165,31.3165,0,0,0,8.0537-13.7422c.1931.2042.3835.41.57.6211.11.125.2188.2491.3257.376.2461.293.4863.5908.7183.8965.0472.0625.0952.124.1419.1875.25.3369.4907.6836.7231,1.0371.0671.1016.132.2051.1976.3086q.3114.4893.6.9981a22.4827,22.4827,0,0,1-30.7956,30.5429A28.4386,28.4386,0,0,1,105.3752,112.3857ZM128,24.627v45.86l-6.8662-12.88-.3453-.623-.0415-.0088a18.2,18.2,0,0,0-3.9868-4.5235l-4.5014-9.4375a11.8446,11.8446,0,0,0-22.66,4.834l.0014,9.4c-.1176.1973-.24.3906-.351.5938a17.93,17.93,0,0,0-.8008,1.6943,9.4422,9.4422,0,0,0-13.8823.0371,18.04,18.04,0,0,0-.816-1.7314c-.11-.2022-.2324-.3946-.35-.5918V47.8486a11.847,11.847,0,0,0-5.2769-9.8525L96.5626,9.5576A73.2733,73.2733,0,0,1,128,24.627ZM88.0123,66.002V80h-13.02l.044-13.998a6.4878,6.4878,0,0,1,12.9756,0ZM71.9879,83v2.5078c-.0111-.02-.0243-.04-.0352-.0615q-.36-.6664-.7586-1.31c-.0674-.1094-.1384-.2158-.2072-.3232q-.3179-.4982-.6576-.98c-.0836-.1182-.1666-.2373-.2524-.3545-.297-.4063-.6017-.8057-.9217-1.1934-.0143-.0175-.03-.0332-.0442-.0507-.3082-.3711-.6294-.7315-.9577-1.084-.1023-.11-.2063-.2178-.31-.3252-.2692-.28-.5449-.5528-.8263-.82-.0936-.0879-.1847-.1788-.2795-.2666-.3659-.336-.7407-.6631-1.1257-.9776-.0883-.0722-.18-.1406-.2688-.2119-.3123-.248-.63-.49-.954-.7236-.1238-.09-.2475-.1787-.373-.2657q-.538-.375-1.095-.7226c-.0612-.0381-.12-.0791-.1819-.1162-.4285-.2617-.8668-.5078-1.3113-.7451-.1256-.0664-.2529-.13-.38-.1944q-.52-.265-1.0524-.5078c-.1289-.0586-.2566-.1182-.3865-.1748-.4656-.2021-.9365-.3935-1.4158-.5684-.0705-.0253-.1427-.0468-.2135-.0722q-.627-.2213-1.2684-.4111c-.1462-.043-.2931-.084-.44-.125q-.609-.1686-1.23-.3067c-.1037-.0234-.2057-.05-.31-.0723q-.7625-.16-1.5412-.2724c-.1284-.0186-.2581-.0322-.387-.0488q-.6161-.0807-1.2409-.1309c-.1515-.0127-.3028-.0254-.4551-.0352C50.571,72.0225,50.0323,72,49.4879,72c-.5819,0-1.1571.0264-1.7294.0654q-.1926.0132-.3842.0293A25.4365,25.4365,0,0,0,43.9,72.624l-.1638.0381A25.0857,25.0857,0,0,0,40.275,73.73c-.0269.01-.0537.02-.0806.0312a25.3844,25.3844,0,0,0-3.2355,1.542c-.0649.0371-.1292.0752-.1938.1123-.5036.2911-1,.5938-1.4809.918l9.042-16.9619.1817-.32a15.215,15.215,0,0,1,3.9253-4.5176c.2775-.2158.5622-.417.8507-.6113.1973-.1319.4-.2549.6031-.378.0984-.0595.1966-.12.2962-.1777.2381-.1367.48-.2676.7249-.3906.048-.0244.0962-.0479.1443-.0713a15.2378,15.2378,0,0,1,3.4893-1.2119c.1075-.0235.2146-.0469.3226-.0674.2209-.043.4434-.08.6667-.1133.19-.0273.3821-.05.5742-.07.1679-.0185.3355-.0391.5044-.0518.3775-.0273.7567-.0458,1.1395-.0458.4525,0,.8844.0283,1.3115.0634.1975.0166.3945.0352.59.06.1558.0186.3054.0449.4576.0674a15.2253,15.2253,0,0,1,10.4907,6.8691l.709,1.2559a15.3836,15.3836,0,0,1,.68,1.5146v20.28L71.983,83Zm-25.5,28a10.5118,10.5118,0,0,1-10.5-10.5,1.5,1.5,0,0,0-3,0,13.43,13.43,0,0,0,.4765,3.5H27.9489a22.4373,22.4373,0,0,1,1.9473-17.5439q.2877-.51.6-.9981c.0656-.1035.13-.207.1977-.3086.2324-.3535.4727-.7.723-1.0371.0467-.0635.0948-.125.1419-.1875.232-.3057.4722-.6035.7183-.8965.1068-.1269.2161-.251.3256-.375q.2924-.3325.5971-.6513c.1059-.1114.21-.2247.3178-.334q.4422-.4454.9065-.8653c.0935-.0849.1909-.165.2858-.248.2491-.2168.5018-.43.76-.6348.1045-.084.2093-.167.3153-.248.3267-.251.658-.4961.9975-.7285.021-.0147.0415-.03.0625-.045q.5862-.3984,1.1968-.7588c.04-.0234.0817-.0468.1222-.07q.5713-.3339,1.1612-.6338c.0317-.0156.0632-.0322.0952-.0488A22.5147,22.5147,0,0,1,42.1,76.252l.029-.01q.6746-.2345,1.3657-.4258c.02-.0049.0389-.0107.0586-.0166a22.4089,22.4089,0,0,1,2.81-.5781c.09-.0127.18-.0225.27-.0342q.554-.0718,1.1143-.1133c.1173-.01.2342-.02.352-.0273C48.56,75.0186,49.0222,75,49.4879,75a22.5,22.5,0,1,1-20.3892,32h5.5635a13.5088,13.5088,0,0,0,11.8257,7,1.5,1.5,0,0,0,0-3ZM27.1848,85.1562a25.33,25.33,0,0,0-3.1911,12.1153A109.6975,109.6975,0,0,1,15.05,56H37.0738a31.8352,31.8352,0,0,0,6.3086-.6309,18.047,18.047,0,0,0-1.16,1.6553l-.0527.0147L27.1817,85.1543ZM57.2261,44.6523a28.6354,28.6354,0,0,1-6.18,4.6924L53.48,44.2412a8.7437,8.7437,0,0,1,9.3032-5.1455Zm8.7175-4.4755a8.8491,8.8491,0,0,1,4.4573,7.6718V53.45a17.8411,17.8411,0,0,0-11.4-5.0635l-.0113-.001c-.4051-.0253-.817-.0419-1.2407-.0419-.036,0-.0713.0029-.1073.0029.5829-.5039,1.1551-1.0235,1.7054-1.5733ZM81.5,8a73.751,73.751,0,0,1,11.4766.9014l-27.705,27.705a11.8115,11.8115,0,0,0-14.5152,6.376l-3.969,8.3242A28.516,28.516,0,0,1,37.0738,53H15.0089c.0044-.9717.0317-1.9463.0617-2.9214A73.5871,73.5871,0,0,1,81.5,8ZM34.7715,121.7012a114.5818,114.5818,0,0,0,39.2774,32.9223,73.4611,73.4611,0,0,1-61.9714-97.22A112.3964,112.3964,0,0,0,34.7715,121.7012Zm47.0458,33.2905A111.6824,111.6824,0,0,1,37.168,119.8965c-.0337-.0449-.0647-.0918-.0984-.1367A25.4829,25.4829,0,0,0,74.9879,97.5V83H88.0123V97.5a25.4786,25.4786,0,0,0,10.4643,20.5781A31.4331,31.4331,0,0,0,96,130.3525v23.2041A73.5742,73.5742,0,0,1,81.8173,154.9917ZM99,130.3525a28.4677,28.4677,0,0,1,2.0429-10.622A25.478,25.478,0,0,0,138.9645,99h13.9136A73.7389,73.7389,0,0,1,99,152.8779Z"/>
    </g>
  </g>
</svg>