<?xml version="1.0" encoding="utf-8"?>
<svg xmlns="http://www.w3.org/2000/svg" width="162.9949" height="163" viewBox="0 0 162.9949 163">
  <defs>
    <style>.cls-1{opacity:0.65;}.cls-2{fill:#fff;}</style>
  </defs>
  <g id="Layer_2" data-name="Layer 2">
    <g id="Layer_1-2" data-name="Layer 1">
      <g class="cls-1">
        <path class="cls-2" d="M108.0762,52.5225a9.5,9.5,0,1,0-9.5,9.5A9.5108,9.5108,0,0,0,108.0762,52.5225Zm-16,0a6.5,6.5,0,1,1,6.5,6.5A6.5075,6.5075,0,0,1,92.0762,52.5225Z"/>
        <path class="cls-2" d="M162.9152,80.2378a11.3491,11.3491,0,0,0-1.1545-3.8892l-27.1084-53.416A41.9266,41.9266,0,0,0,97.2983,0H65.7018A41.9446,41.9446,0,0,0,28.3359,22.9326L1.2275,76.3486A11.3841,11.3841,0,0,0,0,81.5c0,.0312.0051.062.0054.0933A11.379,11.379,0,0,0,1.2275,86.65l27.1084,53.417A41.9437,41.9437,0,0,0,65.7018,163H97.2983a41.9261,41.9261,0,0,0,37.354-22.9326L161.7607,86.65a11.347,11.347,0,0,0,1.1543-3.8872A10.0346,10.0346,0,0,0,162.9152,80.2378ZM127.1581,26.147l27.6163,54.4175a2.0483,2.0483,0,0,1,0,1.8715l-24.9669,49.1968-4.4322-4.4321a5.4611,5.4611,0,0,0,.7008-2.6782v-80a5.5068,5.5068,0,0,0-5.5-5.5h-5.29a21.4522,21.4522,0,0,0-33.4207,0h-11.79V8H97.2983A33.24,33.24,0,0,1,127.1581,26.147ZM84.248,75.3623c1.8354,3.4961,4.8188,8.4961,8.2366,11.66H74.86a21.3578,21.3578,0,0,0-15.2022,6.2968L55.374,97.6045a18.3683,18.3683,0,0,1-9.2978,5.0259V42.0732a8.334,8.334,0,0,1,.86-.0507H79.833a21.35,21.35,0,0,0-2.7568,10.5C77.0762,58.0977,79.8916,67.0635,84.248,75.3623Zm-4.1718-22.84a18.5,18.5,0,0,1,37,0c0,12.49-12.7676,34.5-18.5,34.5C91.8779,87.0225,80.0762,63.2129,80.0762,52.5225ZM57.4951,99.7256,61.7793,95.44A18.3777,18.3777,0,0,1,74.86,90.0225H98.5762c9.2314,0,21.5-25.73,21.5-37.5a21.35,21.35,0,0,0-2.7569-10.5h3.2569a2.5023,2.5023,0,0,1,2.5,2.5v80a2.5023,2.5023,0,0,1-2.5,2.5h-73.64c-.2873,0-.5737.0288-.86.05v-21.398A21.334,21.334,0,0,0,57.4951,99.7256Zm9.5811-60.7031h-20.14a11.5648,11.5648,0,0,0-5.1426,1.2138L24.2363,49.0156,35.842,26.1465A33.24,33.24,0,0,1,65.7018,8h1.3744Zm-24.7842,64H18.673L8.2256,82.436a2.0472,2.0472,0,0,1,0-1.8711L21.9551,53.51,43.0762,42.95v60.0347C42.8144,102.9951,42.5556,103.0225,42.292,103.0225Zm.7842,2.9619v21.71a11.4687,11.4687,0,0,0-1.2823.542l-8.2354,4.1177-13.363-26.3315H42.292C42.5556,106.0225,42.8141,105.9937,43.0762,105.9844Zm-7.2343,30.8691-.9255-1.8237,8.2193-4.11a8.5433,8.5433,0,0,1,3.8008-.8974h73.64a5.4593,5.4593,0,0,0,2.6781-.7007l5.1252,5.125-1.2214,2.4067A33.2393,33.2393,0,0,1,97.2983,155H65.7018A33.2391,33.2391,0,0,1,35.8419,136.8535Z"/>
      </g>
    </g>
  </g>
</svg>