<?xml version="1.0" encoding="utf-8"?>
<svg xmlns="http://www.w3.org/2000/svg" width="163.0001" height="163" viewBox="0 0 163.0001 163">
  <defs>
    <style>.cls-1{fill:#fff;opacity:0.65;}</style>
  </defs>
  <g id="Layer_2" data-name="Layer 2">
    <g id="Layer_1-2" data-name="Layer 1">
      <path class="cls-1" d="M159.6864,104.502c.1284-.4356.251-.8731.3723-1.3111q.3252-1.18.6179-2.3725.2609-1.0686.4954-2.1465.152-.7083.2926-1.42c.2006-1.02.3872-2.044.5493-3.0762.0474-.3037.0857-.61.13-.9151q.2061-1.4187.3625-2.8525c.0312-.2866.0665-.5718.0947-.8594q.1716-1.7417.2665-3.5044c.0149-.271.0262-.5424.0384-.8139.0561-1.2373.0943-2.479.0943-3.7305A81.5,81.5,0,0,0,81.5161.0005L81.5,0h0c-1.3374,0-2.666.0371-3.9877.1011L77.5.1l-.021.0025C76.2852.16,75.1014.2549,73.9216.3638c-.16.0146-.3232.021-.4833.0366C72.2609.5161,71.0941.667,69.9319.832c-.1535.022-.3093.0362-.4624.0591-1.2185.18-2.4256.3941-3.6259.6275-.0868.017-.1752.03-.2621.0468q-1.8963.3758-3.7587.8413c-.0171.0044-.0346.0074-.0517.0118A81.6352,81.6352,0,0,0,3.4721,57.9409c-.0267.0879-.0492.1778-.0757.2661-.3406,1.1436-.6626,2.295-.9538,3.459-.05.2012-.0912.4053-.14.6069-.2569,1.0616-.5038,2.127-.7186,3.2042-.0658.3281-.1153.6621-.1771.9917-.1795.9619-.3578,1.9248-.5032,2.8984-.0733.4888-.1231.9849-.1876,1.4766C.6077,71.6733.4911,72.5.4078,73.3374c-.0709.71-.11,1.4292-.163,2.1445-.0464.6338-.109,1.2632-.1407,1.9009q-.1,2.001-.1018,4.0264C.0023,81.44,0,81.47,0,81.5l0,.0073C0,82.749.0385,83.9819.0938,85.21q.0213.4746.0474.9472c.0678,1.1973.1526,2.3907.2718,3.5742.0176.1758.0427.3492.0615.5245q.1626,1.5153.3828,3.0127c.058.4.1172.8.181,1.1992.1646,1.0244.3433,2.0444.5458,3.0561.0925.4639.1981.9229.2984,1.3838.1491.6821.3043,1.3623.4705,2.0386.1339.5469.27,1.0923.4152,1.6348.1559.5815.3242,1.1582.4925,1.7343q.4295,1.4751.9126,2.9258c.112.3355.2238.6709.34,1.0049q1.22,3.5112,2.7468,6.87l.0266.0586A81.8214,81.8214,0,0,0,39.31,151.2422l-.0133.0088,2.0708,1.1738,0,0a81.0174,81.0174,0,0,0,36.4837,10.4829c1.2145.0542,2.43.0918,3.6482.0918h0c.7094,0,1.4388-.0156,2.1864-.0391q.7583-.02,1.5145-.0542c.59-.0263,1.1742-.07,1.76-.1088.6375-.043,1.2749-.0855,1.91-.1426l.1285-.01v-.0019l.0733-.0064a80.9823,80.9823,0,0,0,36.7282-12.7446c.0218-.0137.0443-.0264.0661-.041l.1391-.09c.4092-.2671.8249-.5249,1.2289-.7993l.6267-.4082-.0288-.0171A81.625,81.625,0,0,0,159.6864,104.502ZM81.5,8a73.4864,73.4864,0,0,1,71.018,92.4238,1.479,1.479,0,0,0-.806-.4092l-4.9312-.7041A6.03,6.03,0,0,1,141.69,94.22L141,89.3945V67.9375h-.0185c.002-.0635.0185-.124.0185-.1885a5.4593,5.4593,0,0,0-1.6109-3.8886l-1.2641-1.2637a25.1713,25.1713,0,0,0-32.0572-32.0576l-1.2641-1.2647a5.4992,5.4992,0,0,0-7.7783,0L79,47.3V8.0635C79.8317,8.0356,80.6616,8,81.5,8ZM52.4783,111.0918l-4.0816-4.082c-.0251-.0293-.0348-.0664-.0627-.0948l-4.0376-4.0371a2.4962,2.4962,0,0,1,.1431-3.3613L60.6714,83.2842,73.0251,95.6377l12.3536,12.3535L69.1461,124.2236a2.5579,2.5579,0,0,1-3.5352,0ZM58.55,121.4062l-9.5254,9.5245a2.5586,2.5586,0,0,1-3.5357,0l-7.7568-7.7569a2.5042,2.5042,0,0,1-.0005-3.5361l9.5251-9.5254,5.6468,5.6475ZM85.2261,79.0107,99.6529,93.4365a28.5232,28.5232,0,0,1,5.6582,8.0371l-9.3364,9.336a2.5449,2.5449,0,0,1-2.4914.5966,2.5756,2.5756,0,0,1-.31-.1074,2.3763,2.3763,0,0,1-.23-.1181,2.4651,2.4651,0,0,1-.5041-.3711l-3.8764-3.876-.002-.0029L75.1462,93.5166,57.8536,76.2236a2.5,2.5,0,0,1,0-3.5351L76,54.542v2.1953A31.2912,31.2912,0,0,0,85.2261,79.0107ZM87.5,110.1133l2.8178,2.8174a5.4994,5.4994,0,0,0,.81.666c.134.0908.2809.1553.4219.2344.1452.08.2829.1748.435.2412a10.54,10.54,0,0,1-7.7129,9.5468c-.0571.0157-.1155.0284-.1729.043a10.3137,10.3137,0,0,1-1.06.2129c-.0932.0137-.1857.03-.28.042a9.7192,9.7192,0,0,1-3.0085-.0742l-.2392-.04a10.44,10.44,0,0,1-4.0073-1.6933ZM89,124.7178A13.4972,13.4972,0,0,0,94.9509,114.47a5.4394,5.4394,0,0,0,3.1454-1.539l8.4241-8.4239A28.5425,28.5425,0,0,1,108,113.59v25.7491a77.4907,77.4907,0,0,0-19-3.25Zm18.5478-25.4815a31.5932,31.5932,0,0,0-5.7739-7.9209L87.3472,76.89A28.3134,28.3134,0,0,1,79,56.7373V51.542L99.147,31.3955a2.4992,2.4992,0,0,1,3.5352,0l1.93,1.93,30.7265,30.7266,1.93,1.93a2.5,2.5,0,0,1,0,3.5352Zm.9022-66.3154a22.2,22.2,0,0,1,27.2926,27.293ZM143.7784,101.5a9.0969,9.0969,0,0,0-4.2783,4.2783,9.0971,9.0971,0,0,0-4.2784-4.2783A9.0971,9.0971,0,0,0,139.5,97.2217,9.103,9.103,0,0,0,143.7784,101.5ZM76,8.2275V50H53.61l-6.4731-.9248a8.5425,8.5425,0,0,1-7.2124-7.2119L39,35.3945V21.59A73.0436,73.0436,0,0,1,76,8.2275ZM44.5049,51.5A11.61,11.61,0,0,0,37.5,58.5049,11.61,11.61,0,0,0,30.4952,51.5,11.6044,11.6044,0,0,0,37.5,44.4951,11.6053,11.6053,0,0,0,44.5049,51.5ZM36,35.3945l-.9244,6.4688a8.5424,8.5424,0,0,1-7.2128,7.2119l-6.5752.9394a1.5006,1.5006,0,0,0,0,2.9708l6.5752.9394a8.5435,8.5435,0,0,1,7.2128,7.2119l.94,6.5752a1.5,1.5,0,0,0,2.97,0l.9395-6.5752a8.5436,8.5436,0,0,1,7.2129-7.2119L53.61,53H73.3L55.7325,70.5674a5.499,5.499,0,0,0,0,7.7773l2.818,2.8184L42.3184,97.3955a5.4343,5.4343,0,0,0-1.3157,2.1885L30.6456,89.2266A31.2916,31.2916,0,0,0,8.3721,80h-.334A73.3852,73.3852,0,0,1,36,23.8413ZM8.0381,83h.334a28.3147,28.3147,0,0,1,20.1524,8.3477l13.65,13.6513c.0518.0557.0888.12.1434.1748l2.8176,2.8174L35.61,117.5166a5.5077,5.5077,0,0,0,.0005,7.7783l7.7573,7.7569a5.4992,5.4992,0,0,0,7.7783,0l9.5251-9.5245,2.8177,2.8174a5.499,5.499,0,0,0,7.7783,0l2.0943-2.0937A13.4218,13.4218,0,0,0,78,126.5273v9.8438a77.2645,77.2645,0,0,0-31.0978,9.9541A73.5582,73.5582,0,0,1,8.0381,83Zm42.0866,64.95A74.3133,74.3133,0,0,1,78,139.3818v15.53A72.9635,72.9635,0,0,1,50.1247,147.95ZM81.5,155c-.1677,0-.3325-.0112-.5-.0127v-27.998c.0775.0029.1535-.0039.2309-.002.09.002.1787.0127.2691.0127.122,0,.24-.0146.3615-.0186.2482-.0058.4951-.0166.741-.0371.2022-.0166.4023-.0381.6021-.0634q.33-.0426.6557-.1006c.2355-.042.4685-.0889.7-.1436.1637-.0381.3263-.081.4886-.126.2713-.0732.5392-.1533.8035-.2441.0488-.0166.0991-.0273.148-.0449v28.6274C84.51,154.94,83.0123,155,81.5,155ZM89,139.0889a74.5264,74.5264,0,0,1,27.8532,6.8271A72.9367,72.9367,0,0,1,89,154.62Zm22,1.23V113.59a31.4725,31.4725,0,0,0-2.1372-11.4257L138,73.0273V89.3945l-.69,4.8252a6.03,6.03,0,0,1-5.0908,5.0908l-4.9317.7041a1.5006,1.5006,0,0,0,0,2.9708l4.9321.705a6.0281,6.0281,0,0,1,5.0908,5.09l.7046,4.9316a1.5,1.5,0,0,0,2.97,0l.7046-4.9316a6.0281,6.0281,0,0,1,5.0913-5.09l4.9317-.705c.03-.004.0547-.022.0844-.0284a73.8279,73.8279,0,0,1-31.8434,41.15A77.1881,77.1881,0,0,0,111,140.3184Z"/>
    </g>
  </g>
</svg>