<?xml version="1.0" encoding="utf-8"?>
<svg xmlns="http://www.w3.org/2000/svg" width="163" height="163.4873" viewBox="0 0 163 163.4873">
  <defs>
    <style>.cls-1{fill:#fff;opacity:0.65;}</style>
  </defs>
  <g id="Layer_2" data-name="Layer 2">
    <g id="Layer_1-2" data-name="Layer 1">
      <path class="cls-1" d="M163,81.5a81.5,81.5,0,0,0-163,0c0,.0815.0059.1616.0062.2432S0,81.9053,0,81.9873a81.5,81.5,0,0,0,163,0c0-.082-.0059-.1621-.0062-.2441S163,81.5815,163,81.5ZM81.5,155.4873a73.2474,73.2474,0,0,1-21.2833-3.1533h42.5667A73.2475,73.2475,0,0,1,81.5,155.4873Zm29.3961-6.1533H52.1039A73.4419,73.4419,0,0,1,43,144.5645v-62.21A76.1507,76.1507,0,0,1,83.6,71.9331v11.148c-3.2919,1.3852-13.3469,6.5356-13.8672,17.9375-.0156.3593-.02.7246-.0166,1.0947a25.7448,25.7448,0,0,0,1.7315,8.6387.9024.9024,0,0,1-1.1475,1.17.8721.8721,0,0,1-.5215-.4971,16.2153,16.2153,0,0,1-1.1679-6.39,1.5,1.5,0,0,0-2.6983-.93,19.5014,19.5014,0,1,0,28.2-3.1524l-.0459-.042c-.02-.0175-.3887-.3379-.9551-.9013A22.4147,22.4147,0,0,1,86.6,84.2158V72.0713A76.1911,76.1911,0,0,1,120,82.3545v62.21A73.4419,73.4419,0,0,1,110.8961,149.334ZM8.5724,91H11.5A28.3317,28.3317,0,0,1,28,96.2842v36.0234A73.2612,73.2612,0,0,1,8.5724,91ZM75,8.791c2.1436-.1889,4.3082-.3037,6.5-.3037A73.048,73.048,0,0,1,120,19.4106V40H99.5A24.5272,24.5272,0,0,1,75,15.5ZM122.924,43H135.5a2.5023,2.5023,0,0,1,2.5,2.5v8a2.5023,2.5023,0,0,1-2.5,2.5H115.2871A17.5057,17.5057,0,0,0,122.924,43Zm-3.002,0A14.5207,14.5207,0,0,1,105.5,56h-78A2.5023,2.5023,0,0,1,25,53.5v-8A2.5023,2.5023,0,0,1,27.5,43h92.422ZM74.26,109.7061a22.7294,22.7294,0,0,1-1.544-7.627c-.0039-.3145.001-.623.0137-.9727.3965-8.666,7.4726-13.1113,10.959-14.7832a25.4151,25.4151,0,0,0,7.3056,15.8125c.65.6465,1.0772,1.0166,1.09,1.0274.0195.0176.0566.0508.0869.0771A16.4875,16.4875,0,1,1,66.126,109.81a19.1084,19.1084,0,0,0,.8691,2.7343,3.9,3.9,0,0,0,7.2647-2.8378Zm9.4281-40.7735A79.1457,79.1457,0,0,0,40.7285,80.2139,1.4981,1.4981,0,0,0,40,81.5v24.6006a31.6844,31.6844,0,0,0-9-11.312V59H89.303A14.4825,14.4825,0,0,0,83.6879,68.9326ZM31,135.3159V98.7437A28.4175,28.4175,0,0,1,40,119.5v23.1089A74.0229,74.0229,0,0,1,31,135.3159Zm92,7.293V81.5a1.4981,1.4981,0,0,0-.7285-1.2861A79.2,79.2,0,0,0,86.6984,69.0688,11.5106,11.5106,0,0,1,98.1,59H132v76.3159A74.0229,74.0229,0,0,1,123,142.6089ZM135,59h.5a5.5069,5.5069,0,0,0,5.5-5.5v-8a5.5069,5.5069,0,0,0-5.5-5.5H123V21.3662a73.37,73.37,0,0,1,12,110.9414ZM8,81.9873A73.5949,73.5949,0,0,1,72,9.1221V15.5A27.5244,27.5244,0,0,0,87.0347,40H27.5A5.5069,5.5069,0,0,0,22,45.5v8A5.5069,5.5069,0,0,0,27.5,59H28V92.6812A31.3048,31.3048,0,0,0,11.5,88H8.2664C8.1047,86.0146,8,84.0137,8,81.9873Z"/>
    </g>
  </g>
</svg>