<?xml version="1.0" encoding="utf-8"?>
<svg xmlns="http://www.w3.org/2000/svg" width="162.9898" height="163" viewBox="0 0 162.9898 163">
  <defs>
    <style>.cls-1{opacity:0.65;}.cls-2{fill:#fff;}</style>
  </defs>
  <g id="Layer_2" data-name="Layer 2">
    <g id="Layer_1-2" data-name="Layer 1">
      <g class="cls-1">
        <path class="cls-2" d="M129.4888,99h2.5v2.5a1.5,1.5,0,0,0,3,0V99h2.5a1.5,1.5,0,0,0,0-3h-2.5V93.5a1.5,1.5,0,0,0-3,0V96h-2.5a1.5,1.5,0,0,0,0,3Z"/>
        <path class="cls-2" d="M162.9084,80.2251a11.3522,11.3522,0,0,0-1.153-3.8765l-27.1089-53.416A41.9238,41.9238,0,0,0,97.2937,0H65.6972A41.9416,41.9416,0,0,0,28.3311,22.9326L1.2222,76.3486A11.3833,11.3833,0,0,0,0,81.42c-.0007.0874.0044.1743.0059.2617A11.378,11.378,0,0,0,1.2227,86.65l13.4519,26.5068h0l13.6567,26.91A41.9439,41.9439,0,0,0,65.6972,163H97.2937c.4725,0,.9392-.0332,1.4091-.0488.2949-.0117.5919-.0132.8856-.0308a41.7237,41.7237,0,0,0,20.3487-6.5967c.0534-.0341.1058-.07.159-.1045.6123-.3989,1.2169-.8076,1.8072-1.2382.1211-.0879.2373-.1822.3574-.271.5319-.397,1.0627-.795,1.5752-1.2178q.97-.794,1.8908-1.6489c.0542-.05.1053-.1045.1592-.1553a41.6769,41.6769,0,0,0,4.6367-5.105,1.506,1.506,0,0,0,.2793-.3721,41.9259,41.9259,0,0,0,3.8446-6.1435L161.7554,86.65a11.359,11.359,0,0,0,1.153-3.8755A10.0322,10.0322,0,0,0,162.9084,80.2251ZM60.4605,19.5a9.5818,9.5818,0,0,0-2.8813,2.8809A9.5822,9.5822,0,0,0,54.6978,19.5a9.5822,9.5822,0,0,0,2.8814-2.8809A9.5818,9.5818,0,0,0,60.4605,19.5ZM35.8373,26.146A33.003,33.003,0,0,1,56.0792,9.3809V11.5a6.5076,6.5076,0,0,1-6.5,6.5h-2a1.5,1.5,0,0,0,0,3h2a6.5076,6.5076,0,0,1,6.5,6.5v2a1.5,1.5,0,0,0,3,0v-2a6.5075,6.5075,0,0,1,6.5-6.5h2a1.5,1.5,0,0,0,0-3h-2a6.5075,6.5075,0,0,1-6.5-6.5V8.65A34.3779,34.3779,0,0,1,65.6972,8H97.2937a33.6779,33.6779,0,0,1,19.1983,5.939A28.4421,28.4421,0,0,1,89.4888,33.3h-8A37.56,37.56,0,0,0,45.4825,60.3457c-6.781,2.7905-12.0781,5.8154-15.7195,8.9053a51.9118,51.9118,0,0,0,1.2258-11.1826V35.7Zm78.518,26.6186c12.5222,1.1929,20.6921,4.625,21.5559,9.1709a6.2383,6.2383,0,0,1-1.3677,4.71c-2.6322,3.7632-8.4114,7.5762-16.1876,10.9746a37.3232,37.3232,0,0,0-4.0006-24.8555ZM115.9888,70.8a34.4453,34.4453,0,0,1-.9963,8.2158,151.441,151.441,0,0,1-30.3665,8.086A150.8394,150.8394,0,0,1,52.3,89.1582,34.4923,34.4923,0,1,1,115.9888,70.8Zm-34.5,34.5a34.4475,34.4475,0,0,1-27.061-13.1387q2.2991.0843,4.6846.086A163.8075,163.8075,0,0,0,85.11,90.0625a156.8636,156.8636,0,0,0,28.7783-7.4043A34.56,34.56,0,0,1,81.4888,105.3Zm24,11.7a8.5,8.5,0,1,1-8.5,8.5A8.51,8.51,0,0,1,105.4888,117Zm-56.84-28.1187C35.9146,87.6719,27.921,84.16,27.0665,79.6641a4.7282,4.7282,0,0,1,.0473-1.9273c.2256-.5459.4314-1.1.6378-1.6538,2.0038-3.8838,7.97-8.2148,16.8727-12.1182a37.32,37.32,0,0,0,4.0246,24.9165Zm-20.66-30.8129a48.492,48.492,0,0,1-3.0383,16.9379,9.9786,9.9786,0,0,0-.6233,1.6167,48.4336,48.4336,0,0,1-10.5434,15.74l-.3481.3481L8.2211,82.436a2.0487,2.0487,0,0,1,0-1.872l19.768-38.9527Zm7.8485,78.7851L24.76,115.0254c.2422-.0039.4876-.0254.729-.0254a46.5673,46.5673,0,0,1,46.039,40H65.6972A33.2406,33.2406,0,0,1,35.8373,136.8535ZM25.4888,112c-.7411,0-1.4866.0239-2.2339.06L14.8637,95.5254l1.0411-1.041a51.6971,51.6971,0,0,0,8.9915-12.0713c2.9707,5.5688,12.9121,8.6313,25.6494,9.541a37.4445,37.4445,0,0,0,53.4431,8.8252v13.33a11.4888,11.4888,0,0,0,.0949,22.7959A11.51,11.51,0,0,0,115.4888,147h3.6679a33.5461,33.5461,0,0,1-21.863,8H74.5461A49.56,49.56,0,0,0,25.4888,112Zm90,32a8.5065,8.5065,0,0,1-8.3789-7.1279,11.4861,11.4861,0,0,0-.1211-22.7627V98.2612A37.5482,37.5482,0,0,0,117.4964,81.249c9.3513-3.85,16.3269-8.34,19.5051-12.8838a9.0868,9.0868,0,0,0,1.857-6.99c-1.2131-6.3848-10.8514-10.6592-26.4624-11.78A37.6963,37.6963,0,0,0,94.9754,35.8184a31.4192,31.4192,0,0,0,24.0074-19.97,32.936,32.936,0,0,1,8.1708,10.2979L154.77,80.564a2.0474,2.0474,0,0,1,0,1.8715l-27.6164,54.418A33.0221,33.0221,0,0,1,122.2393,144Z"/>
      </g>
    </g>
  </g>
</svg>