<?xml version="1.0" encoding="utf-8"?>
<svg xmlns="http://www.w3.org/2000/svg" width="163" height="163" viewBox="0 0 163 163">
  <defs>
    <style>.cls-1{fill:#fff;opacity:0.65;}</style>
  </defs>
  <g id="Layer_2" data-name="Layer 2">
    <g id="Layer_1-2" data-name="Layer 1">
      <path class="cls-1" d="M81.5,0A81.5,81.5,0,0,0,0,81.5c0,1.3276.037,2.647.1,3.96.0228.477.0653.9482.0963,1.4228.0541.8238.1089,1.6475.1874,2.4644.0564.59.13,1.1753.1991,1.7622.0806.6821.162,1.3638.2594,2.04.0945.6607.2024,1.3159.3126,1.9707.0975.5767.1982,1.1514.3078,1.7237q.2078,1.0905.4442,2.1694c.1018.4629.21.9233.3194,1.3838.1917.8071.39,1.6113.6059,2.4092.0826.3042.1721.6059.2581.9086A81.5794,81.5794,0,0,0,66.6367,161.623l.001.01,1.0823.1836a80.8208,80.8208,0,0,0,27.5506.002l1.0922-.1856.001-.01a81.58,81.58,0,0,0,63.5467-57.9111c.0856-.3013.1747-.6015.2569-.9048.2157-.7978.4145-1.6025.6063-2.41.11-.4605.2176-.9214.32-1.3843q.2364-1.08.4441-2.1694c.1095-.5718.21-1.146.3075-1.7222.11-.6553.2184-1.3115.3129-1.9722.0973-.6762.1786-1.3574.2591-2.039.0691-.5874.1428-1.1729.1993-1.7637.0784-.8169.1334-1.64.1874-2.4634.031-.4751.0735-.9463.0963-1.4233.0631-1.3125.1-2.6319.1-3.96A81.5,81.5,0,0,0,81.5,0Zm7.1846,8.3555A72.9493,72.9493,0,0,1,118,17.7441V88H104.287a29.4752,29.4752,0,0,0-3.6088-41.3223c-.01-.0088-.0713-.0634-.081-.0713-.0059-.0058-.6065-.5273-1.5288-1.4453a35.709,35.709,0,0,1-10.375-25.1582V19.832c0-.0249-.0076-.0483-.0088-.0732ZM47.5,100A2.5026,2.5026,0,0,1,45,97.5v-6a.5006.5006,0,0,1,.5-.5h72a.5006.5006,0,0,1,.5.5v6a2.5026,2.5026,0,0,1-2.5,2.5Zm64.3789,3-13,13H64.1211l-13-13ZM96.9517,47.2871c1.0048,1,1.6557,1.5645,1.7041,1.6065.0131.0117.0625.0556.0761.0673A26.4818,26.4818,0,0,1,100.2261,88H62.97a26.5,26.5,0,0,1-4.9663-30.9277,28.9719,28.9719,0,0,0,1.8,6.6855,5.2329,5.2329,0,0,0,9.7451-3.8135,36.2179,36.2179,0,0,1-2.4526-12.1435c-.0059-.5059.0024-1.0039.0225-1.5625.68-14.8828,13.621-22.0078,18.6279-24.2158A38.7092,38.7092,0,0,0,96.9517,47.2871ZM81.5,8c1.4051,0,2.7987.0488,4.1846.127V18.7993C81.3441,20.5415,64.936,28.293,64.1221,46.1807q-.0353.813-.0259,1.6533A39.19,39.19,0,0,0,66.7373,60.99a2.2294,2.2294,0,0,1-1.0034,2.7442,2.2569,2.2569,0,0,1-1.8413.1523,2.17,2.17,0,0,1-1.3057-1.248A26.1018,26.1018,0,0,1,60.709,52.3721a1.5006,1.5006,0,0,0-2.6987-.93A29.4664,29.4664,0,0,0,58.908,88H45.5a3.45,3.45,0,0,0-.5.0508V71.5A31.5435,31.5435,0,0,0,20.3568,40.7656,73.4836,73.4836,0,0,1,81.5,8ZM8,81.5A73.0542,73.0542,0,0,1,18.6248,43.4707,28.541,28.541,0,0,1,42,71.5v26a5.5055,5.5055,0,0,0,4.8345,5.4556L59.8789,116H53.9263a28.3147,28.3147,0,0,1-20.1524-8.3477L8.01,81.8887C8.0092,81.7583,8,81.63,8,81.5Zm.1735,4.7944,23.4793,23.479A31.2916,31.2916,0,0,0,53.9263,119H62.15l3.6091,34.2852A73.6315,73.6315,0,0,1,8.1735,86.2944ZM94.162,153.8857a72.4952,72.4952,0,0,1-25.3236,0L65.166,119H97.834ZM136,130.7593a73.5227,73.5227,0,0,1-38.7585,22.5254l3.6945-35.1,15.2295-15.23A5.5055,5.5055,0,0,0,121,97.5V91.0762A16.517,16.517,0,0,1,136,107.5Zm3-3.5572V107.5a19.5128,19.5128,0,0,0-18-19.4238V19.5649a73.3567,73.3567,0,0,1,18,107.6372Z"/>
    </g>
  </g>
</svg>