<?xml version="1.0" encoding="utf-8"?>
<svg xmlns="http://www.w3.org/2000/svg" width="162.9945" height="163" viewBox="0 0 162.9945 163">
  <defs>
    <style>.cls-1{opacity:0.65;}.cls-2{fill:#fff;}</style>
  </defs>
  <g id="Layer_2" data-name="Layer 2">
    <g id="Layer_1-2" data-name="Layer 1">
      <g class="cls-1">
        <path class="cls-2" d="M64.2827,81.6143a14.8945,14.8945,0,1,0,14.895,14.8945A14.9113,14.9113,0,0,0,64.2827,81.6143Zm0,26.789a11.8945,11.8945,0,1,1,11.895-11.8945A11.908,11.908,0,0,1,64.2827,108.4033Z"/>
        <path class="cls-2" d="M162.9136,80.2285a11.3524,11.3524,0,0,0-1.1543-3.88l-27.1079-53.416A41.9247,41.9247,0,0,0,97.2983,0H65.7018A41.9421,41.9421,0,0,0,28.3359,22.9326L1.2275,76.3486A11.3872,11.3872,0,0,0,0,81.5c0,.0312.0051.0625.0054.0938A11.3785,11.3785,0,0,0,1.2275,86.65l27.1084,53.417A41.9422,41.9422,0,0,0,65.7018,163H97.2983a41.9259,41.9259,0,0,0,37.3531-22.9326L161.7593,86.65a11.3462,11.3462,0,0,0,1.1542-3.8779A10.0373,10.0373,0,0,0,162.9136,80.2285ZM127.1581,26.147l26.3545,51.9311H126.9935l-.0008-26.376A28.2938,28.2938,0,0,0,74.2269,38.6294a28.3478,28.3478,0,0,0-7.2332,6.5513V8H97.2983A33.24,33.24,0,0,1,127.1581,26.147ZM64.2827,68.2188c-.5472,0-1.09.0195-1.63.05-.1332.0079-.2656.021-.3986.03-.4227.03-.8431.0684-1.2606.1167-.1275.0152-.2546.0322-.3818.0488q-.6741.0879-1.338.2071c-.0822.0146-.1646.0283-.2468.0439a28.063,28.063,0,0,0-4.8044,1.3579c-.0563.0215-.1119.0445-.1681.0664q-.6561.2556-1.2959.542-.1675.0747-.3344.1514-.5649.2622-1.1156.5483c-.0892.0459-.1813.086-.27.1328a25.5344,25.5344,0,0,1,14.83-10.58l.0313-.0088c.4228-.1089.8511-.2017,1.2806-.2891.17-.0337.34-.0669.51-.0971.3468-.063.6953-.12,1.0458-.168.2952-.04.592-.0713.8892-.1011.26-.0264.5186-.0566.78-.0747.58-.04,1.1629-.0659,1.749-.0659a25.2,25.2,0,0,1,25.29,24.2588v26.32H92.5723l-.001-15.2871A28.2023,28.2023,0,0,0,64.2827,68.2188Zm25.29,27.26v26.3194h-27.06a25.5459,25.5459,0,0,1-23.519-25.2891,25.2484,25.2484,0,0,1,9.1941-19.4922c.4429-.3662.9-.7119,1.3647-1.0454.144-.1035.2873-.208.4335-.3086q.743-.5091,1.5179-.9644.1664-.0973.3346-.1923c.5659-.32,1.141-.6226,1.7286-.8975.0448-.021.09-.0405.1352-.0615A25.3749,25.3749,0,0,1,59.8,71.6245c.054-.0093.108-.0195.1621-.0288q1.0009-.1743,2.0171-.2676c.0823-.0073.1655-.0122.248-.0185.6821-.0562,1.3673-.0908,2.0555-.0908A25.2,25.2,0,0,1,89.5723,95.4785ZM72.1553,57.13c-.6682,0-1.3321.0317-1.9937.0781q-.1841.0132-.3673.0283a28.0841,28.0841,0,0,0-9.0116,2.2754,25.2424,25.2424,0,0,1,3.85-4.3476l.3794-.3282q.859-.7427,1.7757-1.4008l.0062-.0044a25.2864,25.2864,0,0,1,3.7989-2.25c.0371-.0181.0738-.0367.1111-.0542a25.2646,25.2646,0,0,1,3.9946-1.4927c.0906-.0254.18-.0523.2714-.0767.6784-.1826,1.3639-.3413,2.057-.4673.0214-.0039.0432-.0058.0646-.01.6373-.1143,1.2812-.1958,1.9278-.2608.16-.0161.3209-.0312.482-.0444.6746-.0547,1.3521-.0913,2.0332-.0913a25.2,25.2,0,0,1,25.289,24.2588V99.2617h-6.3784l-.001-14.93A28.2013,28.2013,0,0,0,72.1553,57.13Zm9.3789-11.4463c-.6553,0-1.3079.0273-1.958.0723-.2454.017-.4875.0473-.7315.07-.3963.0381-.792.0776-1.1855.1323-.3018.0415-.6.0937-.9.1445-.3246.0557-.6482.1143-.97.1812-.332.0683-.6612.144-.99.2241-.276.0679-.55.1411-.8238.2168-.3554.0986-.7091.2-1.0595.312-.2265.0723-.45.1528-.6747.231-.3842.1338-.7678.2675-1.1451.4174-.1369.0542-.27.1163-.4066.1729a28.2176,28.2176,0,0,0-2.8787,1.3755,25.3281,25.3281,0,0,1,8.903-8.6157c.1388-.08.2778-.1592.4179-.2364q.507-.279,1.0268-.5361c.1453-.0713.2915-.1406.4381-.209.3437-.1616.6905-.3169,1.0419-.4629.1628-.0678.3272-.1308.4914-.1948.34-.1333.6815-.2622,1.0278-.3809.19-.0649.3826-.1225.5743-.1831.3268-.103.654-.2055.9858-.2954.2281-.0615.4589-.1133.6887-.1684.3025-.0733.604-.1485.91-.2105.2783-.0561.5593-.0986.84-.1455.2661-.0444.5305-.0952.7989-.1313.3477-.0464.6982-.0762,1.0483-.1079.2081-.02.4141-.0474.6234-.0616.5639-.0376,1.13-.0581,1.6981-.0581a25.2,25.2,0,0,1,25.289,24.26V87.8154h-4.7915l-.0009-14.93A28.201,28.201,0,0,0,81.5342,45.6836Zm7.7915-11.4473c-.7783,0-1.55.0352-2.3164.0977-.2764.0229-.549.0674-.8242.0981-.4844.0542-.9691.1055-1.447.1841-.35.0576-.695.1372-1.0424.2075-.3922.08-.7855.1548-1.1724.251-.3885.0962-.7707.2124-1.1546.3247-.3343.0986-.6693.1934-.9989.3037-.1378.0464-.28.0791-.4167.127a25.2981,25.2981,0,0,1,44.0406,15.9287V78.0781h-6.379L117.6138,61.44A28.2019,28.2019,0,0,0,89.3257,34.2363ZM63.9937,49.9785A28.2109,28.2109,0,0,0,62.7786,52.79a28.2811,28.2811,0,0,0-7.0757,9.6689A28.5779,28.5779,0,0,0,53.1708,64.5H16.3781L35.842,26.1465A33.18,33.18,0,0,1,63.9937,8.0581Zm-28.1518,86.875L8.2256,82.436a2.0472,2.0472,0,0,1,0-1.8711L14.8557,67.5h35.45a28.0227,28.0227,0,0,0-4.4783,7.5947,28.2283,28.2283,0,0,0-9.834,21.4141,28.56,28.56,0,0,0,26.3476,28.2851l27.231.0035V155h-23.87A33.2391,33.2391,0,0,1,35.8419,136.8535Zm56.73-13.5556,0-9.5889h7.8729l0-11.4473h9.3787l0-11.4463h7.7918l0-9.7373h37.3361a2.0438,2.0438,0,0,1-.176,1.3579l-27.6164,54.4175A33.2393,33.2393,0,0,1,97.2983,155h-4.726V123.2979Z"/>
      </g>
    </g>
  </g>
</svg>