<?xml version="1.0" encoding="utf-8"?>
<svg xmlns="http://www.w3.org/2000/svg" width="163.0001" height="163" viewBox="0 0 163.0001 163">
  <defs>
    <style>.cls-1{fill:#fff;opacity:0.65;}</style>
  </defs>
  <g id="Layer_2" data-name="Layer 2">
    <g id="Layer_1-2" data-name="Layer 1">
      <path class="cls-1" d="M163,81.5A81.5,81.5,0,0,0,81.5161.0005L81.5,0h0A81.5,81.5,0,0,0,0,81.5l.0008.03q.0007,1.9987.1,3.9741c.0254.5259.0743,1.0454.11,1.5693.0536.7867.1032,1.5742.1792,2.355.0647.67.1524,1.3335.2333,1.9985.0748.6114.1444,1.2242.2327,1.8316.1114.771.244,1.5347.3769,2.2988.0831.4746.1627.95.2539,1.4219.1661.8633.3512,1.7187.5443,2.5723.078.3427.1547.686.237,1.0268q.3457,1.4415.7437,2.86.0819.2915.1655.5825.4641,1.6164.9912,3.2051l.0109.0322a81.3739,81.3739,0,0,0,16.043,27.9438l-.0579.0093.8552.9107c.3239.3584.6615.7041.9917,1.0566l.073.0776c.02.021.0408.0415.0608.0625q2.8083,2.9847,5.9054,5.6773c.0311.0273.0623.0542.0935.081A81.6326,81.6326,0,0,0,43.35,153.5205l.0034.002.33.1748h.0119A80.9168,80.9168,0,0,0,59.32,159.9194l.1482.0425q1.963.55,3.9644,1.0034c.2675.0606.5332.1265.8016.1851.6039.13,1.2106.2519,1.8194.3686.6972.1348,1.3981.2583,2.1014.375q.8661.1429,1.7371.2691,1.3.1868,2.614.332c.3463.0381.6914.0791,1.039.1128q1.7022.1663,3.4246.2608c.2687.0146.5382.0249.8075.0371,1.2348.0561,2.4742.0942,3.7227.0942h0l.016,0A81.5,81.5,0,0,0,163,81.5ZM8,81.5A73.62,73.62,0,0,1,56,12.5679V29.0742a28.3138,28.3138,0,0,1-8.3472,20.1524L8.3444,88.5352C8.1234,86.2183,8,83.8735,8,81.5Zm.8027,10.8193L49.774,51.3477A31.2917,31.2917,0,0,0,59,29.0742V11.5361a73.1568,73.1568,0,0,1,21-3.498V47.4233L50.9438,76.48a6.4889,6.4889,0,0,0-8.8217.3364L37.88,81.0586a6.5,6.5,0,0,0,0,9.1924l4.8248,4.8247-7.43,7.43A5.4324,5.4324,0,0,0,34.2385,104H11.5363A72.861,72.861,0,0,1,8.8027,92.3193ZM154.9619,80H131V77.5A18.5206,18.5206,0,0,1,149.5,59h1.9636A73.1517,73.1517,0,0,1,154.9619,80Zm-4.53-24H149.5A21.5242,21.5242,0,0,0,128,77.5V80H107.13l0-.0029a9.4694,9.4694,0,0,0-.7807-3.7686L117.0753,65.502a9.499,9.499,0,0,0,0-13.4346l-.3536-.3535,12.3746-12.375a6.5,6.5,0,0,0,0-9.1924l-4.2422-4.2422a6.4994,6.4994,0,0,0-9.1929,0l-12.3745,12.374-.3535-.3535a9.5083,9.5083,0,0,0-13.4346,0L83,44.4233V8.0381A73.6176,73.6176,0,0,1,150.4324,56Zm-59.52,17.28a9.5975,9.5975,0,0,0-.647.7158c-.0254.0312-.0463.0644-.0713.0962a9.4857,9.4857,0,0,0-.517,11.1006c.0076.0117.0136.0239.0214.0356.1434.2168.301.4248.4629.63.0368.0469.068.0962.1058.1426.1666.2031.347.3974.5318.5883.0391.0406.0727.085.1129.125l.0122.0113c.1137.1133.231.2246.352.3325l-14.86,14.8594L53.0821,78.584,91.62,40.0459a6.5086,6.5086,0,0,1,9.1924,0l7.071,7.0713,6.7175,6.7178.3536.3535a6.5,6.5,0,0,1,0,9.1924L104.691,73.6436q-.1677-.1875-.3438-.3633A9.5082,9.5082,0,0,0,90.9127,73.28ZM104.13,79.9971a6.4587,6.4587,0,0,1-1.9038,4.5967h-.0005a6.5,6.5,0,0,1-7.6093,1.164l-.2813-.166a6.902,6.902,0,0,1-.6756-.4546l-.029-.022a6.0732,6.0732,0,0,1-.5966-.5214,6.5313,6.5313,0,0,1-.4424-.49c-.02-.0239-.0365-.05-.0558-.0752-.1169-.1475-.23-.2969-.3322-.4521l-.0147-.0245a6.5189,6.5189,0,0,1,.0023-7.1132l.0122-.02c.1025-.1553.2158-.3052.333-.4532.0192-.0244.0356-.05.0552-.0742a6.4992,6.4992,0,0,1,9.1416-.935,6.5963,6.5963,0,0,1,.4931.4453,6.0862,6.0862,0,0,1,.5244.6l.0131.0175a6.9072,6.9072,0,0,1,.46.6841l.1686.2857A6.468,6.468,0,0,1,104.13,79.9971ZM49.5118,109.4834l3.7929-3.793,5.2071,5.208V116.62a2.5026,2.5026,0,0,1-2.5,2.5h-4a2.5026,2.5026,0,0,1-2.5-2.5Zm-5.752,1.5078a2.5591,2.5591,0,0,1-3.5361,0l-2.8276-2.8281a2.5033,2.5033,0,0,1,0-3.5361L44.82,97.2021l6.3637,6.3643ZM40.001,88.13a3.5,3.5,0,0,1,0-4.95l4.2427-4.2422a3.5845,3.5845,0,0,1,4.95,0L62.6282,92.3721,76.063,105.8066a3.5,3.5,0,0,1,.0005,4.95L71.8209,115a3.507,3.507,0,0,1-4.95,0Zm65.4068-47.7305,12.375-12.374a3.5839,3.5839,0,0,1,4.95,0l4.2427,4.2422a3.5011,3.5011,0,0,1,0,4.95l-12.3746,12.375-4.5964-4.5967ZM12.5676,107H33.7242a5.4459,5.4459,0,0,0,1.55,3.2842l2.8276,2.8281a5.5,5.5,0,0,0,7.7788,0l.6309-.6309V116.62a5.5066,5.5066,0,0,0,5.5,5.5h4a5.5066,5.5066,0,0,0,5.5-5.5v-2.7368l3.2378,3.2378a6.5083,6.5083,0,0,0,9.1924,0l4.2426-4.2432a6.49,6.49,0,0,0,.3362-8.8217L93.86,88.7173a9.4829,9.4829,0,0,0,8.3925-.4234A40.4942,40.4942,0,0,1,95,140.5308v-2.3335a3.5043,3.5043,0,0,0-3.5-3.5H30.8622A73.7043,73.7043,0,0,1,12.5676,107Zm21.6318,30.6973H91.5a.5007.5007,0,0,1,.5.5v12a.5007.5007,0,0,1-.5.5H56.7394A73.5036,73.5036,0,0,1,34.1994,137.6973ZM81.5,155a73.533,73.533,0,0,1-13.7154-1.3027H91.5a3.4559,3.4559,0,0,0,.5-.0508v.5913A73.7392,73.7392,0,0,1,81.5,155ZM95,153.7358V144.43a43.48,43.48,0,0,0,9.6105-58.0054A9.4237,9.4237,0,0,0,106.6384,83H128v55.3726A73.234,73.234,0,0,1,95,153.7358ZM131,83h23.9618A73.3185,73.3185,0,0,1,131,135.7822Z"/>
    </g>
  </g>
</svg>