<?xml version="1.0" encoding="utf-8"?>
<svg xmlns="http://www.w3.org/2000/svg" width="163.0001" height="163" viewBox="0 0 163.0001 163">
  <defs>
    <style>.cls-1{fill:#fff;opacity:0.65;}</style>
  </defs>
  <g id="Layer_2" data-name="Layer 2">
    <g id="Layer_1-2" data-name="Layer 1">
      <path class="cls-1" d="M162.9839,82.1343c.0017-.2124.0162-.4219.0162-.6343s-.0145-.4219-.0162-.6343A81.4906,81.4906,0,0,0,81.5161.0005L81.5,0h0a81.5,81.5,0,0,0,0,163h0l.016,0A81.4906,81.4906,0,0,0,162.9839,82.1343ZM81.5,8a73.6127,73.6127,0,0,1,69.5288,49.7173A54.6824,54.6824,0,0,1,115,99.1011V57.9141h-.0982a33.51,33.51,0,0,0-9.7143-22.1016l-1.0611,1.06,1.0606-1.06A33.2787,33.2787,0,0,0,81.5,26h-20A18.6176,18.6176,0,0,1,45.831,17.2661,73.03,73.03,0,0,1,81.5,8ZM66.3775,126a1.4968,1.4968,0,0,1-1.499-1.4375L64.73,121H98.27l-.1484,3.5625A1.4968,1.4968,0,0,1,96.6221,126Zm25.6953,3-1.7036,3.4072A6.4643,6.4643,0,0,1,84.5557,136H78.4439a6.4644,6.4644,0,0,1-5.8135-3.5928L70.9268,129ZM64.605,118l-.2083-5H98.6029l-.2083,5Zm-.3333-8-.1432-3.4375A1.5009,1.5009,0,0,1,65.6275,105H97.3721a1.5009,1.5009,0,0,1,1.4991,1.5625L98.7279,110ZM76,76H71.5A4.5,4.5,0,1,1,76,71.5Zm3,26V79h5v23Zm17.6445-5.7529L95.9254,102H87V79h4.5A7.5,7.5,0,1,0,84,71.5V76H79V71.5A7.5,7.5,0,1,0,71.5,79H76v23H67.0738l-.7188-5.7529a21.65,21.65,0,0,0-3.2485-8.959L55.8443,75.9912a30.6719,30.6719,0,0,1,4.0889-38.0576,30.4989,30.4989,0,0,1,43.1333,0,30.6718,30.6718,0,0,1,4.0888,38.0576L99.8931,87.2881A21.6369,21.6369,0,0,0,96.6446,96.2471ZM87,76V71.5A4.5,4.5,0,1,1,91.5,76ZM99.6212,96.62a18.6116,18.6116,0,0,1,2.7954-7.709l7.2622-11.2968A32.9983,32.9983,0,0,0,112,73.3237v26.7027a54.2967,54.2967,0,0,1-13.0467,1.9365ZM61.5,29h6.1212a33.5273,33.5273,0,0,0-14.3,48.6143L60.5831,88.91a18.6348,18.6348,0,0,1,2.7954,7.7089L64.0506,102H49.6983a41.2243,41.2243,0,0,0-29.3447,12.1553l-3.0606,3.0605a73.3967,73.3967,0,0,1,25.8961-98.414A21.3656,21.3656,0,0,0,61.5,29ZM18.8558,119.895l3.6189-3.6186A38.2476,38.2476,0,0,1,49.6983,105H61.3906a4.4834,4.4834,0,0,0-.2592,1.6875l.75,18A4.4893,4.4893,0,0,0,66.3775,129h1.1948l2.3745,4.749A9.4477,9.4477,0,0,0,78.4439,139H80v15.9619A73.5173,73.5173,0,0,1,18.8558,119.895ZM83,154.9619V139h1.5561a9.4476,9.4476,0,0,0,8.4971-5.251L95.4267,129h1.1954a4.4893,4.4893,0,0,0,4.4961-4.3125l.75-18a4.4763,4.4763,0,0,0-.3168-1.8462A57.2112,57.2112,0,0,0,112,103.1445v45.2017A72.9981,72.9981,0,0,1,83,154.9619ZM115,102.2681a57.742,57.742,0,0,0,37.7462-38.8374A73.4653,73.4653,0,0,1,115,146.8882Z"/>
    </g>
  </g>
</svg>