<?xml version="1.0" encoding="utf-8"?>
<svg xmlns="http://www.w3.org/2000/svg" width="163" height="163" viewBox="0 0 163 163">
  <defs>
    <style>.cls-1{fill:#fff;opacity:0.65;}</style>
  </defs>
  <g id="Layer_2" data-name="Layer 2">
    <g id="Layer_1-2" data-name="Layer 1">
      <path class="cls-1" d="M162.8978,77.4575a81.5884,81.5884,0,0,0-1.426-11.6684l.0121-.0235-.104-.5136c-.0069-.0337-.0151-.0669-.022-.1006-.0225-.11-.049-.2188-.0719-.3286-.2053-.9781-.4314-1.9473-.6717-2.91A81.6358,81.6358,0,0,0,107.8556,4.3813c-.1419-.0488-.2842-.0964-.4265-.1442q-1.5792-.53-3.1858-.9969-.615-.1794-1.2336-.35c-.6713-.1833-1.3444-.3613-2.0225-.5276q-1.1336-.28-2.28-.5261c-.4429-.0952-.8854-.1906-1.3309-.2785q-1.4661-.2912-2.9513-.5271-.5142-.082-1.03-.1573Q91.7771.6355,90.14.46c-.2494-.0261-.5-.0486-.75-.0725-1.1791-.1143-2.364-.2078-3.5572-.27-.1448-.0078-.2906-.0112-.4355-.0181C84.1052.0374,82.807,0,81.5,0c-.8585,0-1.7081.0374-2.56.0647l-.0358.001.0009-.0022L78.84.0674A81.4859,81.4859,0,0,0,.1024,77.4521Q.0016,79.4635,0,81.5a81.5,81.5,0,0,0,163,0Q163,79.4665,162.8978,77.4575Zm-52.703,29.7276a86.4825,86.4825,0,0,1-19.5,4.3711c-2.9734.29-6.0473.4438-9.1948.4438-3.12,0-6.1672-.1519-9.1167-.437a86.48,86.48,0,0,1-19.7517-4.4439C41.9006,102.9941,35,96.6313,35,89.5V86.4565c6.8743,9.7784,24.8579,16.5884,46.5,16.5884s39.6257-6.81,46.5-16.5884V89.5C128,96.67,121.0247,103.062,110.1948,107.1851Zm7.5468.2514,20.6015,20.6013a73.4008,73.4008,0,0,1-113.6861,0L45.2654,107.43q2.8912,1.2759,5.88,2.3428a78.6091,78.6091,0,0,0,22.33,4.9038c2.6545.2358,5.3342.3628,8.0363.3628q4.555,0,9.0215-.4532a78.1472,78.1472,0,0,0,21.0967-4.7226Q114.7341,108.7594,117.7416,107.4365ZM71.5211,8.6956a62.2125,62.2125,0,0,1-50.563,31.1928A73.5679,73.5679,0,0,1,71.5211,8.6956ZM60.5884,26.7544,72,38.166V52.5254q-3.1308.309-6.0957.8091a1.604,1.604,0,0,0-.1987.0337A64.773,64.773,0,0,0,44.75,60.4009a1.4773,1.4773,0,0,0-.3574.208C36.6306,65.1279,32,71.0708,32,77.5449V89.5a15.4607,15.4607,0,0,0,3.1687,9.1362,86.3282,86.3282,0,0,1-26.55-26.5107A72.9878,72.9878,0,0,1,18.9464,42.9639,65.2672,65.2672,0,0,0,60.5884,26.7544ZM76.2964,74.44a1.57,1.57,0,0,0,.1431.1651l3.9912,3.9912.0019.0019.0069.0069c.007.0068.0166.01.0239.0171a1.5145,1.5145,0,0,0,.2778.2163c.0188.0112.04.0146.0593.0249.0428.0224.0872.0371.1316.0551a1.47,1.47,0,0,0,.2935.09,1.4412,1.4412,0,0,0,.145.019c.0435.0039.0859.0171.1294.0171a1.437,1.437,0,0,0,.1875-.0239c.041-.0049.0811-.0068.1216-.0151L81.8276,79h46.0647c-1.5565,11.73-21.7634,21.0449-46.3923,21.0449-24.5974,0-44.783-9.291-46.3853-21H41.5a1.5,1.5,0,0,0,0-3H35.1187c.6613-4.62,4.3417-8.9463,10.14-12.457l4.0693,2.7773a1.5,1.5,0,0,0,1.6914-2.4785l-2.8183-1.9233A64.6153,64.6153,0,0,1,65.479,56.459L68.16,59.5a1.5,1.5,0,0,0,2.25-1.9844l-1.4229-1.6142c.9927-.1363,1.9944-.2622,3.0132-.3662V69.5225A1.5,1.5,0,0,0,72.44,70.583ZM75,68.9014V39.0449h5v34.856Zm38.5649-1.6826a1.5,1.5,0,0,0,2.0093.6806l4.9649-2.4526C124.77,68.62,127.3281,72.2524,127.8834,76H87.3386l26.2276-14.66a43.4861,43.4861,0,0,1,4.1,2.18l-3.4208,1.69A1.5,1.5,0,0,0,113.5649,67.2188Zm-13.5556-1.7383L83.0105,74.9819l-.01-34.5761,27.6658,19.1176ZM131,89.5V79h18.5312a86.2185,86.2185,0,0,1-21.7194,19.6621A15.4715,15.4715,0,0,0,131,89.5ZM130.9011,76c-.5643-4.876-3.7771-9.5127-9.181-13.394a1.5132,1.5132,0,0,0-.3048-.2242,43.9129,43.9129,0,0,0-7.1465-4.0161L82.3525,36.3105l-.0066-.0034a1.4886,1.4886,0,0,0-.3269-.1645c-.0293-.0108-.0586-.0186-.0886-.0274a1.4839,1.4839,0,0,0-.2763-.0547c-.033-.0034-.065-.0087-.0982-.01-.019-.001-.0369-.0059-.0559-.0059H74.1211L62.8,24.7231A65.4074,65.4074,0,0,0,75.15,8.2922C77.2446,8.1118,79.359,8,81.5,8a73.5942,73.5942,0,0,1,72.8831,64.1379c-.84,1.3113-1.7,2.6048-2.6011,3.8621ZM8,81.5c0-1.5728.0668-3.13.1646-4.6782a89.0617,89.0617,0,0,0,34.2026,29.2636L22.79,125.6631A73.1138,73.1138,0,0,1,8,81.5Zm112.64,24.5928A89.0607,89.0607,0,0,0,154.8376,76.85c.0966,1.5391.1624,3.0865.1624,4.65a73.1138,73.1138,0,0,1-14.79,44.1631Z"/>
    </g>
  </g>
</svg>