<?xml version="1.0" encoding="utf-8"?>
<svg xmlns="http://www.w3.org/2000/svg" width="163.0001" height="163" viewBox="0 0 163.0001 163">
  <defs>
    <style>.cls-1{fill:#fff;opacity:0.65;}</style>
  </defs>
  <g id="Layer_2" data-name="Layer 2">
    <g id="Layer_1-2" data-name="Layer 1">
      <path class="cls-1" d="M163,81.5A81.5,81.5,0,0,0,81.5161.0005L81.5,0h0a81.5,81.5,0,0,0,0,163h0l.016,0A81.5,81.5,0,0,0,163,81.5ZM153.5568,67H142.3542c-1.3455-1.5967-5.2774-3.2661-15.9093-4.7515A13.2016,13.2016,0,0,0,116.75,58H100.121l-5.8451-5.8447A38.2516,38.2516,0,0,1,83,24.9316V22.3765A61.6382,61.6382,0,0,0,98.9223,10.104,73.7213,73.7213,0,0,1,153.5568,67ZM130,83.0664V71.25a13.1474,13.1474,0,0,0-1.2715-5.626c9.2728,1.4951,11.0033,2.95,11.2715,3.2525V85.668A42.2,42.2,0,0,0,130,83.0664ZM139.84,89c-.5869.4736-2.7559,1.6953-10.3086,2.9727A24.95,24.95,0,0,0,130,87.1592v-1.05C137.1734,87.3574,139.2652,88.5371,139.84,89ZM103.108,61H116.75A10.2614,10.2614,0,0,1,127,71.25V87.1592c0,.6518-.0381,1.2959-.0952,1.935-.0146.1651-.0352.33-.0536.4942-.0594.5268-.1349,1.0493-.2316,1.5649-.02.11-.038.2212-.06.3316A21.8445,21.8445,0,0,1,115,106.6113V90.0684A41.2177,41.2177,0,0,0,103.108,61Zm3.6015,47.7471A21.1361,21.1361,0,0,1,87.9737,98.6855l-.1162-.1894-.0342-.03a7.499,7.499,0,0,0-12.58-.0986l-.1684.2363a21.1611,21.1611,0,0,1-18.7842,10.1436,20.0054,20.0054,0,0,1-4.0558-.5645A38.4324,38.4324,0,0,1,51,98.5V61H98.8788l1.8449,1.8447A38.2508,38.2508,0,0,1,112,90.0684v17.7461A20.0058,20.0058,0,0,1,106.71,108.7471Zm5.29,2.207V137H89.5a38.5624,38.5624,0,0,1-36.2554-25.5571,22.9937,22.9937,0,0,0,2.9394.3022c.2862.01.57.0156.855.0156A24.1238,24.1238,0,0,0,77.2,100.8584l.457-.7012A4.4742,4.4742,0,0,1,81.5,98a4.5217,4.5217,0,0,1,3.8838,2.2256l.1616.2363a24.1772,24.1772,0,0,0,21.2705,11.2832A22.9286,22.9286,0,0,0,112,110.9541ZM95.5,9.3538a58.4039,58.4039,0,0,1-12.5,9.62V8.0381A73.474,73.474,0,0,1,95.5,9.3538ZM80,8.0381V20.5713a58.7565,58.7565,0,0,1-26.1782,6.0869A58.213,58.213,0,0,1,35.9627,23.87,73.107,73.107,0,0,1,80,8.0381Zm-26.1782,21.62A61.7907,61.7907,0,0,0,80,23.8779v1.0537A41.231,41.231,0,0,0,92.1548,54.2764L95.8787,58H46.25a13.2019,13.2019,0,0,0-9.695,4.2485C29.4625,63.2393,25.3489,64.312,23,65.3906v-.1631a21.4507,21.4507,0,0,0-7.403-16.2238A73.9177,73.9177,0,0,1,33.2678,26.11,61.1432,61.1432,0,0,0,53.8214,29.6582ZM48.884,107.0234A21.8035,21.8035,0,0,1,36.4412,91.4883c-.0227-.1128-.0406-.2256-.0616-.3384-.0962-.5137-.1715-1.0342-.2306-1.5586-.0186-.166-.0391-.331-.0537-.4975C36.0381,88.4556,36,87.8115,36,87.16V71.25A10.2613,10.2613,0,0,1,46.25,61H48V98.5A41.5117,41.5117,0,0,0,48.884,107.0234ZM33.4683,91.9727C25.9161,90.6953,23.7466,89.4736,23.16,89c.5752-.4629,2.667-1.6426,9.84-2.8906V87.16A24.9472,24.9472,0,0,0,33.4683,91.9727ZM33,71.25V83.0664A42.1972,42.1972,0,0,0,23,85.668V68.8765c.268-.3028,1.9985-1.7574,11.2714-3.2525A13.1458,13.1458,0,0,0,33,71.25ZM20,68.73v52.9487a73.2585,73.2585,0,0,1-5.7282-69.8354A18.4607,18.4607,0,0,1,20,65.2275ZM81.5,155A73.4166,73.4166,0,0,1,23,125.9307V92.3369c2.0908.958,5.5844,1.9146,11.3375,2.8159A24.7241,24.7241,0,0,0,49.803,110.5952,41.5708,41.5708,0,0,0,89.5,140H112v8.3467A73.04,73.04,0,0,1,81.5,155ZM115,140h10.9309A73.66,73.66,0,0,1,115,146.8884Zm0-3V109.92a24.824,24.824,0,0,0,13.6626-14.7681C141.2656,93.1782,143,90.9385,143,89V70h11.0938a73.3575,73.3575,0,0,1-24.4886,67Z"/>
    </g>
  </g>
</svg>