<?xml version="1.0" encoding="utf-8"?>
<svg xmlns="http://www.w3.org/2000/svg" width="163.0001" height="162.9998" viewBox="0 0 163.0001 162.9998">
  <defs>
    <style>.cls-1{fill:#fff;opacity:0.65;}</style>
  </defs>
  <g id="Layer_2" data-name="Layer 2">
    <g id="Layer_1-2" data-name="Layer 1">
      <path class="cls-1" d="M140.5745,137.613a81.3121,81.3121,0,0,0,20.0287-36.477c.0266-.1069.0484-.2158.0745-.3228.2759-1.1347.5353-2.2754.763-3.4279.0528-.2657.0931-.5354.1432-.802.1888-1.0083.3725-2.0181.5238-3.0391.0674-.4522.1136-.9111.1735-1.3657.1118-.8533.23-1.7044.3148-2.5657.0693-.697.1085-1.4024.16-2.1045.0466-.6375.1087-1.27.1405-1.9116q.1016-2.0358.1036-4.0967A81.5,81.5,0,0,0,81.5161.0005L81.5,0h0C80.2357,0,78.9806.0381,77.73.0952c-.3986.0183-.7946.0452-1.1917.0691Q75.24.2427,73.9526.3611c-.4411.0405-.8821.08-1.3211.1277-.9015.0981-1.7971.2146-2.69.3418-.46.0654-.92.1291-1.3772.2019q-1.4747.2366-2.9318.5237c-.6028.1188-1.2.2534-1.7976.3857-.5312.1179-1.0613.2383-1.5886.3667-.6789.1643-1.3548.3347-2.0268.5161-.3549.0962-.7066.2-1.06.301a80.8306,80.8306,0,0,0-7.8431,2.6714l-.04.0159A81.5082,81.5082,0,0,0,0,81.5l0,.0107c0,1.261.0379,2.513.0951,3.76.019.4167.048.83.0733,1.2454q.0767,1.2523.19,2.4941c.0443.4844.09.9678.1422,1.45.085.7717.1862,1.5383.2928,2.3034.0831.6011.1659,1.2022.2621,1.7991.152.9373.3155,1.8708.5,2.7971.1483.752.3185,1.4951.4873,2.2393.0819.3584.1614.7175.2479,1.0742q.3007,1.2459.64,2.4761c.0427.1548.0876.3086.1313.4629A81.1128,81.1128,0,0,0,14.5821,128h-.0859l1.6134,2.1484c.0615.0825.1236.1645.1854.2466l.0049.0063c.0095.0132.02.0249.0295.0376q1.2039,1.6,2.4851,3.1382c.3958.4771.8087.9341,1.2136,1.4009.45.5171.8946,1.04,1.3576,1.5449.6653.73,1.35,1.4351,2.0375,2.1372.1964.1992.3877.4038.5861.6016A80.4743,80.4743,0,0,0,69.08,162.0593a81.88,81.88,0,0,0,8.5409.8428c1.2877.06,2.58.0977,3.8791.0977h0c1.33,0,2.6541-.0367,3.9724-.1.1042-.0049.209-.0074.313-.0127,1.2318-.064,2.4567-.1612,3.6767-.28.1881-.0181.377-.0332.5648-.0528,1.1694-.1215,2.3319-.2724,3.4893-.4433.2159-.0318.4324-.0615.6478-.0952,1.1731-.1826,2.3387-.3931,3.4981-.6245.1537-.0313.3076-.0611.461-.0928.2243-.0464.45-.0874.6737-.1358l.2032-.041v-.0058c.9563-.2076,1.9061-.4366,2.8516-.6783.02-.0048.04-.0107.06-.0161,1.2609-.3232,2.51-.6816,3.7506-1.0649.04-.0122.08-.0239.12-.0361a79.9158,79.9158,0,0,0,14.3437-6.0435c.1235-.0664.2476-.1318.3707-.1992q1.5339-.84,3.0356-1.7451c.3152-.19.6233-.3907.9358-.585q.8616-.5384,1.7121-1.0977c.524-.3442,1.0451-.6914,1.5606-1.0473.0749-.0523.1483-.1065.2231-.1587A81.9223,81.9223,0,0,0,140.56,137.6287l.0123-.0127ZM144.0768,120h-10.15a28.3122,28.3122,0,0,1-20.1523-8.3467l-6.4268-6.4268A31.2923,31.2923,0,0,0,85.0738,96H59V91.5A8.51,8.51,0,0,1,67.5,83h8.31a33.4034,33.4034,0,0,0,43.38,0h28.8781a76.3958,76.3958,0,0,1-1.2818,32.199C145.9386,116.8342,145.0409,118.4387,144.0768,120ZM23.0842,126.0374l5.6185-5.6187A18.3815,18.3815,0,0,1,41.7842,115H63.5a8.51,8.51,0,0,1,8.5,8.5V128H24.6272C24.1,127.3562,23.59,126.699,23.0842,126.0374ZM56,91.5V112H43V53.5A18.5206,18.5206,0,0,1,61.5,35H72.692a33.5586,33.5586,0,0,0-2.9414,3.7524c-.068.1006-.1313.2046-.1983.3059-.2135.3235-.4257.6478-.6277.9783-.1438.2344-.279.4741-.4172.7124-.1162.2014-.2358.4009-.3478.6045-.173.313-.3366.6316-.5.9507-.0675.1323-.1377.2634-.2034.3967-.18.3633-.35.7317-.5165,1.1023-.0418.093-.0853.1853-.1263.2788-.1725.3931-.3356.7908-.4933,1.1914-.03.076-.06.1512-.09.2271q-.2362.6133-.4475,1.2383c-.0247.0727-.05.1455-.074.2182q-.2065.6211-.3888,1.253-.0356.123-.07.2463-.1725.6134-.3222,1.2358c-.0252.1048-.0487.2095-.0728.3142-.09.3941-.1758.79-.252,1.1888-.0268.1389-.05.2785-.0749.4182-.0656.3679-.1288.7363-.1822,1.1084-.0278.1914-.049.3843-.0734.5764-.041.3259-.0833.6516-.1147.98-.0272.2788-.0441.5593-.0641.8393-.0178.25-.0406.4988-.0526.7505C64.0149,56.4106,64,56.9546,64,57.5s.0148,1.09.0415,1.6318c.0119.2491.0346.4952.0519.7425.02.2834.0375.5674.0648.85.0312.3247.0729.6462.1134.9682.0249.1966.0468.3938.0751.59.0527.3667.1152.73.18,1.0931.026.1455.05.2912.0782.4365.0755.394.16.7849.249,1.1741.0252.1093.05.2192.0761.3286q.1476.6149.3181,1.22c.0249.0888.05.1772.0756.2658q.18.6222.3829,1.2342c.0267.08.0542.16.0814.24q.209.6133.4395,1.2165c.0326.085.067.1695.1.2542.1543.3913.3133.78.4819,1.164.0457.1048.0944.2081.1412.3123.1623.36.3277.7183.5022,1.0715.0708.1438.1465.2849.2194.4278.1583.3088.3165.6176.484.9209.1188.2158.2452.4275.3688.6406.1314.2258.26.4539.3959.6765.2114.3457.4331.6856.6572,1.0239.0573.0865.1113.1753.1694.2613A33.5708,33.5708,0,0,0,72.692,80H67.5A11.5131,11.5131,0,0,0,56,91.5Zm72-34A30.4251,30.4251,0,0,1,118.0673,80h-8.5829A25.4874,25.4874,0,1,0,97.5,83h16.7042a30.4239,30.4239,0,0,1-37.15-2.8889c-.0661-.06-.13-.1214-.1954-.1819a30.7431,30.7431,0,0,1-3.6369-3.9959c-.0561-.0737-.1156-.1452-.1709-.2194-.1743-.2334-.3393-.4742-.5071-.7127-.136-.1938-.275-.3862-.4064-.583-.1266-.1892-.2466-.383-.3692-.5754-.1646-.2591-.3291-.5181-.4858-.7818-.0916-.1538-.179-.31-.268-.4658-.1788-.3135-.3544-.6284-.5219-.9477-.0639-.1216-.1259-.2447-.1881-.3672-.1841-.3626-.3622-.7281-.5313-1.0977q-.0631-.1372-.1248-.2754-.2727-.6116-.5192-1.2346c-.0251-.0632-.05-.1265-.075-.19q-.2593-.67-.4869-1.3523c-.0136-.041-.0281-.0818-.0416-.1228q-.2349-.7138-.4341-1.4392c-.0074-.0269-.0156-.0533-.0228-.08q-.2015-.74-.3647-1.49c-.0049-.0224-.0108-.0444-.0155-.0668q-.1607-.742-.2829-1.4942c-.005-.0315-.0117-.0625-.0168-.094-.0774-.48-.14-.9624-.1949-1.4468-.0062-.0546-.015-.1084-.0208-.163-.0495-.4637-.0844-.9295-.1127-1.3968-.0044-.0737-.0129-.1465-.0168-.22Q67.0006,58.3107,67,57.5t.0434-1.6162c.0039-.0725.0122-.1441.0166-.2168.0282-.4683.0632-.9358.113-1.4006.0055-.0528.0142-.1043.02-.1568.0546-.4868.1181-.9719.1959-1.4538.0047-.0286.0106-.0567.0152-.085q.1245-.7566.2848-1.5044c.004-.0185.0089-.0369.0128-.0554q.1654-.7566.3679-1.5029l.0187-.0655q.2016-.7338.4391-1.456c.0114-.0349.0239-.07.0353-.1045q.2308-.6921.4942-1.3723c.022-.0569.0448-.1136.0672-.17q.25-.6343.5285-1.2564.0572-.1275.1152-.2541.2591-.5665.5427-1.1214c.0584-.115.1165-.23.1766-.3442.1717-.3281.352-.6519.5359-.9737.0844-.1472.1672-.2956.2541-.4414.1621-.2732.3324-.5417.5032-.81.1169-.1834.2315-.3682.3521-.5488.1388-.2081.2856-.4114.43-.6163.1606-.228.3181-.458.4848-.6814.069-.0925.1429-.1818.2131-.2736a30.7533,30.7533,0,0,1,2.6816-3.0728l.0021-.0019c.2969-.2972.6028-.585.9118-.87.0667-.0615.1318-.1245.1992-.1855A30.4835,30.4835,0,0,1,128,57.5Zm-.5668-15.0139A76.9972,76.9972,0,0,1,147.5005,80H122.2981a33.4177,33.4177,0,0,0,5.1352-37.5139ZM97.5,80A22.5,22.5,0,1,1,120,57.5,22.5255,22.5255,0,0,1,97.5,80Zm53.6152,3h3.8466a73.196,73.196,0,0,1-3.028,19.4756c.1686-2.1155.2708-4.24.2708-6.3731A80.273,80.273,0,0,0,151.1153,83Zm-.5372-3A80.0629,80.0629,0,0,0,33.39,26.0037,73.4228,73.4228,0,0,1,154.9619,80ZM8,81.5A73.1192,73.1192,0,0,1,23.8438,35.9963,76.9628,76.9628,0,0,1,99.5552,24.0691C98.8748,24.0278,98.1907,24,97.5,24a33.3442,33.3442,0,0,0-21.69,8H61.5A21.5242,21.5242,0,0,0,40,53.5V96H9.4432A73.5478,73.5478,0,0,1,8,81.5ZM10.1219,99H40v13.0867a21.3288,21.3288,0,0,0-13.4185,6.2109l-5.287,5.2871A73.1648,73.1648,0,0,1,10.1219,99Zm17.0959,32H72v15.5908a9.4794,9.4794,0,0,0-15.544,4.0107A73.7357,73.7357,0,0,1,27.2178,131Zm32.0771,20.5639a6.4985,6.4985,0,0,1,12.6468,2.7945A72.96,72.96,0,0,1,59.2949,151.5637ZM81.5,155c-2.22,0-4.413-.1163-6.5836-.31A9.4664,9.4664,0,0,0,75,153.5V131.0554A22.5257,22.5257,0,0,1,96,153.5v.0571A73.5707,73.5707,0,0,1,81.5,155ZM75,128.0476V123.5A11.5131,11.5131,0,0,0,63.5,112H59V99H85.0738a28.3154,28.3154,0,0,1,20.1523,8.3474l6.4268,6.4268A31.293,31.293,0,0,0,133.9263,123h8.1951a73.7114,73.7114,0,0,1-43.1365,29.8818A25.5271,25.5271,0,0,0,75,128.0476Z"/>
    </g>
  </g>
</svg>