<?xml version="1.0" encoding="utf-8"?>
<svg xmlns="http://www.w3.org/2000/svg" width="163.0001" height="163" viewBox="0 0 163.0001 163">
  <defs>
    <style>.cls-1{fill:#fff;opacity:0.65;}</style>
  </defs>
  <g id="Layer_2" data-name="Layer 2">
    <g id="Layer_1-2" data-name="Layer 1">
      <path class="cls-1" d="M81.5,0h0l-.0161.0005A81.4906,81.4906,0,0,0,.0161,80.8657C.0145,81.0781,0,81.2874,0,81.5s.0145.4219.0161.6343A81.4906,81.4906,0,0,0,81.4839,163l.0161,0h0a81.5,81.5,0,0,0,0-163ZM64.0183,110.2229a41.6357,41.6357,0,0,1-12.0994-8.4241L31.6211,81.5,51.9189,61.2021A41.884,41.884,0,0,1,95.94,51.5352c.0367.6506.06,1.3051.06,1.9648V71.7129A17.4952,17.4952,0,0,0,64,81.5v28C64,109.7424,64.0137,109.9814,64.0183,110.2229ZM96,81.5A14.5,14.5,0,1,1,81.5,67,14.5167,14.5167,0,0,1,96,81.5Zm-29,28V91.2871A17.4952,17.4952,0,0,0,99,81.5v-28c0-.2417-.0137-.48-.0183-.7205a41.6345,41.6345,0,0,1,12.0989,8.4226L131.3789,81.5l-20.2983,20.2988A41.8811,41.8811,0,0,1,67.06,111.4673C67.0229,110.8157,67,110.1606,67,109.5ZM101.5,147h13.2819a73.388,73.388,0,0,1-97.584-29.9492h47.566A37.5642,37.5642,0,0,0,101.5,147Zm11.7017-87.9189A44.5748,44.5748,0,0,0,98.774,49.42,37.55,37.55,0,0,0,61.5,16H48.2181A73.4267,73.4267,0,0,1,153.7359,68H153.5a21.5047,21.5047,0,0,0-19.2975,12.0815ZM42.88,19H61.5A34.5545,34.5545,0,0,1,95.6,48.2427a44.8766,44.8766,0,0,0-45.802,10.8384L28.9089,79.97A14.5059,14.5059,0,0,1,15,65.5V50.2349A73.9828,73.9828,0,0,1,42.88,19ZM8,81.5a73.1534,73.1534,0,0,1,4-23.8677V65.5A17.5074,17.5074,0,0,0,28.8457,82.9668L49.7979,103.92a44.5756,44.5756,0,0,0,14.4282,9.6612c.0171.1572.0407.3127.06.47H15.6251A73.0335,73.0335,0,0,1,8,81.5ZM120.12,144H101.5a34.5531,34.5531,0,0,1-33.6575-26.9492H81.5v-.0215A44.6923,44.6923,0,0,0,113.2017,103.92l19.4056-19.406A21.4125,21.4125,0,0,0,132,89.5v45.3286A73.9577,73.9577,0,0,1,120.12,144ZM135,89.5A18.5206,18.5206,0,0,1,153.5,71h.738A73.2121,73.2121,0,0,1,135,131.82Z"/>
    </g>
  </g>
</svg>