<?xml version="1.0" encoding="utf-8"?>
<svg xmlns="http://www.w3.org/2000/svg" width="163.0001" height="163" viewBox="0 0 163.0001 163">
  <defs>
    <style>.cls-1{fill:#fff;opacity:0.65;}</style>
  </defs>
  <g id="Layer_2" data-name="Layer 2">
    <g id="Layer_1-2" data-name="Layer 1">
      <path class="cls-1" d="M149.2188,126.8672l-.0076-.0025a81.2553,81.2553,0,0,0,8.1349-15.5454c.0238-.06.0478-.1206.0714-.1809.3456-.8842.68-1.7737.9947-2.6726.0183-.0522.0349-.105.0532-.1572q.8364-2.4017,1.5228-4.87c.0791-.2828.1643-.563.24-.847.1758-.6577.337-1.32.4966-1.9848q.1909-.7914.3665-1.5879c.1292-.5891.2574-1.1785.3737-1.7722.1553-.79.2933-1.5855.4255-2.3831.0832-.5041.1676-1.0076.2415-1.5149q.2219-1.5146.3873-3.0469c.0448-.4177.081-.8378.1195-1.2573q.1206-1.3051.1994-2.6218c.0232-.3892.0489-.7776.0666-1.1682C162.962,84.01,163,82.7593,163,81.5A81.5,81.5,0,0,0,81.5161.0005L81.5,0h0A81.5,81.5,0,0,0,0,81.5l0,.0061c0,1.2524.0381,2.4959.0943,3.7344.0116.2566.0216.5134.0356.7693q.0962,1.7523.2649,3.4843c.0293.3011.0645.6.0971.9q.1635,1.4971.3784,2.9781c.05.3442.1017.688.1563,1.0307q.2208,1.3806.49,2.7442c.0906.4658.1826.9311.2812,1.3943q.2919,1.3648.6263,2.7136c.1474.5918.3082,1.178.4685,1.7646q.1695.6179.35,1.231.54,1.86,1.1652,3.6826c.0348.1011.0676.2029.1028.3037a81.6676,81.6676,0,0,0,29.3241,39.3523l-.0273.0222,1.6533,1.1348.0123.0081c.7965.5461,1.6093,1.069,2.4258,1.5874.2346.1489.4662.3037.7021.45.7423.4607,1.497.9016,2.2549,1.3389.3194.1841.6373.3716.9589.5512.7258.4058,1.4608.7957,2.2,1.1795.3591.1865.7182.3723,1.08.553q1.099.55,2.2167,1.0666c.3677.17.7369.336,1.1069.5.76.3378,1.5228.6682,2.2944.9834.3426.14.6878.2717,1.0321.4067.813.3193,1.6279.6338,2.4534.9272.2461.0874.4951.1661.742.251a81.1758,81.1758,0,0,0,22.8274,4.3565c1.2407.0561,2.4843.0942,3.7327.0942h0l.0257-.0007a81.3787,81.3787,0,0,0,66.5119-34.4644l.02-.0281.1342-.19c.308-.4377.6282-.8664.9277-1.3105ZM148,50.2349V55.5a8.51,8.51,0,0,1-8.5,8.5H135.366l-35.27-27.9463A9.5388,9.5388,0,0,0,94.1964,34H90.982a3.5042,3.5042,0,0,0-3.5,3.5v2a3.5042,3.5042,0,0,0,3.5,3.5h2.436a2.4907,2.4907,0,0,1,1.6953.6631L117.1451,64H98.1212l-6.774-6.7734A28.3142,28.3142,0,0,1,83,37.0732V8.0381A73.5843,73.5843,0,0,1,148,50.2349ZM81.5,155a73.0506,73.0506,0,0,1-38.3306-10.8145A114.7991,114.7991,0,0,1,109.5,123c.8351,0,1.6668.03,2.5.0479v25.2985A73.0375,73.0375,0,0,1,81.5,155ZM112,96H101.7974a2.509,2.509,0,0,1-2.1592-1.24l-9.333-16A2.5,2.5,0,0,1,92.4644,75h12.3331A28.4009,28.4009,0,0,1,112,93.9268Zm-3.3247-21H126.5a1.5017,1.5017,0,0,1,1.5,1.5V90.3574A5.6491,5.6491,0,0,1,122.357,96H115V93.9268A31.3852,31.3852,0,0,0,108.6754,75ZM115,123.145a114.5018,114.5018,0,0,1,24.2262,3.77A73.9742,73.9742,0,0,1,115,146.8882ZM115,99h7.3569A8.6527,8.6527,0,0,0,131,90.3574V76.5a4.505,4.505,0,0,0-4.5-4.5H92.4644a5.5,5.5,0,0,0-4.751,8.2715l9.3335,16A5.52,5.52,0,0,0,101.7974,99H112v5H99.1622a8.5427,8.5427,0,0,1-7.2891-4.127L82.7862,84.7285a1.5,1.5,0,0,0-2.5723,0L71.127,99.873A8.5425,8.5425,0,0,1,63.838,104H61.461l13.34-22.895.4863-.8335A5.5006,5.5006,0,0,0,70.5357,72H36.5c-.0337,0-.0651.0093-.0987.01V72H27V69.5a2.4852,2.4852,0,0,1,.8053-1.8267c.01-.0085.0225-.0124.0321-.021a2.5644,2.5644,0,0,1,1.0387-.5639c.0322-.0083.0622-.0225.0951-.03A2.4234,2.4234,0,0,1,29.5,67H133.4727a2.4665,2.4665,0,0,1,1.6626.6523,1.4254,1.4254,0,0,0,.1384.0889A2.4913,2.4913,0,0,1,136,69.5v26a8.51,8.51,0,0,1-8.5,8.5H115Zm-74.357,0h20.26l-2.9134,5H35.5A8.51,8.51,0,0,1,27,95.5V75h5.2763A4.4511,4.4511,0,0,0,32,76.5V90.3574A8.6527,8.6527,0,0,0,40.6431,99Zm0-3A5.649,5.649,0,0,1,35,90.3574V76.5A1.5016,1.5016,0,0,1,36.5,75H70.5357a2.5,2.5,0,0,1,2.16,3.76l-9.333,16a2.51,2.51,0,0,1-2.16,1.24ZM32.4376,64,64.74,38.4053A6.525,6.525,0,0,1,68.7764,37h3.2149a.5006.5006,0,0,1,.5.5v2a.5006.5006,0,0,1-.5.5H69.5547a5.4869,5.4869,0,0,0-3.73,1.458L41.4048,64Zm64.71-22.542A5.4848,5.4848,0,0,0,93.418,40H90.982a.5006.5006,0,0,1-.5-.5v-2a.5006.5006,0,0,1,.5-.5h3.2144a6.525,6.525,0,0,1,4.0366,1.4053L130.5352,64h-8.9668Zm-7.9219,17.89L93.8787,64h-48.05L67.8589,43.6631A2.4932,2.4932,0,0,1,69.5547,43h2.4366a3.5042,3.5042,0,0,0,3.5-3.5v-2a3.5042,3.5042,0,0,0-3.5-3.5H68.7764a9.5388,9.5388,0,0,0-5.9,2.0537L26.2925,65.0415q-.2065.1487-.398.3154l-.0082.0064-.0049.0054A5.4832,5.4832,0,0,0,24,69.5V72H8.6345A73.5854,73.5854,0,0,1,80,8.0381V37.0732A31.2939,31.2939,0,0,0,89.2261,59.3477ZM8,81.5c0-2.1919.1147-4.3564.3036-6.5H24V95.5A11.5131,11.5131,0,0,0,35.5,107H56.2415l-19.21,32.97A73.4152,73.4152,0,0,1,8,81.5Zm31.4692,60.2437L59.713,107h4.125a11.5568,11.5568,0,0,0,9.8613-5.584L81.5,88.415l7.8007,13.001A11.5571,11.5571,0,0,0,99.1622,107H112v13.0505c-.8334-.0173-1.6649-.05-2.5-.05a117.75,117.75,0,0,0-69.014,22.4639C40.1415,142.2312,39.81,141.9819,39.4692,141.7437ZM115,120.1379V107h12.5A11.5131,11.5131,0,0,0,139,95.5v-26a5.4578,5.4578,0,0,0-.6073-2.5H139.5a11.5078,11.5078,0,0,0,11.3579-9.7866,73.2629,73.2629,0,0,1-9.6976,67.1372A117.0951,117.0951,0,0,0,115,120.1379Z"/>
    </g>
  </g>
</svg>