<?xml version="1.0" encoding="utf-8"?>
<svg xmlns="http://www.w3.org/2000/svg" width="162.9891" height="163" viewBox="0 0 162.9891 163">
  <defs>
    <style>.cls-1{fill:#fff;opacity:0.65;}</style>
  </defs>
  <g id="Layer_2" data-name="Layer 2">
    <g id="Layer_1-2" data-name="Layer 1">
      <path class="cls-1" d="M162.9081,80.2275a11.35,11.35,0,0,0-1.1535-3.8789l-27.1089-53.416A41.9241,41.9241,0,0,0,97.293,0H65.6965A41.9434,41.9434,0,0,0,28.33,22.9326L1.2219,76.3486A11.3824,11.3824,0,0,0,0,81.4082c-.0008.0908.0035.1812.0051.272a11.3759,11.3759,0,0,0,1.2172,4.9712L28.33,140.0674A41.943,41.943,0,0,0,65.6965,163H97.293a41.9239,41.9239,0,0,0,37.3527-22.9326l27.1089-53.416a11.3541,11.3541,0,0,0,1.1535-3.8785A10.03,10.03,0,0,0,162.9081,80.2275ZM65.6965,8H97.293a33.24,33.24,0,0,1,29.86,18.147l27.6162,54.4175a2.0477,2.0477,0,0,1,0,1.8715l-8.578,16.9029H130.988l-.001-37.4424A38.9616,38.9616,0,0,0,54.5679,52.792a39.2237,39.2237,0,0,1-5.58-20.2627V12.3882A33.7852,33.7852,0,0,1,65.6965,8ZM46.7073,92.0547A20.2227,20.2227,0,1,0,68.7394,71.9238,42.51,42.51,0,0,0,60.5486,60.44,40.2159,40.2159,0,0,1,57.74,57.313c.8226-.2173,1.6508-.4092,2.4856-.5669.1174-.0225.2356-.0425.3534-.0635q.9753-.1743,1.9589-.2954c.105-.0127.2091-.0278.3143-.04a36.0788,36.0788,0,0,1,4.5552-.2261c.115.0015.2291.0059.3439.0083.716.0166,1.4324.05,2.1483.1094.0268.0019.0535.0034.08.0058a36.19,36.19,0,0,1,4.7737.729l1.1757.2618a35.8211,35.8211,0,0,1,24.3772,21.3l-.02.0127.4155,1.1318a35.8784,35.8784,0,0,1,1.94,8.0576c.01.084.019.168.0283.252.0994.874.1714,1.7495.2048,2.625V128H64.4328a35.9984,35.9984,0,0,1-9.7567-69.7373,43.1326,43.1326,0,0,0,3.7514,4.2978,39.6014,39.6014,0,0,1,6.9456,9.3506A20.2361,20.2361,0,0,0,46.7073,92.0547ZM66.7739,74.84A39.38,39.38,0,0,1,69.988,90.4707v18.5186A17.2129,17.2129,0,1,1,66.7739,74.84Zm3.3628.3028a17.203,17.203,0,0,1,2.8513,33.0136V90.4707A42.44,42.44,0,0,0,70.1367,75.1426ZM102.82,76.8008A38.7911,38.7911,0,0,0,77.3243,54.5063,17.2022,17.2022,0,1,1,102.82,76.8008Zm9.4458-13.4072a20.21,20.21,0,0,0-38.0029-9.5967,39.2852,39.2852,0,0,0-4.116-.5474c-.14-.0117-.2791-.021-.4187-.0307q-.7586-.0536-1.5246-.0782c-.2388-.0078-.4774-.0141-.7162-.0176-.1862-.0024-.37-.0136-.5571-.0136-.244,0-.4847.0141-.7276.0185-.2778.0049-.5553.01-.8327.021-.4308.0171-.8586.0445-1.2857.0757-.2537.0186-.5075.0347-.7607.0581-.4768.044-.95.1011-1.4214.1621-.2.0259-.4013.0474-.6012.0767-.575.084-1.1447.1826-1.7113.2915-.098.0185-.1968.0327-.2946.0527-.6842.1363-1.3631.2876-2.034.46a35.9616,35.9616,0,0,1,70.7273,7.6279V99.3389H105.8752l-.0009-8.7813c-.0323-.8511-.1009-1.6919-.1859-2.5273-.0162-.1568-.0343-.3135-.0525-.47a39.0206,39.0206,0,0,0-1.71-7.8227A20.1256,20.1256,0,0,0,112.2654,63.3936Zm-76.4287,73.46L8.22,82.436a2.0475,2.0475,0,0,1,0-1.8711L35.8367,26.1465A32.92,32.92,0,0,1,45.988,14.2983v18.231A42.17,42.17,0,0,0,52.8849,55.74a38.9932,38.9932,0,0,0,11.3766,75.2559l5.7265,0V155H65.6965A33.239,33.239,0,0,1,35.8367,136.8535Zm37.1513-5.8564L105.8752,131l-.0006-28.6611h38.7942l-17.5159,34.5146A33.24,33.24,0,0,1,97.293,155H72.988Z"/>
    </g>
  </g>
</svg>