<?xml version="1.0" encoding="utf-8"?>
<svg xmlns="http://www.w3.org/2000/svg" width="163" height="163.9995" viewBox="0 0 163 163.9995">
  <defs>
    <style>.cls-1{fill:#fff;opacity:0.65;}</style>
  </defs>
  <g id="Layer_2" data-name="Layer 2">
    <g id="Layer_1-2" data-name="Layer 1">
      <path class="cls-1" d="M163,81.5a81.5,81.5,0,0,0-163,0c0,.1733.0111.3438.0122.5171C.0113,82.1787,0,82.3379,0,82.5a81.5,81.5,0,1,0,163,0c0-.1616-.0113-.3208-.0122-.4824C162.9889,81.8438,163,81.6733,163,81.5ZM91,109.7041c3.0562-3.9443,5-9.7383,5-16.2041C96,81.6445,89.4951,72,81.5,72S67,81.6445,67,93.5c0,6.4658,1.9438,12.26,5,16.2041V118.65A34.7493,34.7493,0,0,1,47.0518,85.3916,34.1916,34.1916,0,0,1,51.481,68.57a36.797,36.797,0,0,0,2.4531,9.8145,6.299,6.299,0,0,0,11.73-4.5918,47.0144,47.0144,0,0,1-3.1807-15.7588c-.0073-.6592.0029-1.3057.0293-2.0342.9131-19.9668,18.7436-29.1943,24.7783-31.7529A49.3479,49.3479,0,0,0,101.6,57.0645c1.2812,1.2763,2.1079,1.9921,2.1811,2.0556.0108.01.0718.0635.0831.0733A34.4969,34.4969,0,0,1,91,118.6836Zm-2.0125-2.1924-.6418.7735a10.4259,10.4259,0,0,1-4.6488,3.3671c-.0965.03-.1959.0459-.2932.0723a7.1385,7.1385,0,0,1-.7628.1826,7.06,7.06,0,0,1-2.2818,0,6.9339,6.9339,0,0,1-.7643-.1836c-.0968-.0254-.1956-.041-.2915-.0713a10.42,10.42,0,0,1-4.649-3.3671l-.6418-.7735A24.3193,24.3193,0,0,1,70,93.5C70,83.2988,75.1587,75,81.5,75S93,83.2988,93,93.5A24.3193,24.3193,0,0,1,88.9875,107.5117ZM81.5,9a73.7085,73.7085,0,0,1,10.4455.7554,18.6307,18.6307,0,0,0-4.6424,11.251C82.34,22.94,60.5739,32.7256,59.5156,55.8633c-.0005.0078.001.0928.001.1q-.0439,1.0341-.0332,2.1035a49.9861,49.9861,0,0,0,3.3691,16.7725A3.3032,3.3032,0,0,1,58.65,79.1143a3.2094,3.2094,0,0,1-1.9326-1.8487,33.9865,33.9865,0,0,1-2.4458-13.3672,1.5,1.5,0,0,0-2.6978-.93,37.1816,37.1816,0,0,0-7.5219,22.413A37.7961,37.7961,0,0,0,62.2257,117.6,78.8279,78.8279,0,0,1,8.8571,71.2729,73.6158,73.6158,0,0,1,81.5,9ZM119.0513,85.5A37.4692,37.4692,0,0,0,105.79,56.8916c-.0074-.0068-.0777-.0684-.0855-.0752s-.7886-.6846-1.9868-1.8769a46.35,46.35,0,0,1-13.4658-32.65v-.22A15.6733,15.6733,0,0,1,95.5372,10.36a73.6832,73.6832,0,0,1,58.606,60.9145,78.8352,78.8352,0,0,1-53.189,46.2822A37.8062,37.8062,0,0,0,119.0513,85.5ZM71.9161,122.4268a26.4514,26.4514,0,0,1-24.7474,25.0346A73.5589,73.5589,0,0,1,8,82.5c0-1.8008.0878-3.5806.2158-5.3491A81.74,81.74,0,0,0,71.9161,122.4268ZM51.9969,149.7974A29.53,29.53,0,0,0,72,133.9287v21.4365A72.8852,72.8852,0,0,1,51.9969,149.7974ZM81.5,156c-2.1918,0-4.3564-.1147-6.5-.3037V120.9727c.0031-.0118.0089-.0225.0117-.0342a1.4867,1.4867,0,0,0-.0117-.69v-7.5156a12.3623,12.3623,0,0,0,2.1382,1.2686c.0281.0126.0556.0273.0837.041a10.8912,10.8912,0,0,0,1.2281.4687c.0867.0283.1733.0547.26.08a10.37,10.37,0,0,0,1.2285.2783c.0739.0117.1485.0186.2228.0293a8.9508,8.9508,0,0,0,2.6764,0c.0743-.0107.1489-.0176.2228-.0293a10.37,10.37,0,0,0,1.2285-.2783c.0872-.0254.1738-.0518.26-.08a10.8912,10.8912,0,0,0,1.2281-.4687c.0281-.0137.0556-.0284.0837-.041A12.3623,12.3623,0,0,0,88,112.7334v42.9624C85.8564,155.8848,83.6918,156,81.5,156ZM91,122.6006h52.05A73.5792,73.5792,0,0,1,91,155.3652Zm13.8267-3a81.9117,81.9117,0,0,0,49.9585-42.437c.1273,1.7646.2148,3.54.2148,5.3359a73.03,73.03,0,0,1-10.09,37.1011Z"/>
    </g>
  </g>
</svg>