<?xml version="1.0" encoding="utf-8"?>
<svg xmlns="http://www.w3.org/2000/svg" width="163" height="163" viewBox="0 0 163 163">
  <defs>
    <style>.cls-1{fill:#fff;opacity:0.65;}</style>
  </defs>
  <g id="Layer_2" data-name="Layer 2">
    <g id="Layer_1-2" data-name="Layer 1">
      <path class="cls-1" d="M89.4566,162.6079c.2928-.0283.5841-.06.876-.0923,1.1311-.1225,2.2579-.26,3.3748-.4287.277-.0417.5508-.0928.8269-.1372q1.309-.2116,2.6039-.4648c.4-.0779.8-.1519,1.1976-.2354.9293-.1963,1.8513-.4116,2.7687-.6391q.804-.1986,1.6008-.4141c.5528-.1489,1.1016-.3076,1.65-.4683q1.3963-.4073,2.771-.8625.4245-.141.8469-.2864a81.6832,81.6832,0,0,0,50.63-50.6775q.1224-.356.2414-.7134c.2714-.8176.5338-1.6386.78-2.4675.1-.335.1913-.6733.2868-1.01.2221-.7851.4449-1.57.6438-2.3645.0926-.3686.1695-.7434.2571-1.114q.4337-1.843.7841-3.7165c.1274-.6807.2554-1.3609.3656-2.0474.0859-.5364.1589-1.0766.2341-1.6164.1027-.7334.1977-1.4688.2807-2.208q.0848-.76.1571-1.5235c.0774-.8308.1382-1.6658.19-2.5034.0265-.4272.0594-.8525.0793-1.2817.0592-1.2718.0969-2.5489.0969-3.835,0-2.6992-.1389-5.3657-.3953-7.9976l0-.0024-.0018-.0171c-.1165-1.1926-.2679-2.3747-.4352-3.5517-.0179-.126-.03-.2537-.0482-.3794-.1636-1.1133-.36-2.2151-.5678-3.3133-.0318-.1672-.057-.3369-.09-.5036-.2169-1.1065-.4639-2.2012-.7252-3.2911-.0354-.1472-.0659-.2959-.1021-.4428-.2758-1.1226-.58-2.2334-.9016-3.3374-.0292-.1-.0558-.2012-.0855-.3013q-.51-1.7233-1.095-3.4126c-.0148-.043-.0287-.0862-.0436-.1289A81.718,81.718,0,0,0,114.8623,7.1455l-.04-.0181q-1.6037-.72-3.2424-1.3711-.1851-.0735-.3706-.1459-1.5084-.5911-3.0444-1.1246c-.2224-.0771-.446-.1508-.6692-.2263-.9461-.3183-1.8977-.6233-2.859-.9074-.3191-.0948-.6409-.1824-.9615-.2732-.8861-.25-1.775-.4925-2.6731-.7129-.4139-.1021-.8319-.1927-1.2483-.2884-.8247-.1887-1.65-.3755-2.4837-.5388-.5146-.1013-1.0349-.1858-1.5529-.2773C94.9629,1.1287,94.2105.9922,93.45.88,92.8173.7871,92.1781.7166,91.5412.6379,90.8757.5562,90.2133.4644,89.5428.3987,88.7455.32,87.94.271,87.1364.2158,86.6094.18,86.0867.1284,85.557.1025Q83.54.0034,81.5,0q-2.0813,0-4.1372.1045C76.49.1482,75.6264.2285,74.7606.3c-.4843.04-.9735.0622-1.4553.1106-1.2448.1245-2.4789.2844-3.7065.4641-.0893.0129-.18.0207-.2694.0341A81.2483,81.2483,0,0,0,24.5258,23.2463c-.038.0328-.0735.0667-.108.1028A81.4858,81.4858,0,0,0,81.5,163c1.2642,0,2.5195-.0381,3.77-.0952.2312-.0108.4627-.0188.6934-.0313Q87.72,162.7784,89.4566,162.6079ZM94.5605,76.44,87,68.8789V53.5a1.5,1.5,0,0,0-3,0V68H59.0452a26.5,26.5,0,1,1,0,3H84.8789L92.44,78.5605a1.5,1.5,0,0,0,2.121-2.121ZM85.5,99A29.5,29.5,0,1,0,56.0381,68H51V37.5A2.5026,2.5026,0,0,1,53.5,35h64a2.5026,2.5026,0,0,1,2.5,2.5V73.4951L120,73.5l.0005.0049V101.5a2.5026,2.5026,0,0,1-2.5,2.5h-64a2.5026,2.5026,0,0,1-2.5-2.5V71h5.0381A29.5368,29.5368,0,0,0,85.5,99Zm32-67H115V19.1572a5.4629,5.4629,0,0,0-1.5851-3.8584A73.6776,73.6776,0,0,1,154.3655,72H123V37.5A5.5066,5.5066,0,0,0,117.5,32ZM115,146.8882V131h20.7822A73.9308,73.9308,0,0,1,115,146.8882ZM155,81.5A73.1528,73.1528,0,0,1,138.3729,128H115V107h2.5a5.5066,5.5066,0,0,0,5.5-5.5V75h31.6964C154.8853,77.1436,155,79.3081,155,81.5ZM81.5,8a73.1443,73.1443,0,0,1,24.6418,4.2625l5.1263,5.1262A2.4859,2.4859,0,0,1,112,19.1572V32H59V19.1572a2.4859,2.4859,0,0,1,.7319-1.7685l8.0932-8.0933A73.56,73.56,0,0,1,81.5,8ZM62.3247,10.5537l-4.7139,4.7139A5.4657,5.4657,0,0,0,56,19.1572V32H53.5A5.5066,5.5066,0,0,0,48,37.5v64a5.5066,5.5066,0,0,0,5.5,5.5H56v19.8169A38.6162,38.6162,0,0,1,27,89.5V32.2407A73.5971,73.5971,0,0,1,62.3247,10.5537ZM8,81.5A73.1238,73.1238,0,0,1,24,35.7976V89.5a41.6149,41.6149,0,0,0,32,40.3984v20.534A73.6214,73.6214,0,0,1,8,81.5ZM59,107h53v22.4951L112,129.5l.0005.0049v18.8415a73.28,73.28,0,0,1-53,3.1172Z"/>
    </g>
  </g>
</svg>