<?xml version="1.0" encoding="utf-8"?>
<svg xmlns="http://www.w3.org/2000/svg" width="162.9943" height="163" viewBox="0 0 162.9943 163">
  <defs>
    <style>.cls-1{fill:#fff;opacity:0.65;}</style>
  </defs>
  <g id="Layer_2" data-name="Layer 2">
    <g id="Layer_1-2" data-name="Layer 1">
      <path class="cls-1" d="M162.913,80.2256a11.36,11.36,0,0,0-1.1531-3.877l-27.1088-53.416A41.9245,41.9245,0,0,0,97.2983,0H65.7018A41.9447,41.9447,0,0,0,28.3356,22.9326L1.2267,76.3486A11.3925,11.3925,0,0,0,0,81.5l.0018.0308a11.3884,11.3884,0,0,0,1.2254,5.1206l27.1084,53.416A41.9443,41.9443,0,0,0,65.7018,163H97.2983a41.9231,41.9231,0,0,0,37.3528-22.9326L161.76,86.6514a11.3574,11.3574,0,0,0,1.1531-3.876A10.0368,10.0368,0,0,0,162.913,80.2256ZM97.2983,155H65.7018a33.2391,33.2391,0,0,1-29.86-18.1465L23.3235,112.186l8.8012,8.8013A61.099,61.099,0,0,0,75.6115,139h35.4839v13.0913A33.953,33.953,0,0,1,97.2983,155ZM65.7018,8H97.2983a33.24,33.24,0,0,1,29.86,18.147l27.6163,54.4175a2.0483,2.0483,0,0,1,0,1.8715l-14.8484,29.2583H114.0953l-.0009-37.4423A38.485,38.485,0,0,0,110.31,58.9648l15.419-15.4189a3.5969,3.5969,0,0,0,0-5.0811l-5.4121-5.4121a3.5978,3.5978,0,0,0-5.0811,0L101.3534,46.9355A38.8878,38.8878,0,0,0,52.627,44.0073a38.3725,38.3725,0,0,1-1.6337-11.0757v-21.59A33.8964,33.8964,0,0,1,65.7018,8ZM90.9933,111.6943v-5.6259A41.4689,41.4689,0,0,0,88.228,91.146a20.1742,20.1742,0,0,0,7.1447-15.397,17.9167,17.9167,0,0,0-.1-1.8642,4.43,4.43,0,0,0,.6679-.55l12.1206-12.12a35.4307,35.4307,0,0,1,3.0347,13.0938v37.3857Zm20.1021,2.9995V136H90.9933V114.6924ZM93.8185,54.4688a1.68,1.68,0,0,1-2.3183,0l-8.8579-8.8565-.001-.001a3.5978,3.5978,0,0,0-5.0811,0l-5.4121,5.4121a3.6438,3.6438,0,0,0-.4564.5591c-.0255.0386-.0407.0816-.0646.1206a3.5736,3.5736,0,0,0-.2659.5059c-.0088.022-.0119.0454-.02.0674a3.5827,3.5827,0,0,0-.245,1.2881,3.62,3.62,0,0,0,.0649.6611c.0079.043.0228.084.0323.1265a3.5416,3.5416,0,0,0,.1484.5014c.0236.0615.0534.12.0805.1807a3.5377,3.5377,0,0,0,.2132.4062c.0409.0664.0843.1309.13.1953.0364.0508.0649.107.1041.1563A20.22,20.22,0,1,0,85.712,92.9614a38.5165,38.5165,0,0,1,2.2813,13.107v5.6259H72.653A35.99,35.99,0,0,1,75.15,39.8037a35.7636,35.7636,0,0,1,24.0845,9.249Zm23.5386-19.295a.5955.5955,0,0,1,.8389,0l5.4121,5.4121a.5944.5944,0,0,1,0,.8389L108.8909,56.1416h0l-14.75,14.75-1.1153.7437A1.6681,1.6681,0,0,1,91.5,71.2139L78.8141,58.5283l-4.5449-4.5449a.5946.5946,0,0,1,0-.8389l5.4121-5.4121.0089-.0058a.5805.5805,0,0,1,.2058-.1275.55.55,0,0,1,.4094,0,.5786.5786,0,0,1,.2148.1333l8.8589,8.8594c.07.07.1518.1191.2251.1836a4.7534,4.7534,0,0,0,.4944.4033c.0669.044.1407.0713.2093.1118a4.56,4.56,0,0,0,.6019.3159c.0317.0127.0655.0176.0975.03a4.5205,4.5205,0,0,0,3.3143-.0034c.0286-.0107.059-.0146.0875-.0264a4.5335,4.5335,0,0,0,.6283-.33c.0595-.0352.1238-.0586.182-.0972a4.6661,4.6661,0,0,0,.57-.4658c.0483-.0445.1037-.0757.15-.1226ZM62.2451,64.373,76.717,78.8447a38.5014,38.5014,0,0,1,7.845,11.31A17.2016,17.2016,0,0,1,62.2451,64.373ZM86.9843,88.23a41.54,41.54,0,0,0-8.1462-11.5059L64.41,62.2954a17.0018,17.0018,0,0,1,10.1816-3.7475L89.3786,73.335a4.5893,4.5893,0,0,0,2.9466,1.3266c.0282.3765.0475.7388.0475,1.0874A17.1606,17.1606,0,0,1,86.9843,88.23ZM50.1013,45.96A38.8708,38.8708,0,0,0,36.2048,75.749,39.3211,39.3211,0,0,0,72.4816,114.69l15.5117.0015V136H75.6115a58.1182,58.1182,0,0,1-41.3657-17.1338L18.9523,103.5728,8.2256,82.436a2.0472,2.0472,0,0,1,0-1.8711L35.842,26.1465A32.9242,32.9242,0,0,1,47.9933,12.9624V32.9316A41.3572,41.3572,0,0,0,50.1013,45.96Zm63.9941,68.7348h24.3083l-11.2456,22.1592a32.9088,32.9088,0,0,1-13.0627,13.7085Z"/>
    </g>
  </g>
</svg>