<?xml version="1.0" encoding="utf-8"?>
<svg xmlns="http://www.w3.org/2000/svg" width="163" height="163.1802" viewBox="0 0 163 163.1802">
  <defs>
    <style>.cls-1{fill:#fff;opacity:0.65;}</style>
  </defs>
  <g id="Layer_2" data-name="Layer 2">
    <g id="Layer_1-2" data-name="Layer 1">
      <path class="cls-1" d="M162.8909,85.7349l.0034-.0533c.0645-1.3266.1057-2.6591.1057-4.0014,0-.03-.0022-.06-.0023-.09S163,81.53,163,81.5a81.5,81.5,0,0,0-163,0c0,.03.0022.06.0023.09S0,81.65,0,81.68c0,1.2954.0415,2.5805.1022,3.8608.0048.0977.0094.1958.0145.2935A81.33,81.33,0,0,0,2.7313,102.59a1.5007,1.5007,0,0,0,.1408.4947,81.7976,81.7976,0,0,0,58.1833,57.4965c.025.0079.0449.0245.0706.0313,1.2652.3257,2.5413.61,3.8223.8745.0917.019.1832.0386.275.0571,1.2616.2554,2.5288.4854,3.803.6807.0924.0146.1857.0259.2783.04q1.745.2623,3.5031.4468c.1875.02.3738.043.5616.0615q1.8033.1788,3.6168.2759c.2554.0142.5115.0244.7676.0362,1.2468.0566,2.4953.0952,3.7463.0952s2.4995-.0386,3.7463-.0952c.2561-.0118.5122-.022.7676-.0362q1.813-.0988,3.6168-.2759c.1878-.0185.3741-.0415.5616-.0615q1.7575-.1867,3.5031-.4468c.0926-.0136.1859-.0249.2783-.04,1.2742-.1953,2.5414-.4253,3.803-.6807.0918-.0185.1833-.0381.275-.0571,1.281-.2642,2.5571-.5488,3.8223-.8745.0257-.0068.0456-.0234.0706-.0313a81.6912,81.6912,0,0,0,60.6336-70.7407l.0014-.0127C162.7148,88.4722,162.8232,87.1094,162.8909,85.7349ZM155,81.5a73.4271,73.4271,0,0,1-29.32,58.6968H103V110.0347L114.4272,87.18H115.5a3.5042,3.5042,0,0,0,3.5-3.5v-8.5h35.71C154.8887,77.2656,155,79.37,155,81.5ZM81.5,155A73.38,73.38,0,0,1,63,152.6387V111.18h37v29.0166H88.394A9.487,9.487,0,1,0,81.5,143.18c.1115,0,.22-.0127.33-.0166H100v9.4751A73.38,73.38,0,0,1,81.5,155ZM9.3311,95.3735A42.7251,42.7251,0,0,1,44,75.21V83.68a3.5042,3.5042,0,0,0,3.5,3.5h1.0728L60,110.0347v41.75A73.7359,73.7359,0,0,1,9.3311,95.3735ZM81.5,8a73.1632,73.1632,0,0,1,46.75,16.8257L112.5728,56.18H50.4272L34.75,24.8257A73.1634,73.1634,0,0,1,81.5,8Zm72.8884,64.18H119V59.68a3.4932,3.4932,0,0,0-3.0933-3.459L130.59,26.854A73.4013,73.4013,0,0,1,154.3884,72.18ZM47.5,59.18h68a.5006.5006,0,0,1,.5.5v12.5H47V59.68A.5006.5006,0,0,1,47.5,59.18Zm68.5,16v8.5a.5006.5006,0,0,1-.5.5h-68a.5006.5006,0,0,1-.5-.5v-8.5Zm-4.9272,12-10.5,21H62.4272l-10.5-21ZM88,133.68a6.5,6.5,0,1,1-6.5-6.5A6.5075,6.5075,0,0,1,88,133.68Zm15,9.4834h18.4232A73.1709,73.1709,0,0,1,103,151.7847ZM8,81.5A73.3257,73.3257,0,0,1,32.41,26.854L47.0933,56.2212A3.4932,3.4932,0,0,0,44,59.68V72.21A45.7138,45.7138,0,0,0,8.6432,91.0679,73.7462,73.7462,0,0,1,8,81.5Z"/>
    </g>
  </g>
</svg>