<?xml version="1.0" encoding="utf-8"?>
<svg xmlns="http://www.w3.org/2000/svg" width="163" height="163.3696" viewBox="0 0 163 163.3696">
  <defs>
    <style>.cls-1{fill:#fff;opacity:0.65;}</style>
  </defs>
  <g id="Layer_2" data-name="Layer 2">
    <g id="Layer_1-2" data-name="Layer 1">
      <path class="cls-1" d="M163,81.5a81.5,81.5,0,0,0-163,0c0,.062.0046.123.0047.1851S0,81.8076,0,81.87a81.6369,81.6369,0,0,0,53.3689,76.4922l-.011.0166,1.8457.63c.2646.09.5326.1665.7979.2539.6934.229,1.388.4541,2.09.665.4215.1265.8453.2413,1.2683.3609.7519.2124,1.5025.4277,2.2631.6191.1222.0308.2455.0552.3678.0855,1.5575.3838,3.1346.7153,4.7256,1.0083.6.1108,1.1985.2251,1.8.3222.5814.0938,1.167.1729,1.7524.2539.69.0962,1.38.1861,2.0723.2642q.8.09,1.6041.165c.8074.0752,1.6164.1343,2.4266.1851.4406.0278.8794.061,1.3219.0815,1.2664.0591,2.5349.0967,3.8066.0967s2.54-.0376,3.8066-.0967c.4425-.02.8813-.0537,1.3219-.0815.81-.0508,1.6192-.11,2.4266-.1851q.8046-.074,1.6041-.165c.6922-.0781,1.3826-.168,2.0723-.2642.5854-.081,1.171-.16,1.7524-.2539.6018-.0971,1.2007-.2114,1.8-.3222,1.591-.293,3.1681-.6245,4.7256-1.0083.1223-.03.2456-.0547.3678-.0855.7606-.1914,1.5112-.4067,2.2631-.6191.423-.12.8468-.2344,1.2683-.3609.7015-.2109,1.3961-.436,2.09-.665.2653-.0874.5333-.1636.7979-.2539l1.8457-.63-.011-.0166A81.6369,81.6369,0,0,0,163,81.87c0-.062-.0046-.1225-.0047-.1845S163,81.562,163,81.5ZM75.5,52.37a7.5286,7.5286,0,1,0,5.9858,3h19.6983l9.6352,32.1162a22.4328,22.4328,0,0,1-2.83,18.9463l-1.0735,1.61-12.84-8.11A4.5,4.5,0,0,1,92.77,93.5786L95.8706,89.07a10.7644,10.7644,0,1,0-17.7407,0l3.1,4.5088a4.5,4.5,0,0,1-1.3052,6.3535L66.5658,108.37H56.3029l-1.2917-1.9375a22.4315,22.4315,0,0,1-2.83-18.9463L67.8162,35.37H95.184l5.1,17Zm4.5,7.5a4.5,4.5,0,1,1-4.5-4.5A4.5049,4.5049,0,0,1,80,59.87Zm51,75.9126V111.37h17.6318A73.8429,73.8429,0,0,1,131,135.7822ZM61.1426,152.11l11.16-16.74H90.6973l11.16,16.74a73.1422,73.1422,0,0,1-40.7148,0ZM83.7017,91.8794l-3.1-4.5088a7.7645,7.7645,0,1,1,12.7963,0l-3.1,4.5088a7.4993,7.4993,0,0,0,2.1758,10.59l9.3423,5.9H72.1841l9.3423-5.9a7.5,7.5,0,0,0,2.1753-10.59Zm20.9956,19.49-14,21H72.3027l-14-21h46.3944Zm.1446,39.8086L93.3027,133.87l15-22.5H128v27.003A73.4463,73.4463,0,0,1,104.8419,151.1782ZM128,108.37H110.303l.1824-.2734a25.42,25.42,0,0,0,3.207-21.4717L104.316,55.37H109.5A18.5207,18.5207,0,0,1,128,73.87ZM8,81.5c0-.7144.0338-1.4209.0541-2.13h.8043A61.0792,61.0792,0,0,0,59.396,52.9971L49.3081,86.6245a25.4208,25.4208,0,0,0,3.207,21.4717l.1823.2734H45.9263a28.315,28.315,0,0,1-20.1524-8.3476L8.02,82.2681C8.0168,82.0112,8,81.7573,8,81.5ZM68.7163,32.37l3.9-13H90.3838l3.9,13Zm21.2842-16H70.3838L64.887,34.6929A58.1388,58.1388,0,0,1,8.8584,76.37H8.1991A73.3582,73.3582,0,0,1,90.0005,8.5073ZM23.6528,102.1431A31.2915,31.2915,0,0,0,45.9263,111.37h8.771l15,22.5L58.1581,151.1782A73.6388,73.6388,0,0,1,8.204,86.6948ZM131,108.37V73.87a21.5243,21.5243,0,0,0-21.5-21.5h-6.0839l-5.1-17h0L93.0005,17.65V8.9062A73.4474,73.4474,0,0,1,149.8913,108.37Z"/>
    </g>
  </g>
</svg>