<?xml version="1.0" encoding="utf-8"?>
<svg xmlns="http://www.w3.org/2000/svg" width="163.0001" height="163" viewBox="0 0 163.0001 163">
  <defs>
    <style>.cls-1{opacity:0.65;}.cls-2{fill:#fff;}</style>
  </defs>
  <g id="Layer_2" data-name="Layer 2">
    <g id="Layer_1-2" data-name="Layer 1">
      <g class="cls-1">
        <path class="cls-2" d="M65.5,62A9.5,9.5,0,1,0,75,71.5,9.5108,9.5108,0,0,0,65.5,62Zm0,16A6.5,6.5,0,1,1,72,71.5,6.5075,6.5075,0,0,1,65.5,78Z"/>
        <path class="cls-2" d="M163,81.5A81.5,81.5,0,0,0,81.5161.0005L81.5,0h0a81.5,81.5,0,0,0,0,163h0l.016,0A81.5,81.5,0,0,0,163,81.5ZM136.658,130H98.8056A51.769,51.769,0,0,0,128.28,103H139.5c.1686,0,.3327-.019.5-.0254V125.93Q138.4032,128.0277,136.658,130ZM8.0381,83H30v6.5a30.6954,30.6954,0,0,1-13.8762,25.5234A72.9887,72.9887,0,0,1,8.0381,83Zm0-3A73.5867,73.5867,0,0,1,74.41,8.3486,82.3114,82.3114,0,0,0,30.0323,80Zm34,3A39.5391,39.5391,0,0,0,80,120.9619v9A48.5419,48.5419,0,0,1,33.0381,83Zm-9-3A48.457,48.457,0,0,1,118,49.6157v16.8A39.49,39.49,0,0,0,42.0381,80Zm12.001,3.0391A36.54,36.54,0,0,1,79.961,117.9609,36.54,36.54,0,0,1,45.0391,83.0391Zm-.0019-3A36.496,36.496,0,1,1,82.961,117.9629,39.54,39.54,0,0,0,45.0372,80.0391ZM83,120.9619A39.5416,39.5416,0,0,0,121,81.5V53.41a48.4759,48.4759,0,0,1,5.0825,9.0085c.1513.3528.2907.709.4333,1.0645.1575.3923.3186.7829.4662,1.18.1324.3567.2509.7168.3745,1.0755.1422.4126.2892.8227.4205,1.24.0975.31.181.6228.272.9341.1383.4726.2809.9438.4051,1.4226.0589.2275.1061.458.1618.6863.1375.5642.2757,1.1279.3932,1.7.0218.1064.0372.2143.0583.3213a48.4145,48.4145,0,0,1,0,18.9133c-.0212.1072-.0366.2153-.0584.322-.1175.5718-.2557,1.1355-.3932,1.7-.0557.2283-.1029.4588-.1618.6863-.1242.4788-.2668.95-.4051,1.4226-.091.3113-.1745.6245-.272.9341-.131.417-.278.8269-.42,1.2393-.124.3591-.2425.72-.375,1.0766-.1475.397-.3082.7869-.4656,1.1787-.1428.3557-.2823.7124-.4338,1.0657A48.5713,48.5713,0,0,1,83,129.9619Zm60-34.1753a5.5,5.5,0,1,0-3,0v13.188c-.167.0081-.3314.0254-.5.0254h-9.9336c.0609-.1577.112-.3181.1714-.4763.1118-.2981.2174-.5991.3237-.9.1686-.4766.3324-.9544.4865-1.4348.0945-.2945.1846-.5909.2739-.8877q.2266-.7525.43-1.51.1135-.4248.22-.8515.1974-.7926.3679-1.59c.0591-.2744.1183-.5488.173-.8249.1087-.5489.2053-1.1.296-1.6526.0442-.27.0909-.5386.1309-.81.0837-.5679.1532-1.1382.2178-1.71.03-.2634.0649-.5256.0908-.79.0587-.6016.1006-1.2058.1382-1.811.015-.239.0372-.4763.0489-.7163.0406-.8418.0644-1.6866.0644-2.5347s-.0238-1.6929-.0644-2.5347c-.0117-.24-.0339-.477-.0489-.7163-.0376-.6052-.0795-1.2094-.1382-1.811-.0259-.2647-.0607-.5266-.0906-.79-.0648-.5715-.1343-1.142-.218-1.71-.04-.271-.0867-.54-.1309-.81-.0907-.5527-.1873-1.1037-.296-1.6526-.0547-.2761-.1139-.5505-.173-.8249q-.1719-.7983-.368-1.59-.1065-.4274-.22-.851-.2028-.7584-.43-1.5113c-.0892-.2966-.1794-.5927-.2738-.8872-.1541-.48-.3179-.958-.4865-1.4348-.1063-.3008-.2119-.6018-.3237-.9-.0594-.1582-.1105-.3186-.1714-.4763H139.5A10.5119,10.5119,0,0,1,150,73.5v16a10.509,10.509,0,0,1-7,9.8875ZM141.5,84a2.5,2.5,0,1,1,2.5-2.5A2.5026,2.5026,0,0,1,141.5,84ZM155,81.5a73.05,73.05,0,0,1-12,40.178V102.5234A13.5117,13.5117,0,0,0,153,89.5v-16A13.5151,13.5151,0,0,0,139.5,60H128.28A51.62,51.62,0,0,0,121,48.5V19.5649A73.49,73.49,0,0,1,155,81.5ZM118,17.7444V45.207a51.4294,51.4294,0,0,0-80.1434,9,79.2886,79.2886,0,0,1,44.3068-46.19A73.0118,73.0118,0,0,1,118,17.7444ZM17.5548,117.6707a33.8379,33.8379,0,0,0,14.6777-21.178A51.5868,51.5868,0,0,0,80,132.9619v22A73.5328,73.5328,0,0,1,17.5548,117.6707ZM83,133h50.8751A73.263,73.263,0,0,1,83,154.9619Z"/>
      </g>
    </g>
  </g>
</svg>