<?xml version="1.0" encoding="utf-8"?>
<svg xmlns="http://www.w3.org/2000/svg" width="163" height="163.2563" viewBox="0 0 163 163.2563">
  <defs>
    <style>.cls-1{fill:#fff;opacity:0.65;}</style>
  </defs>
  <g id="Layer_2" data-name="Layer 2">
    <g id="Layer_1-2" data-name="Layer 1">
      <path class="cls-1" d="M163,81.5a81.5,81.5,0,0,0-163,0c0,.043.0032.0854.0032.1284S0,81.7134,0,81.7563a81.5,81.5,0,1,0,163,0c0-.0429-.0032-.0849-.0032-.1279S163,81.543,163,81.5Zm-8,0a73.5873,73.5873,0,0,1-70,73.4111v-24.959l33.1587,9.5083a8.078,8.078,0,0,0,2.2251.3125,9.1673,9.1673,0,0,0,5.3013-1.7871A13.3383,13.3383,0,0,0,130.1,122.59a8.7459,8.7459,0,0,0-5.3394-5.1469,8.746,8.746,0,0,0,5.3394-5.147,12.8139,12.8139,0,0,0,.3608-8.4336,13.713,13.713,0,0,0-1.5234-3.4561c-2.54-4.1-6.873-6.1054-10.7783-4.98l-.5736.1645a57.9018,57.9018,0,0,0,24.99-54.9311A73.0731,73.0731,0,0,1,155,81.5ZM81.5,155A73.613,73.613,0,0,1,9.8885,97.9907H38.64a12.5071,12.5071,0,0,0-1.8207,2.29,13.7124,13.7124,0,0,0-1.5234,3.456,12.8138,12.8138,0,0,0,.3608,8.4336,8.7106,8.7106,0,0,0,5.6011,5.2383l.12.0342-.1143.0327-.0054.0015a8.7142,8.7142,0,0,0-5.6011,5.2392,13.3381,13.3381,0,0,0,4.4146,15.3955,9.168,9.168,0,0,0,5.3013,1.7871,8.0785,8.0785,0,0,0,2.2251-.3125l.0148-.0053L82,129.7207v25.2666C81.8326,154.9883,81.6677,155,81.5,155ZM67.7939,60.9771a42.2687,42.2687,0,0,1-2.8618-14.1778c-.0068-.5918.002-1.1728.0259-1.8271.8115-17.7559,16.4878-26.0528,22.0869-28.458A44.69,44.69,0,0,0,99.9966,46.0288c1.1606,1.1563,1.9111,1.8057,1.9673,1.8545.0107.01.0688.0625.08.0713l.0054.0049a30.991,30.991,0,0,1-6.2231,51.38,15.6035,15.6035,0,0,0,.7119-17.7745L84.7617,63.2466a1.5593,1.5593,0,0,0-2.5234,0L70.4619,81.5649A15.5887,15.5887,0,0,0,72.54,100.9067q.1692.17.3423.3321A31.0315,31.0315,0,0,1,54.76,56.7808a33.3332,33.3332,0,0,0,2.1728,8.4472,5.8324,5.8324,0,0,0,10.8613-4.2509Zm44.7637,73.2441c.084.2012.1724.3965.2661.5879l-24.27-6.959h0L85,126.8311v-4.8335a18.483,18.483,0,0,1,4.1569-11.6592l28.3548,8.1308c-.0357.022-.0688.0513-.1044.0738a10.7787,10.7787,0,0,0-.9118.6455c-.051.04-.1.0849-.15.1264q-.4044.3318-.7853.709c-.051.05-.1032.0977-.1536.1494-.2752.2823-.5386.5835-.7918.9-.0551.0689-.1084.14-.1623.21-.2559.334-.5036.68-.7321,1.0483q-.2468.3986-.4662.815a13.8415,13.8415,0,0,0-1.0572,2.6411A12.8138,12.8138,0,0,0,112.5576,134.2212Zm2.523-7.6074a10.7228,10.7228,0,0,1,1.1894-2.7022,9.944,9.944,0,0,1,.68-.956c.0772-.0967.16-.1841.24-.2764.1685-.1953.34-.3838.5193-.5586.0978-.0957.198-.186.2987-.2754q.2623-.2336.5361-.438c.1038-.0776.2072-.1557.313-.227.2014-.1358.4073-.2549.615-.3672.09-.0488.1781-.1045.2691-.1484a6.447,6.447,0,0,1,.9084-.3638c.0479-.0147.0966-.02.1445-.0337a5.71,5.71,0,0,1,.7851-.1665c.105-.0142.21-.0171.3148-.0249a5.1508,5.1508,0,0,1,.6545-.0147c.0813.0039.1625.0088.2434.0166a4.9765,4.9765,0,0,1,.85.1519c.01.0029.02.0034.0294.0063a5.7733,5.7733,0,0,1,3.66,3.51,10.3465,10.3465,0,0,1-3.3814,11.793,5.436,5.436,0,0,1-8.6235-2.4727A9.814,9.814,0,0,1,115.0806,126.6138Zm4.2959-10.7315-21.644-6.206L91.5392,107.9a18.3777,18.3777,0,0,1,7.0987-3.7554L118.9858,98.31c2.6045-.75,5.5767.7314,7.4014,3.6767a10.7266,10.7266,0,0,1,1.1895,2.7022,9.8153,9.8153,0,0,1-.2456,6.4521,5.7737,5.7737,0,0,1-3.6592,3.51ZM74.6611,98.7847A12.57,12.57,0,0,1,72.9854,83.188L83.5,66.8315,94.0146,83.188a12.57,12.57,0,0,1-1.6757,15.5967v.0009A12.5156,12.5156,0,0,1,74.6611,98.7847Zm2.9947,8.2558h0l3.4737.9961,4.9355,1.4151A21.4617,21.4617,0,0,0,82,121.9976v3.9731L46.8174,115.8823h-.0009l-4.7315-1.3564a5.7767,5.7767,0,0,1-3.66-3.5108,9.814,9.814,0,0,1-.2456-6.4521,10.728,10.728,0,0,1,1.1894-2.7022,7.4445,7.4445,0,0,1,6.0274-3.8681,4.9705,4.9705,0,0,1,1.374.1914ZM53.56,125.9136a13.8274,13.8274,0,0,0-1.0575-2.6416q-.2191-.4168-.466-.8145a12.8445,12.8445,0,0,0-.935-1.311c-.0223-.0274-.0428-.0571-.0652-.084a11.9836,11.9836,0,0,0-1.0149-1.0835c-.0255-.0239-.0476-.0542-.0732-.0781l27.7075,7.9453-24.7227,7.0889c.0938-.1914.1821-.3868.2661-.5879A12.8145,12.8145,0,0,0,53.56,125.9136ZM50.43,133.1919a5.4361,5.4361,0,0,1-8.6236,2.4727,10.3468,10.3468,0,0,1-3.3813-11.793,5.7767,5.7767,0,0,1,3.66-3.5108,4.9419,4.9419,0,0,1,.8806-.1577c.0811-.0078.1624-.0127.2438-.0166a5.1729,5.1729,0,0,1,.65.0147c.1066.0083.213.0107.32.0254a5.7356,5.7356,0,0,1,.7778.165c.05.0142.1011.02.1512.0356a6.4538,6.4538,0,0,1,.9076.3633c.09.0435.1782.0991.2678.1475.2086.1128.4151.2329.6172.3691.1048.07.2071.148.31.2246q.2762.2065.5408.4419c.0991.0879.1978.1768.2941.271.1808.1768.3543.3667.5242.564.0788.0908.16.1772.2365.2725a9.9255,9.9255,0,0,1,.68.9565,10.75,10.75,0,0,1,1.19,2.7021A9.815,9.815,0,0,1,50.43,133.1919ZM140,47.6792A55.0053,55.0053,0,0,1,99.7232,100.6a33.982,33.982,0,0,0,4.2675-54.9277l-.9707,1.1435.961-1.1523c-.0088-.0088-.0723-.0645-.0816-.0733-.0073-.0058-.709-.6132-1.7856-1.6865A41.6939,41.6939,0,0,1,90,14.5308V8.5073a73.4539,73.4539,0,0,1,48.59,26.7686A54.8849,54.8849,0,0,1,140,47.6792ZM8,81.5A73.5834,73.5834,0,0,1,81.5,8c1.8521,0,3.6819.0918,5.5.2271V13.293C82.259,15.1621,62.912,24.05,61.9619,44.9253q-.0409.9375-.03,1.9072a45.2445,45.2445,0,0,0,3.05,15.1895,2.8253,2.8253,0,0,1-1.2744,3.4795,2.8574,2.8574,0,0,1-2.334.1933,2.7557,2.7557,0,0,1-1.6582-1.5859,30.5229,30.5229,0,0,1-2.1977-12.01,1.5,1.5,0,0,0-2.6978-.93,33.9839,33.9839,0,0,0,3.1079,44.4268,34.4214,34.4214,0,0,0,4.89,4.0679L47.5977,95.2993a7.9755,7.9755,0,0,0-2.355-.3013v-.0073H9.2625A73.55,73.55,0,0,1,8,81.5Z"/>
    </g>
  </g>
</svg>