<?xml version="1.0" encoding="utf-8"?>
<svg xmlns="http://www.w3.org/2000/svg" width="163" height="163.5" viewBox="0 0 163 163.5">
  <defs>
    <style>.cls-1{fill:#fff;opacity:0.65;}</style>
  </defs>
  <g id="Layer_2" data-name="Layer 2">
    <g id="Layer_1-2" data-name="Layer 1">
      <path class="cls-1" d="M163,81.5a81.5,81.5,0,0,0-163,0c0,.084.0061.1665.0063.2505S0,81.9165,0,82a81.5,81.5,0,0,0,163,0c0-.0835-.0061-.166-.0063-.2495S163,81.584,163,81.5Zm-39.333,60.1465v-9.585H134.77A74.0346,74.0346,0,0,1,123.667,141.6465Zm-17.5-20.585h-6.5v-21h18.5a21.6759,21.6759,0,0,0,2.334-.1323,28.9542,28.9542,0,0,1,.166,3.0591v26.0732h-13v-6.5A1.5,1.5,0,0,0,106.167,121.0615ZM81.5,8c2.4184,0,4.8078.125,7.167.3545V32.8652c-4.5906-4.7885-8.6957-7.8037-10.5-7.8037-4.4572,0-22.9359,18.374-28.1266,36.53A31.5417,31.5417,0,0,0,20.8162,40.0879,73.472,73.472,0,0,1,81.5,8ZM97.8931,68.4092l6.4246,6.4248A26.5432,26.5432,0,0,1,80.08,96.9849V91.9688a13.09,13.09,0,0,0,7.7617-22.2667L79.6406,61.501a1.544,1.544,0,0,0-2.1211,0l-8.2007,8.2011A13.09,13.09,0,0,0,77.08,91.9688v5.0654A26.529,26.529,0,0,1,51.667,70.5615c0-19.166,22.9653-42.01,26.4619-42.5019,1.3953.1924,5.75,3.8022,10.5381,9.2622v8.8139A31.2915,31.2915,0,0,0,97.8931,68.4092ZM78.58,80.582a1.5,1.5,0,0,0-1.5,1.5V88.94a10.09,10.09,0,0,1-5.64-17.1163l7.14-7.1406,7.1406,7.1406A10.085,10.085,0,0,1,80.08,88.94V82.082A1.5,1.5,0,0,0,78.58,80.582Zm18.0869,19.48v21h-37v-21Zm-5.5531-3A29.6111,29.6111,0,0,0,106.863,77.3789l5.4568,5.457a28.299,28.299,0,0,1,7.7063,14.1314,18.5718,18.5718,0,0,1-1.8591.0942H91.1139Zm13.5437-26.13-4.6434-4.6435A28.3133,28.3133,0,0,1,91.667,46.1357v-5.21c6.5794,8.3423,13,19.5024,13,29.6362C104.667,70.6855,104.6593,70.8076,104.6576,70.9316ZM27.667,44.07a28.546,28.546,0,0,1,21,27.4912h.0254a29.5353,29.5353,0,0,0,16.5277,25.5H58.167a1.5,1.5,0,0,0-1.5,1.5v22.5h-6.5a1.5,1.5,0,0,0-1.5,1.5v6.5h-2.5a18.5206,18.5206,0,0,1-18.5-18.5Zm24,79.9912h53v5h-53Zm62.7739-43.3467L107.49,73.7642a29.6715,29.6715,0,0,0,.1769-3.2027c0-11.8584-8.1359-25.2187-16-34.38V8.72a73.42,73.42,0,0,1,45,24.291V78.5615a18.5163,18.5163,0,0,1-13.6921,17.8443A31.276,31.276,0,0,0,114.4409,80.7148ZM20.167,43.0615a28.6082,28.6082,0,0,1,4.5.3584v67.1416a21.5242,21.5242,0,0,0,21.5,21.5h74.5v11.5874A73.4537,73.4537,0,0,1,18.8837,43.0615Zm103.5,86V102.9883a31.9945,31.9945,0,0,0-.2117-3.6118,21.5185,21.5185,0,0,0,16.2117-20.815V36.646a73.2813,73.2813,0,0,1-2.1959,92.4155Z"/>
    </g>
  </g>
</svg>