<?xml version="1.0" encoding="utf-8"?>
<svg xmlns="http://www.w3.org/2000/svg" width="163" height="163.25" viewBox="0 0 163 163.25">
  <defs>
    <style>.cls-1{fill:#fff;opacity:0.65;}</style>
  </defs>
  <g id="Layer_2" data-name="Layer 2">
    <g id="Layer_1-2" data-name="Layer 1">
      <path class="cls-1" d="M163,81.5a81.5,81.5,0,0,0-163,0c0,.042.0031.083.0032.125S0,81.708,0,81.75a81.5,81.5,0,0,0,163,0c0-.042-.0031-.083-.0032-.125S163,81.542,163,81.5ZM120,57.25v40.5a6.5075,6.5075,0,0,1-6.5,6.5H107v-47Zm-13-3v-5h6.5a6.5064,6.5064,0,0,1,6.3183,5Zm6.5-8H107v-.5a9.5108,9.5108,0,0,0-9.5-9.5H91v-6.5a9.5,9.5,0,0,0-19,0v6.5H65.5a9.5108,9.5108,0,0,0-9.5,9.5v.5H49.5A9.4553,9.4553,0,0,0,43,48.8408V18.9233A73.4222,73.4222,0,0,1,149.7411,54.25H122.87A9.5068,9.5068,0,0,0,113.5,46.25Zm-2.2925,102.4551a64.4473,64.4473,0,0,1,42.9038-55.8018A73.7094,73.7094,0,0,1,111.2075,148.7051ZM81.5,155a73.3107,73.3107,0,0,1-54.0438-23.75H52v6.5a1.5,1.5,0,0,0,1.5,1.5H108v10.7871A73.092,73.092,0,0,1,81.5,155ZM108,131.25v5H55v-5Zm-29-5.5a2.5,2.5,0,1,1,2.5,2.5A2.5026,2.5026,0,0,1,79,125.75Zm29,2.5H86.3928a5.5,5.5,0,1,0-9.7856,0H55v-2.5a10.5118,10.5118,0,0,1,10.5-10.5h32a10.5118,10.5118,0,0,1,10.5,10.5Zm-10.5-16h-32a6.5075,6.5075,0,0,1-6.5-6.5V57.25H85.6934a14.4512,14.4512,0,0,0-5.6692,11.0073l-9.88,15.3677a13.5,13.5,0,1,0,22.711,0L83.0207,68.3271A11.49,11.49,0,0,1,94.4854,57.25H104v48.5A6.5075,6.5075,0,0,1,97.5,112.25Zm-16-40.7412L90.332,85.248a10.5,10.5,0,1,1-17.664,0ZM94.4854,54.25H59v-8.5a6.5075,6.5075,0,0,1,6.5-6.5h32a6.5075,6.5075,0,0,1,6.5,6.5v8.5ZM75,36.25v-6.5a6.5,6.5,0,0,1,13,0v6.5ZM43,55.75a6.5075,6.5075,0,0,1,6.5-6.5H56v55H49.5a6.5075,6.5075,0,0,1-6.5-6.5ZM8,81.5A73.4686,73.4686,0,0,1,40,20.8789V97.75a9.5108,9.5108,0,0,0,9.5,9.5h6.63a9.4986,9.4986,0,0,0,3.8306,6.2021A13.5093,13.5093,0,0,0,52,125.75v2.5H24.8258A73.1637,73.1637,0,0,1,8,81.5Zm115.0762,29.7256A67.4569,67.4569,0,0,0,111,133.8794V125.75a13.5093,13.5093,0,0,0-7.9608-12.2979A9.4986,9.4986,0,0,0,106.87,107.25h6.63a9.5108,9.5108,0,0,0,9.5-9.5V57.25h27.87A73.147,73.147,0,0,1,155,81.5a73.9126,73.9126,0,0,1-.4545,8.0874A67.8288,67.8288,0,0,0,123.0762,111.2256Z"/>
    </g>
  </g>
</svg>