<?xml version="1.0" encoding="utf-8"?>
<svg xmlns="http://www.w3.org/2000/svg" width="162.9946" height="163" viewBox="0 0 162.9946 163">
  <defs>
    <style>.cls-1{opacity:0.65;}.cls-2{fill:#fff;}</style>
  </defs>
  <g id="Layer_2" data-name="Layer 2">
    <g id="Layer_1-2" data-name="Layer 1">
      <g class="cls-1">
        <path class="cls-2" d="M81.5941,34.4668c-1.11-.01-10.3667,4.1523-11.7143,5.4766a1.5106,1.5106,0,0,0-.0279,2.13,1.49,1.49,0,0,0,2.1123.0274,68.3294,68.3294,0,0,1,9.6182-4.6026c1.7148.4961,9.1772,3.9268,10.0791,4.7637a1.5,1.5,0,0,0,2.1353-2.1074C92.5546,38.8906,83.0878,34.4785,81.5941,34.4668Z"/>
        <path class="cls-2" d="M162.9134,82.7734a10.0362,10.0362,0,0,0,0-2.5468,11.3532,11.3532,0,0,0-1.1539-3.878l-27.1084-53.416A41.9234,41.9234,0,0,0,97.2984,0H65.7019A41.9449,41.9449,0,0,0,28.3358,22.9326L1.2279,76.3486a11.4177,11.4177,0,0,0,0,10.3018l27.1079,53.417a41.59,41.59,0,0,0,12.8563,14.9892c.17.1236.3349.2539.5069.375.2091.1455.427.2774.6387.419A41.7455,41.7455,0,0,0,65.7019,163H97.2984a41.75,41.75,0,0,0,22.8049-6.7822c.0414-.0269.0822-.0542.1234-.0811q1.1751-.7711,2.2948-1.6211c.2581-.1943.5188-.3852.7724-.5859.2748-.2188.5439-.4439.8132-.67q.7261-.6044,1.4252-1.2427c.1-.0923.204-.1807.3035-.2739a41.6883,41.6883,0,0,0,6.3421-7.4746q.3561-.5317.696-1.0752c.1836-.2964.3677-.5918.5444-.8936.4314-.7314.8479-1.4727,1.2334-2.2324L157.3964,95.249h0L161.76,86.65A11.35,11.35,0,0,0,162.9134,82.7734ZM97.2984,155H65.7019a34.2526,34.2526,0,0,1-8.69-1.127,26.5161,26.5161,0,0,1,48.9642.0025A34.2327,34.2327,0,0,1,97.2984,155ZM35.9183,51.5a8.7957,8.7957,0,0,1-8.7856,8.7852H25.3949a1.5,1.5,0,0,0,0,3h1.7378a8.7959,8.7959,0,0,1,8.7856,8.7861v1.7558a1.5,1.5,0,0,0,3,0V72.0713a8.7959,8.7959,0,0,1,8.7857-8.7861h1.3672a1.5,1.5,0,1,0,0-3H47.704A8.7957,8.7957,0,0,1,38.9183,51.5V21.2422A33.3331,33.3331,0,0,1,65.7019,8H97.2984a33.6783,33.6783,0,0,1,19.1741,5.9233V25.29a6.5075,6.5075,0,0,1-6.5,6.5h-1a1.5,1.5,0,0,0,0,3h1a6.5076,6.5076,0,0,1,6.5,6.5v1a1.5,1.5,0,0,0,3,0v-1a6.5076,6.5076,0,0,1,6.5-6.5h1a1.5,1.5,0,0,0,0-3h-1a6.5075,6.5075,0,0,1-6.5-6.5V16.2715a32.9325,32.9325,0,0,1,7.6858,9.875L154.7745,80.564a2.0474,2.0474,0,0,1,0,1.8715l-7.5614,14.9a56.1828,56.1828,0,0,0-24.8948,15.2593c-10.5-16.855-21.3372-35.2544-21.9-38.0649.133-16.61.2593-32.3482.2749-34.1148.05-5.748-16.5976-20.34-19.1479-20.3632h-.0049c-2.4443,0-18.5107,14.2841-18.561,20.0293-.02,2.2319-.1407,17.4531-.269,33.6889a1.4759,1.4759,0,0,0-.0289.2642c-.3242,2.5771-12.5478,22.4375-23.8852,39.8154a1.4828,1.4828,0,0,0-.1884.4512l-7.8473,7.8476c-.52.52-1.076,1.0049-1.6194,1.5025L8.2258,82.436a2.0477,2.0477,0,0,1,0-1.8715L35.842,26.1465c.024-.0474.0522-.0913.0763-.1382Zm1.5,5.749a11.8657,11.8657,0,0,0,4.5362,4.5362,11.8648,11.8648,0,0,0-4.5362,4.5361,11.8638,11.8638,0,0,0-4.5361-4.5361A11.8648,11.8648,0,0,0,37.4183,57.249ZM120.8539,33.29a9.5822,9.5822,0,0,0-2.8814,2.8809,9.5818,9.5818,0,0,0-2.8813-2.8809,9.5815,9.5815,0,0,0,2.8813-2.8808A9.5818,9.5818,0,0,0,120.8539,33.29Zm12.79,90.7842c-.7006-.6255-1.39-1.2632-2.0525-1.9258l-7.2857-7.2861a53.2613,53.2613,0,0,1,20.9935-13.7549Zm-52.5545.7969a57.676,57.676,0,0,1-10.9372-1.0186,1.4894,1.4894,0,0,0-.8133-.249,1.3049,1.3049,0,0,0-.2446.0132c-2.1892-.5317-3.4847-1.1245-3.8384-1.55l.05-5.6743,31.7138.28-.05,5.6733c-.3643.4233-1.6923.9951-3.9248,1.4883a1.4956,1.4956,0,0,0-.2163-.0235,1.4254,1.4254,0,0,0-.7968.2286A58.521,58.521,0,0,1,81.0892,124.8711Zm10.2159,2.3359-.0425,5.8741c-.8731.5771-4.4693,1.4794-10.2588,1.46-5.7681-.0508-9.3682-1.0488-10.2315-1.6416l.0425-5.8779a64.7936,64.7936,0,0,0,10.2481.85q.3427.0029.684.0029A63.97,63.97,0,0,0,91.3051,127.207ZM97.418,74.6089c-.0622,7.7666-.1258,15.7148-.18,22.5122a54.55,54.55,0,0,0-15.3894-2.208H80.5038a54.5689,54.5689,0,0,0-14.9761,2.0937c.1685-21.3886.4227-53.5727.4522-56.8994.01-1.1885,1.8828-4.43,7.1259-9.65a65.353,65.353,0,0,1,8.44-7.2744c3.3115,1.8858,16.18,13.63,16.1479,17.2051-.0154,1.7539-.14,17.2666-.2719,33.7363a1.4972,1.4972,0,0,0-.0284.26A1.9969,1.9969,0,0,0,97.418,74.6089ZM80.5038,97.9131h1.3447A51.4905,51.4905,0,0,1,97.213,100.249c-.0488,6.1016-.0876,10.9629-.1073,13.4239l-31.707-.28c.0217-2.7617.0589-7.4888.1044-13.2637A51.5187,51.5187,0,0,1,80.5038,97.9131ZM94.26,133.4414l.05-6.831c3.7735-.9307,5.6427-2.2676,5.6593-4.0879l.0511-5.8238,18.6562.1651a56.1141,56.1141,0,0,0-11.675,32.2954,29.26,29.26,0,0,0-15.514-12.8965C92.9457,135.7388,94.2469,134.8989,94.26,133.4414Zm5.846-19.7422c.0185-2.32.0542-6.7832.0991-12.4053A51.1991,51.1991,0,0,1,118.1512,112.95l.9163.9165Zm.1247-15.6118c.0406-5.07.0867-10.8345.1338-16.72,3.5037,6.6733,9.4649,16.64,14.3411,24.6084A53.8167,53.8167,0,0,0,100.23,98.0874Zm-52.9785,8.1973c5.1435-8.0484,11.6563-18.47,15.4024-25.3379-.0471,5.9648-.0933,11.831-.1341,17.0068A53.8149,53.8149,0,0,0,47.2518,106.2847Zm15.2431-5.1255c-.0417,5.2949-.0758,9.6147-.0961,12.207l-18.4509-.1626.2531-.2534A51.1742,51.1742,0,0,1,62.4949,101.1592ZM35.842,136.8535l-5.2841-10.4121c.7945-.7036,1.5749-1.4224,2.3243-2.1719l8.092-8.0923,21.3317.1885-.0516,5.8238c-.0161,1.8168,1.8228,3.1845,5.5649,4.1816l-.05,6.8369c-.0132,1.5064,1.4844,2.49,3.5059,3.1328A29.245,29.245,0,0,0,54.14,152.9922,32.9765,32.9765,0,0,1,35.842,136.8535Zm74.1134,14.3291a53.1155,53.1155,0,0,1,12.366-34.062L129.47,124.27c.8893.89,1.82,1.74,2.7731,2.5645l-5.0849,10.0195a32.9471,32.9471,0,0,1-17.1612,15.69C109.9855,152.09,109.9554,151.6353,109.9554,151.1826Z"/>
        <path class="cls-2" d="M125.5677,83h2.5v2.5a1.5,1.5,0,0,0,3,0V83h2.5a1.5,1.5,0,0,0,0-3h-2.5V77.5a1.5,1.5,0,0,0-3,0V80h-2.5a1.5,1.5,0,0,0,0,3Z"/>
      </g>
    </g>
  </g>
</svg>