<?xml version="1.0" encoding="utf-8"?>
<svg xmlns="http://www.w3.org/2000/svg" width="163.0001" height="163" viewBox="0 0 163.0001 163">
  <defs>
    <style>.cls-1{opacity:0.65;}.cls-2{fill:#fff;}</style>
  </defs>
  <g id="Layer_2" data-name="Layer 2">
    <g id="Layer_1-2" data-name="Layer 1">
      <g class="cls-1">
        <path class="cls-2" d="M118.85,78.917a7.5,7.5,0,1,0-7.5-7.5A7.5083,7.5083,0,0,0,118.85,78.917Zm0-12a4.5,4.5,0,1,1-4.5,4.5A4.5049,4.5049,0,0,1,118.85,66.917Z"/>
        <path class="cls-2" d="M163,81.5c0-1.2261-.0379-2.4492-.0928-3.67a81.0117,81.0117,0,0,0-10.49-36.4761c-.09-.1587-.1822-.3169-.2733-.4751-.4632-.8037-.9333-1.6025-1.4229-2.3887l-.0034-.0058-.269-.4317-.01-.0039A81.6971,81.6971,0,0,0,107.7186,4.3354c-.1916-.0654-.383-.1308-.5751-.1948q-3.1475-1.043-6.4022-1.8344-.8872-.2161-1.7821-.4117c-.49-.1069-.9789-.2187-1.4726-.3169-1.0218-.2041-2.0515-.3857-3.0866-.5512C94.0048.9639,93.6078.9072,93.2108.85Q91.8013.6466,90.377.49c-.2378-.0258-.4735-.0581-.712-.082C88.492.291,87.31.2056,86.1229.1387q-.455-.0249-.911-.0445C83.9807.0386,82.7449,0,81.5,0h0A81.5,81.5,0,0,0,0,81.5l0,.0063c0,1.25.0378,2.4913.0943,3.7281.0114.2544.0208.5093.0347.7632q.0939,1.7065.2582,3.3945c.0346.36.0751.7192.1144,1.0781q.1519,1.3732.3472,2.7324c.0864.6.1842,1.1963.2835,1.792.1.5923.2038,1.1831.3163,1.771a80.8843,80.8843,0,0,0,7.4554,21.7617l-.0007.0039.2344.4532.0107.02a81.4874,81.4874,0,0,0,5.7546,9.4473c.084.12.169.2378.2536.3569q.9426,1.3191,1.9341,2.5991c.3369.4361.6754.87,1.02,1.2984.301.372.6028.7431.91,1.11q.9834,1.1778,2.0057,2.3154c.1367.1509.2762.2994.414.45A81.1165,81.1165,0,0,0,46.11,154.9346c.0295.0141.0587.0288.0883.0429q1.6289.7823,3.2942,1.4893.2971.1275.5957.2515c1.0343.4311,2.0764.8452,3.13,1.2338.2711.1006.5453.1939.8178.2916q1.28.4563,2.5771.872.6294.2014,1.2627.3941,1.2184.3669,2.4514.6958c.4562.1225.912.2446,1.3713.3593q1.3377.3333,2.69.6211c.52.1109,1.0419.2144,1.5652.3155q1.0572.2036,2.1227.3789a81.715,81.715,0,0,0,9.7157,1.0258c1.2315.0557,2.4664.0938,3.7081.0938h.0162A81.5,81.5,0,0,0,163,81.5ZM77.8287,91.5586l-4.7666,4.7666a9.5477,9.5477,0,0,0-1.5811-.1406,9.4381,9.4381,0,0,0-6.7173,2.7822l-22.41,22.4111V62.1826A102.3436,102.3436,0,0,1,87.8713,37.2363a38.2848,38.2848,0,0,0-4.1579,3.0576,37.7021,37.7021,0,0,0-5.8847,51.2647ZM44.2574,123.7158l22.6274-22.6279a6.5116,6.5116,0,0,1,7.8-1.0518c.0368.0215.0731.043.1093.0645a6.55,6.55,0,0,1,.5528.3682c.0453.0332.0916.0654.1363.1a5.9169,5.9169,0,0,1,1.1112,1.11c.0372.0479.0707.0967.1063.1445.129.1758.2506.3555.3614.543.0229.0391.0462.0772.0682.1162a6.5085,6.5085,0,0,1-1.0531,7.7979L53.45,132.9082a6.5,6.5,0,0,1-9.1924-9.1924ZM77.3186,98.1982c-.0625-.0478-.1265-.0937-.19-.1406a9.2619,9.2619,0,0,0-.9029-.5957c-.012-.0068-.0227-.0166-.0346-.0234l3.5337-3.5342.0211.0225q.7923.9052,1.6324,1.75c.0325.0332.0644.0664.097.0986.5771.5771,1.1642,1.1416,1.7729,1.6767l-3.521,3.5206c-.01-.0186-.0244-.0342-.035-.0528a9.525,9.525,0,0,0-.5821-.8808c-.048-.0645-.0948-.13-.1446-.1944a9.5372,9.5372,0,0,0-.7671-.8779A9.6728,9.6728,0,0,0,77.3186,98.1982Zm4.96-5.9365c-.023-.0263-.0457-.0517-.0684-.0771q-.6244-.7017-1.2149-1.4366l-.0029-.0039-.5007-.625A34.72,34.72,0,0,1,108.04,34.3486q1.451,0,2.9151.1211a34.7171,34.7171,0,0,1,.0805,69.1914h-4.6816V97.74c.5985.0362,1.1969.0733,1.792.0733a28.8536,28.8536,0,1,0-4.792-.4014v6.044a34.3886,34.3886,0,0,1-16.6323-7.0254l-.3121-.25q-.7357-.59-1.442-1.2246c-.0125-.0108-.0248-.0235-.0375-.0342q-.6778-.6109-1.3266-1.2608c-.0316-.0312-.0625-.0634-.0938-.0947Q82.879,92.9307,82.2784,92.2617Zm23.6992,2.4619a25.7439,25.7439,0,0,1,2.1006-51.4c.707,0,1.4209.0293,2.1377.0889a25.7431,25.7431,0,1,1-4.2383,51.3115Zm.376,29.9268V106.7412c.6037.0283,1.2065.0459,1.8071.0459,1.0145,0,2.0233-.0459,3.0263-.126h39.3745a73.4742,73.4742,0,0,1-104,39.4893h38.292A21.5242,21.5242,0,0,0,106.3536,124.65Zm16.7956-20.9893a37.8543,37.8543,0,0,0,9.3313-5.8183,37.7138,37.7138,0,0,0-8.7569-63.0987A102.4715,102.4715,0,0,1,140.7,38.002a73.3611,73.3611,0,0,1,10.8791,65.6591ZM81.5,8a73.3536,73.3536,0,0,1,56.089,26.0747A105.7938,105.7938,0,0,0,42.3536,58.0938V19.3384A73.0369,73.0369,0,0,1,81.5,8ZM8,81.5A73.45,73.45,0,0,1,39.3536,21.3389V60.8965A104.9652,104.9652,0,0,0,12.0378,105.48,73.15,73.15,0,0,1,8,81.5Zm5.814,28.6465A101.97,101.97,0,0,1,39.3536,65.14v63.71h.026a9.4921,9.4921,0,0,0,16.1913,6.18l22.6274-22.6279a9.4358,9.4358,0,0,0,2.7822-6.7168,9.6137,9.6137,0,0,0-.14-1.5821l4.7585-4.7587a37.3815,37.3815,0,0,0,17.7547,7.1367v18.17a18.5207,18.5207,0,0,1-18.5,18.5H41.5562A73.9358,73.9358,0,0,1,13.814,110.1465Z"/>
      </g>
    </g>
  </g>
</svg>