<?xml version="1.0" encoding="utf-8"?>
<svg xmlns="http://www.w3.org/2000/svg" width="162.9945" height="163" viewBox="0 0 162.9945 163">
  <defs>
    <style>.cls-1{fill:#fff;opacity:0.65;}</style>
  </defs>
  <g id="Layer_2" data-name="Layer 2">
    <g id="Layer_1-2" data-name="Layer 1">
      <path class="cls-1" d="M162.9136,80.2285a11.3476,11.3476,0,0,0-1.154-3.88l-27.1079-53.416A41.9247,41.9247,0,0,0,97.2983,0H65.7018A41.9417,41.9417,0,0,0,28.3363,22.9326L1.2279,76.3486A11.38,11.38,0,0,0,0,81.5c0,.0313.0051.0625.0054.0938A11.377,11.377,0,0,0,1.2279,86.65l27.1084,53.417A41.9437,41.9437,0,0,0,65.7018,163H97.2983a41.9278,41.9278,0,0,0,37.3534-22.9326L161.76,86.65a11.3566,11.3566,0,0,0,1.1539-3.8779A10.0373,10.0373,0,0,0,162.9136,80.2285Zm-30.3836,46.04-7.9111-7.9107a53.4743,53.4743,0,0,0,14.818-35.456h15.1014ZM35.1127,81.3428A50.4856,50.4856,0,0,1,48.7864,46.7666l6.4408,6.4414a41.3962,41.3962,0,0,0,.0493,56.4385L48.8933,116.03A50.4848,50.4848,0,0,1,35.1127,81.3428Zm11.66,36.8076L33.2256,131.6982l-25-49.2627a2.047,2.047,0,0,1,0-1.871L33.2579,31.2383,46.666,44.6465a53.5393,53.5393,0,0,0,.1069,73.5039Zm70.87-35.249h6.462A38.35,38.35,0,0,1,113.84,107.5781L93.473,87.2119a11.4186,11.4186,0,0,0,1.67-5.9512V63.8174A2.5,2.5,0,0,0,90.8754,62.05L79.5931,73.3311,59.4662,53.2041A38.3464,38.3464,0,0,1,84.1429,42.94v6.5341a1.5,1.5,0,1,0,3,0V42.94a38.5388,38.5388,0,0,1,36.962,36.9619h-6.462a1.5,1.5,0,0,0,0,3Zm-32,29a1.5,1.5,0,0,0-1.5,1.5v6.4619A38.54,38.54,0,0,1,47.181,82.9014h6.4619a1.5,1.5,0,0,0,0-3H47.181A38.3453,38.3453,0,0,1,57.3475,55.3281L77.7383,75.7188a11.4183,11.4183,0,0,0-1.5949,5.8271l.001,17.4414a2.4991,2.4991,0,0,0,4.2676,1.7676L91.5931,89.5742l20.123,20.1221a38.35,38.35,0,0,1-24.5732,10.167v-6.4619A1.5,1.5,0,0,0,85.6429,111.9014Zm-4.01-36.3672,10.51-10.51V81.2607a8.4467,8.4467,0,0,1-2.4892,6.0108L79.1444,97.78l-.001-16.2344a8.4447,8.4447,0,0,1,2.49-6.0117Zm4.01-35.6328A41.3365,41.3365,0,0,0,57.3458,51.084L50.9,44.6387a50.5442,50.5442,0,0,1,69.5822-.1973l-6.5942,6.5928A41.3375,41.3375,0,0,0,85.6429,39.9014ZM57.3976,111.7676a41.3967,41.3967,0,0,0,56.4388.05l6.5337,6.5332a50.5478,50.5478,0,0,1-69.358-.1973Zm58.5624-2.0694a41.3945,41.3945,0,0,0,.0492-56.5429l6.5964-6.5957a50.546,50.546,0,0,1-.1071,69.6777Zm11.1981-83.5517,27.28,53.7549H139.44a53.7259,53.7259,0,0,0-52.297-52.2071V8H97.2983A33.24,33.24,0,0,1,127.1581,26.1465ZM84.1429,27.7021A53.4756,53.4756,0,0,0,48.78,42.5176L34.686,28.4238l1.156-2.2773A33.2393,33.2393,0,0,1,65.7018,8H84.1429ZM35.8419,136.8535l-1.1882-2.3413,14.2381-14.2388a53.5375,53.5375,0,0,0,73.5986.1973l8.6115,8.6113-3.9438,7.7715A33.2393,33.2393,0,0,1,97.2983,155H65.7018A33.2391,33.2391,0,0,1,35.8419,136.8535Z"/>
    </g>
  </g>
</svg>