<?xml version="1.0" encoding="utf-8"?>
<svg xmlns="http://www.w3.org/2000/svg" width="163" height="163" viewBox="0 0 163 163">
  <defs>
    <style>.cls-1{fill:#fff;opacity:0.65;}</style>
  </defs>
  <g id="Layer_2" data-name="Layer 2">
    <g id="Layer_1-2" data-name="Layer 1">
      <path class="cls-1" d="M81.5,0A81.5,81.5,0,1,0,163,81.5,81.5,81.5,0,0,0,81.5,0ZM55.7568,44.877a3.45,3.45,0,0,1,3.086-1.8487H84V64H66.2842L55.93,48.47A3.4492,3.4492,0,0,1,55.7568,44.877ZM51.5,40a2.5,2.5,0,0,1,0-5H84v5ZM84,67V77.2158a18.7141,18.7141,0,0,1-.1816,2.4619A8.645,8.645,0,0,1,81.5,80a8.3731,8.3731,0,0,1-7.0723-3.7852L68.2842,67ZM71.9316,77.8789a11.4809,11.4809,0,0,0,3.9329,3.6353,11.4767,11.4767,0,0,0-3.9329,3.6342L53.4341,112.8945a6.4448,6.4448,0,0,0-1.0928,3.6431l-.0425.0425.0513.397a6.446,6.446,0,0,0,.2822,1.4116c.0191.063.0359.1255.0564.1875a6.7663,6.7663,0,0,0,.343.8144c.0933.1905.2.3682.3106.5464.0129.021.0259.0425.039.063a18.52,18.52,0,0,1-18.5-18.5V67H64.6787ZM51.5,123H68v5H51.5a2.5,2.5,0,0,1,0-5Zm7.3428-3a3.6968,3.6968,0,0,1-.5484-.0449c-.0778-.0117-.1538-.03-.23-.0469-.0921-.0195-.1827-.042-.27-.0688s-.177-.0577-.2632-.0918c-.0686-.0274-.1345-.0581-.2-.0894-.0865-.0415-.1731-.0825-.2556-.1309-.0691-.04-.1331-.0864-.1985-.1313-.0684-.0464-.1387-.09-.2036-.1421a3.6005,3.6005,0,0,1-1.1485-1.6562l5.8228-5.8233a28.589,28.589,0,0,1,6.8991-5.0893A21.7136,21.7136,0,0,0,68,109.7842V120Zm.3833-10.3467-.0772.0772,15.2788-22.918A8.3722,8.3722,0,0,1,81.5,83.0283a8.73,8.73,0,0,1,1.5042.1441,18.4087,18.4087,0,0,1-4.4227,7.1255L74.2974,94.582a21.3749,21.3749,0,0,0-5.1792,8.39A31.319,31.319,0,0,0,59.2261,109.6533ZM71,123h40.5a2.5,2.5,0,0,1,0,5H71Zm35.3271-3.7461c-.0649.0518-.1352.0957-.2036.1421-.0654.0449-.1294.0908-.1985.1313-.0825.0484-.1691.0894-.2556.1309-.0659.0313-.1318.062-.2.0894-.0862.0341-.1741.0644-.2632.0918-.0876.0268-.1782.0493-.27.0688-.0761.0171-.1521.0352-.23.0469a3.6968,3.6968,0,0,1-.5484.0449H71V109.7842a18.5754,18.5754,0,0,1,.5933-4.59,28.5444,28.5444,0,0,1,30.06,6.58l5.8228,5.8233A3.6005,3.6005,0,0,1,106.3271,119.2539Zm-2.5532-9.6006a31.5178,31.5178,0,0,0-30.8716-8.0166,18.49,18.49,0,0,1,3.5162-4.9336l4.2841-4.2842a21.3879,21.3879,0,0,0,5.1165-8.2148,8.4842,8.4842,0,0,1,2.7532,2.6084l15.2788,22.918ZM87,64V43.0283h17.1572A3.5,3.5,0,0,1,107.07,48.47L96.7158,64Zm7.7158,3-6.1435,9.2148a8.6467,8.6467,0,0,1-1.6111,1.7964c.01-.2661.0388-.5278.0388-.7954V67ZM87,40V35h24.5a2.5,2.5,0,0,1,0,5ZM81.5,8c.8384,0,1.6683.0354,2.5.0635V32H51.5a5.5,5.5,0,0,0,0,11h1.8992c-.0977.1519-.2007.2988-.2874.4609a6.4067,6.4067,0,0,0,.3223,6.6729L62.6787,64H34.8818V24.72A73.1591,73.1591,0,0,1,81.5,8ZM31.8818,27.3306V64h-21.76A73.5473,73.5473,0,0,1,31.8818,27.3306ZM8,81.5A73.5478,73.5478,0,0,1,9.4432,67H31.8818v34.5a21.5319,21.5319,0,0,0,15.3157,20.584A5.4925,5.4925,0,0,0,51.5,131H68v22.7358A73.6072,73.6072,0,0,1,8,81.5ZM71,131h64.7822A73.2931,73.2931,0,0,1,71,154.238Zm67.3729-3h-21.98a5.49,5.49,0,0,0-4.8928-8h-1.8789c.0207-.0327.0391-.0669.06-.1.0683-.1118.145-.2158.2075-.333.0488-.0913.082-.1861.1262-.2783.0544-.1133.1077-.2266.1555-.3433.0552-.1343.1057-.2681.1516-.4038.0235-.07.043-.1421.064-.2129a6.4318,6.4318,0,0,0,.2644-1.352l.0513-.397-.0425-.0425a6.4448,6.4448,0,0,0-1.0928-3.6431L91.0684,85.1484a11.4767,11.4767,0,0,0-3.9329-3.6342,11.4809,11.4809,0,0,0,3.9329-3.6353L98.3213,67h17.0605a28.5324,28.5324,0,0,1,28.5,28.5v24.804A73.9163,73.9163,0,0,1,138.3729,128ZM115.3818,64H100.3213l9.2446-13.8662a6.4067,6.4067,0,0,0,.3223-6.6729c-.0867-.1621-.19-.309-.2874-.4609H111.5a5.5,5.5,0,0,0,0-11H87V8.2273a73.4257,73.4257,0,0,1,59.8818,106.7849V95.5A31.5357,31.5357,0,0,0,115.3818,64Z"/>
    </g>
  </g>
</svg>