<?xml version="1.0" encoding="utf-8"?>
<svg xmlns="http://www.w3.org/2000/svg" width="162.9894" height="163" viewBox="0 0 162.9894 163">
  <defs>
    <style>.cls-1{fill:#fff;opacity:0.65;}</style>
  </defs>
  <g id="Layer_2" data-name="Layer 2">
    <g id="Layer_1-2" data-name="Layer 1">
      <path class="cls-1" d="M162.9085,80.228a11.3485,11.3485,0,0,0-1.1542-3.8794l-27.1079-53.416A41.9262,41.9262,0,0,0,97.2932,0H65.6967A41.9424,41.9424,0,0,0,28.331,22.9326L1.2226,76.3486A11.38,11.38,0,0,0,0,81.4121c-.0008.09.0038.18.0055.27A11.3714,11.3714,0,0,0,1.2226,86.65l27.1084,53.417A41.9422,41.9422,0,0,0,65.6967,163H97.2932a41.9275,41.9275,0,0,0,37.3532-22.9326L161.7543,86.65a11.3477,11.3477,0,0,0,1.1542-3.8784A10.0373,10.0373,0,0,0,162.9085,80.228Zm-79.92,73.2788.0007-.0068v-3a7.5082,7.5082,0,0,1,7.5-7.5h3a1.5,1.5,0,0,0,0-3h-3a7.5082,7.5082,0,0,1-7.5-7.5v-3a1.5,1.5,0,0,0-3,0v3a7.5083,7.5083,0,0,1-7.5,7.5h-3a1.5,1.5,0,0,0,0,3h3a7.5083,7.5083,0,0,1,7.5,7.5v2.9932L79.9818,155H65.6967a33.2394,33.2394,0,0,1-29.86-18.1465L8.2206,82.436a2.0474,2.0474,0,0,1,0-1.8715l2.38-4.691L27.59,73.8594l7.5354,6.9682,0,.0005L51.5567,96.0225a6.54,6.54,0,0,1,1.9618,6.039l-6.4966,32.6953a1.4995,1.4995,0,0,0,2.2041,1.6006l29.0874-16.2822a6.5434,6.5434,0,0,1,6.3495,0l1.8264,1.022,10.1027,5.6552.0021.0015,27.2815,15.2715A33.3424,33.3424,0,0,1,97.2932,155H82.982l.0067-1.4932Zm-1.4993-8.41A10.5823,10.5823,0,0,0,77.8925,141.5a10.5823,10.5823,0,0,0,3.5962-3.5967A10.5823,10.5823,0,0,0,85.0849,141.5,10.5823,10.5823,0,0,0,81.4887,145.0967Zm45.6644-118.95,13.1046,25.8223A42.5419,42.5419,0,0,1,98.9887,9.5c0-.48.0115-.9609.0284-1.4414A33.1786,33.1786,0,0,1,127.1531,26.1465ZM141.4887,55c.1007,0,.2014-.0093.3022-.01L154.7693,80.564a2.0474,2.0474,0,0,1,0,1.8715l-27.6164,54.418c-.4738.9336-1.0016,1.8262-1.553,2.6992l-9.78-5.4741-6.3618-32.0171a6.5419,6.5419,0,0,1,1.9624-6.039L135.8949,73.39a1.5,1.5,0,0,0-.8418-2.5908L101.95,66.874a6.5434,6.5434,0,0,1-5.1372-3.7324L82.9883,33.17,82.96,8H96.0161c-.0167.5-.0274,1-.0274,1.5A45.5514,45.5514,0,0,0,141.4887,55ZM56.4037,96.418l-2.81-2.5987h0l-1.69-1.563L37.163,78.625h0L31.507,73.3945l28.22-3.3457.002-.0005,1.6518-.1958a9.56,9.56,0,0,0,7.5078-5.455l12.6-27.3164,12.6,27.3164a9.5606,9.5606,0,0,0,7.5078,5.455l29.874,3.542L109.3837,93.8193a9.561,9.561,0,0,0-2.8677,8.8262l5.8628,29.5059-26.25-14.6944-.0127-.0058L82.79,115.5889A138.6789,138.6789,0,0,1,56.4037,96.418Zm22.3,20.2695a9.3522,9.3522,0,0,0-1.8548.77h0l-26.25,14.6934,5.8627-29.5059a9.34,9.34,0,0,0,.16-2.001A141.7156,141.7156,0,0,0,78.7033,116.6875Zm1.285-83.5161L66.164,63.1416a6.542,6.542,0,0,1-5.1367,3.7324L27.9242,70.7988l-.0017.0005L12.2318,72.66,26.3748,44.791A22.2318,22.2318,0,0,1,35.1327,43h1.356a7.5083,7.5083,0,0,1,7.5,7.5v3a1.5,1.5,0,0,0,3,0v-3a7.5082,7.5082,0,0,1,7.5-7.5h3a1.5,1.5,0,0,0,0-3h-3a7.5082,7.5082,0,0,1-7.5-7.5v-3a1.5,1.5,0,1,0-3,0v3a7.5083,7.5083,0,0,1-7.5,7.5h-3a1.4893,1.4893,0,0,0-.5209.0981,25.3,25.3,0,0,0-4.6371.8389l7.5062-14.79A33.2393,33.2393,0,0,1,65.6967,8H79.96ZM41.8925,41.5a10.5823,10.5823,0,0,0,3.5962-3.5967A10.5823,10.5823,0,0,0,49.0849,41.5a10.5823,10.5823,0,0,0-3.5962,3.5967A10.5823,10.5823,0,0,0,41.8925,41.5Z"/>
    </g>
  </g>
</svg>