<svg version="1.1" id="Слой_1" xmlns="http://www.w3.org/2000/svg" xmlns:xlink="http://www.w3.org/1999/xlink" viewBox="0 0 80 80">
<path fill="#86898C" d="M72.43,63.37C77.19,56.79,80,48.72,80,40c0-5.34-1.06-10.43-2.97-15.1c-0.02-0.06-0.04-0.11-0.07-0.17
	C73.26,15.78,66.39,8.46,57.75,4.17c-0.09-0.05-0.17-0.1-0.26-0.13C52.2,1.45,46.27,0,40,0c-4.55,0-8.93,0.77-13.01,2.18
	c-0.08,0.02-0.16,0.05-0.23,0.08C14.74,6.49,5.34,16.29,1.68,28.56c-0.26,0.66-0.42,1.27-0.49,1.75c0,0,0,0.01,0,0.01
	C0.42,33.42,0,36.66,0,40c0,7.41,2.03,14.36,5.56,20.32c0.06,0.13,0.13,0.26,0.22,0.38C12.8,72.26,25.51,80,40,80
	c0.42,0,0.83-0.02,1.24-0.03c0.03,0,0.06,0.01,0.09,0.01c0.04,0,0.08-0.01,0.11-0.02c6.49-0.23,12.59-2.01,17.94-4.99
	c0.16-0.07,0.32-0.16,0.46-0.27c4.79-2.75,8.97-6.46,12.26-10.87C72.23,63.7,72.34,63.54,72.43,63.37z M71,57.08
	c-1.59-3.32-3.73-5.18-6.38-5.52c-0.71-0.09-1.42-0.06-2.14,0.06c-0.28-1.43-0.62-2.93-1.04-4.51c0.35-0.24,0.7-0.47,1.06-0.72
	c3.61-2.49,9.14-7.66,12.32-12.8c0.38,2.08,0.59,4.22,0.59,6.41C75.41,46.19,73.81,52.01,71,57.08z M72.68,26.38
	c0.5,3.11-6.08,11.53-12.62,16.11c-0.49-1.47-1.03-2.99-1.65-4.58c-0.17-0.44-0.35-0.86-0.52-1.29c0.47-0.35,0.92-0.72,1.35-1.11
	c3.4-3.12,5.2-7.44,5.21-12.48c0.01-3.25-0.73-6.78-2.19-10.54C66.79,16.16,70.4,20.93,72.68,26.38z M54.97,7.92
	c6.03,10.54,6.48,19.34,1.17,24.22c-0.03,0.03-0.07,0.06-0.11,0.09C48.69,15.88,40.53,8.39,34.88,4.97
	c1.67-0.24,3.38-0.38,5.12-0.38C45.35,4.59,50.42,5.79,54.97,7.92z M27.76,6.78c2.46,0.64,14.11,4.8,24.34,27.89
	c-7.46,3.13-18.68,1.19-27.88-5.33c-6.2-4.4-11.36-6.45-15.38-6.13C12.92,15.67,19.64,9.78,27.76,6.78z M6.01,30.11
	c0.28-0.67,0.83-1.59,1.88-2.04c1.54-0.67,5.37-0.9,13.68,5c6.22,4.42,13.48,7.1,20.44,7.56c0.72,0.05,1.42,0.07,2.12,0.07
	c3.59,0,6.88-0.63,9.73-1.82c0.09,0.23,0.19,0.45,0.28,0.69c0.76,1.96,1.41,3.82,1.96,5.58C39.13,56.18,27.45,59.11,20.49,59.56
	c-6.49,0.42-10.02-1.2-11.1-1.8C6.34,52.53,4.59,46.47,4.59,40C4.59,36.57,5.09,33.25,6.01,30.11z M13.88,63.88
	c1.32,0.2,2.81,0.32,4.5,0.32c8.24,0,20.97-2.92,39.01-14.42c0.32,1.31,0.58,2.56,0.78,3.74c-4.99,3.41-9.79,10.59-13.37,17
	c-1.39,2.48-3.34,4.17-4.24,4.88c-0.19,0-0.37,0.01-0.56,0.01C29.67,75.41,20.36,70.96,13.88,63.88z M56.89,71.12
	c-2.86,1.56-5.97,2.73-9.23,3.45c0.4-0.56,0.79-1.16,1.16-1.81c3.75-6.72,7.21-11.24,10.01-13.86C59.24,66.2,57.5,70.02,56.89,71.12
	z M63,66.89c0.47-2.73,0.67-6.27,0.18-10.72c0.3-0.06,0.59-0.09,0.85-0.06c1.46,0.19,2.82,2.21,3.85,5.68
	C66.43,63.64,64.79,65.35,63,66.89z"/>
</svg>
