<svg version="1.1" id="Слой_1" xmlns="http://www.w3.org/2000/svg" xmlns:xlink="http://www.w3.org/1999/xlink" viewBox="0 0 80 80">
<path fill="#86898C" d="M65.89,75.94h-2.72v-6.65c0-1.12-0.91-2.03-2.03-2.03h-8.2c0.01-0.21,0.02-0.43,0.02-0.64
	c0-1-0.14-1.96-0.39-2.88c7.07-3.96,11.56-11.49,11.56-19.68c0-10.02-6.6-18.78-16.15-21.6c-0.89-1.11-2.05-1.98-3.39-2.51l1.2-3.06
	c0.19-0.5,0.18-1.06-0.03-1.55c-0.22-0.49-0.62-0.88-1.12-1.08l-1.05-0.41l0.63-1.61l1.06,0.42c0.24,0.09,0.49,0.14,0.74,0.14
	c0.27,0,0.55-0.06,0.8-0.16c0.49-0.22,0.88-0.62,1.08-1.12l1.85-4.69c0.42-1.04-0.1-2.22-1.14-2.63L38.35,0.15
	c-1.04-0.41-2.22,0.1-2.63,1.14l-1.85,4.69c-0.42,1.04,0.1,2.22,1.14,2.63l1.03,0.41l-0.63,1.6l-1.04-0.41
	c-1.04-0.42-2.22,0.1-2.63,1.14L23.45,32.4c-0.06,0.15-0.09,0.31-0.11,0.47l-0.98,6.92c-0.13,0.93,0.4,1.83,1.27,2.17l7.24,2.85
	c0.24,0.09,0.49,0.14,0.74,0.14c0.65,0,1.28-0.31,1.67-0.85l4.01-5.74c0.11-0.15,0.19-0.32,0.25-0.5l1.07-2.71
	c0.93,0.37,1.93,0.57,2.99,0.57c1.62,0,3.13-0.48,4.4-1.29c3.73,1.7,6.18,5.45,6.18,9.62c0,5.84-4.74,10.59-10.58,10.59
	c-3.59,0-6.83-1.79-8.76-4.65h5.12c1.12,0,2.03-0.91,2.03-2.03c0-1.12-0.91-2.03-2.03-2.03H21.53c-0.04,0-0.08,0-0.13,0h-7.29
	c-1.12,0-2.03,0.91-2.03,2.03c0,1.12,0.91,2.03,2.03,2.03h5.73c1.63,5.97,5.65,11.01,11.12,13.93c-0.21,0.86-0.34,1.76-0.34,2.69
	c0,0.21,0.01,0.43,0.02,0.64h-8.41c-1.12,0-2.03,0.91-2.03,2.03v6.65h-2.67c-1.12,0-2.03,0.91-2.03,2.03S16.41,80,17.53,80h48.36
	c1.12,0,2.03-0.91,2.03-2.03S67.01,75.94,65.89,75.94z M38.75,4.67l6.49,2.56l-0.36,0.91l-6.49-2.56L38.75,4.67z M40.47,10.76
	l-0.63,1.59L39.2,12.1l0.63-1.59l0.33,0.13L40.47,10.76z M34.79,14.72l1,0.39c0.01,0,0.02,0.01,0.03,0.02l4.42,1.74c0,0,0,0,0,0
	l1.04,0.41l-0.86,2.18c-3.96,0.57-7.01,3.97-7.01,8.09c0,1.94,0.68,3.72,1.81,5.12l-0.74,1.88l-6.49-2.56L34.79,14.72z M30.86,40.44
	l-4.26-1.68l0.4-2.79l2.74,1.08l2.74,1.08L30.86,40.44z M37.47,27.55c0-2.27,1.85-4.12,4.12-4.12c1.39,0,2.61,0.7,3.36,1.75
	c0.03,0.06,0.07,0.11,0.1,0.16c0.41,0.64,0.66,1.39,0.66,2.21c0,2.27-1.85,4.12-4.12,4.12C39.32,31.67,37.47,29.82,37.47,27.55z
	 M56.23,44.06c0-5.33-2.89-10.15-7.4-12.72c0.6-1.13,0.94-2.42,0.94-3.79c0-0.02,0-0.04,0-0.06c6.21,3.06,10.3,9.42,10.3,16.57
	c0,6.63-3.58,12.73-9.25,16.01c-0.8-1.1-1.79-2.05-2.94-2.8C52.81,54.91,56.23,49.88,56.23,44.06z M24.08,50h4.12
	c1.47,3.33,4.1,5.93,7.31,7.39c-1.12,0.76-2.09,1.73-2.87,2.84C28.6,57.99,25.55,54.35,24.08,50z M34.67,66.63
	c0-3.92,3.19-7.11,7.11-7.11c3.92,0,7.11,3.19,7.11,7.11c0,0.21-0.03,0.42-0.05,0.63H34.72C34.7,67.05,34.67,66.84,34.67,66.63z
	 M24.26,71.32h34.85v4.62H24.26V71.32z"/>
</svg>
