<svg version="1.1" id="Слой_1" xmlns="http://www.w3.org/2000/svg" xmlns:xlink="http://www.w3.org/1999/xlink" viewBox="0 0 80 80">
<path fill="#86898C" d="M69.39,17.6L66.83,1.53c-0.11-0.66-0.57-1.21-1.2-1.43C65-0.12,64.3,0.03,63.81,0.48L51.84,11.51
	C51.3,12,50.9,12.62,50.66,13.3L41.71,39L29.66,6.9c-0.17-0.46-0.51-0.82-0.95-1.02s-0.94-0.22-1.39-0.05l-15.59,5.86
	c-0.94,0.35-1.41,1.4-1.06,2.34l10.01,26.62h-2.85c-1.01,0-1.82,0.81-1.82,1.82c0,1.01,0.82,1.82,1.82,1.82h2.15l4.59,34.14
	c0,0.01,0.01,0.03,0.01,0.04c0.01,0.07,0.03,0.13,0.04,0.19c0.01,0.05,0.03,0.11,0.05,0.16c0.02,0.05,0.04,0.1,0.06,0.14
	c0.03,0.06,0.06,0.12,0.1,0.17c0.02,0.04,0.05,0.07,0.07,0.11c0.04,0.06,0.09,0.11,0.14,0.17c0.03,0.03,0.05,0.06,0.08,0.09
	c0.05,0.05,0.11,0.1,0.17,0.14c0.03,0.02,0.06,0.05,0.1,0.07c0.06,0.04,0.12,0.07,0.19,0.1c0.04,0.02,0.07,0.04,0.11,0.06
	c0.07,0.03,0.14,0.05,0.22,0.07c0.04,0.01,0.07,0.02,0.11,0.03c0.11,0.02,0.23,0.04,0.35,0.04h30.1c0.12,0,0.24-0.01,0.35-0.04
	c0.04-0.01,0.07-0.02,0.11-0.03c0.08-0.02,0.15-0.04,0.22-0.07c0.04-0.01,0.07-0.03,0.1-0.05c0.07-0.03,0.14-0.07,0.2-0.11
	c0.03-0.02,0.05-0.04,0.08-0.06c0.07-0.05,0.13-0.1,0.19-0.16c0.02-0.02,0.04-0.04,0.06-0.06c0.06-0.06,0.11-0.13,0.16-0.2
	c0.02-0.03,0.03-0.05,0.05-0.08c0.04-0.07,0.08-0.14,0.11-0.21c0.02-0.04,0.03-0.07,0.05-0.11c0.02-0.06,0.04-0.12,0.06-0.19
	c0.02-0.06,0.03-0.11,0.04-0.17c0-0.02,0.01-0.03,0.01-0.05l4.59-34.13h2.15c1,0,1.82-0.81,1.82-1.82c0-1.01-0.82-1.82-1.82-1.82
	h-3.09l7.28-20.91C69.44,19.05,69.5,18.31,69.39,17.6z M49.98,40.65l8.38-24.09l2.75,0.96l-8.05,23.13H49.98z M58.02,13.88
	c-0.01,0-0.01-0.01-0.01-0.01c-0.01,0-0.01,0-0.02,0l-2.44-0.85L60,8.93l4.59,1.6l0.95,5.96L58.02,13.88z M64.15,7.81l-2.13-0.74
	l1.76-1.62L64.15,7.81z M53.91,15.01l2.16,0.75l-8.66,24.89h-2.43L53.91,15.01z M26.91,9.87l11.56,30.78H27.58l2.37-0.93
	c0.62-0.24,0.92-0.95,0.68-1.57c-0.24-0.62-0.95-0.93-1.57-0.68l-4.96,1.95l-0.32-0.84l2.9-1.14c0.62-0.24,0.92-0.95,0.68-1.57
	s-0.95-0.93-1.57-0.68l-2.86,1.12l-0.37-0.97l5.03-1.98c0.62-0.24,0.92-0.95,0.68-1.57s-0.95-0.93-1.57-0.68l-4.99,1.97l-0.39-1.04
	l2.83-1.11c0.62-0.24,0.92-0.95,0.68-1.57s-0.95-0.92-1.57-0.68l-2.79,1.1l-0.46-1.23L25,26.58c0.62-0.24,0.92-0.95,0.68-1.57
	s-0.95-0.92-1.57-0.68l-4.95,1.94l-0.43-1.16l2.77-1.08c0.62-0.24,0.92-0.95,0.68-1.57s-0.95-0.92-1.57-0.68l-2.73,1.07l-0.46-1.22
	l4.94-1.94c0.62-0.24,0.92-0.95,0.68-1.57c-0.24-0.62-0.95-0.93-1.57-0.68l-4.9,1.93l-1.85-4.92L26.91,9.87z M42.32,44.29
	c0.09,0.01,0.19,0.01,0.28,0h16.6l-0.81,5.99H24.45l-0.81-5.99H42.32z M27.96,76.36l-0.81-5.99h28.54l-0.81,5.99H27.96z
	 M56.18,66.73H26.66l-0.62-4.59h30.75L56.18,66.73z M57.28,58.5H25.56l-0.62-4.58H57.9L57.28,58.5z M55.63,40.65l7.77-22.34
	l2.19,0.76l-7.51,21.57H55.63z"/>
</svg>
