<svg version="1.1" id="Слой_1" xmlns="http://www.w3.org/2000/svg" xmlns:xlink="http://www.w3.org/1999/xlink" viewBox="0 0 80 80">
<path fill="#86898C" d="M62.51,27.8h-2.24H47.3h-2.24c-0.45,0-0.86,0.15-1.2,0.39v-6.73h0.75c1.14,0,2.07-0.92,2.06-2.07
		c0-1.14-0.93-2.07-2.07-2.07H26.01c-1.14,0-2.07,0.93-2.07,2.07c0,1.14,0.93,2.07,2.07,2.07h0.75v20.69
		c-0.01,0.01-0.02,0.01-0.04,0.02c-0.16,0.08-0.32,0.16-0.48,0.24c-0.27,0.14-0.54,0.27-0.8,0.42c-0.2,0.11-0.4,0.24-0.59,0.36
		c-0.2,0.13-0.41,0.25-0.61,0.38c-0.22,0.15-0.44,0.3-0.65,0.46c-0.16,0.12-0.32,0.23-0.48,0.35c-0.23,0.18-0.46,0.36-0.68,0.55
		c-0.13,0.11-0.25,0.21-0.38,0.32c-0.24,0.21-0.47,0.42-0.69,0.64c-0.1,0.09-0.19,0.19-0.28,0.28c-0.24,0.24-0.47,0.49-0.7,0.75
		c-0.07,0.08-0.13,0.15-0.2,0.23c-0.24,0.28-0.48,0.57-0.7,0.86c-0.04,0.05-0.07,0.09-0.1,0.14c-1.85,2.47-3.12,5.36-3.66,8.48
		c0,0.03-0.01,0.05-0.01,0.08c-0.07,0.4-0.12,0.8-0.16,1.2c-0.01,0.05-0.02,0.11-0.02,0.16c0,0.01,0,0.02,0,0.03
		c-0.07,0.66-0.11,1.32-0.11,2C15.42,71.08,24.34,80,35.31,80c4.15,0,8.12-1.3,11.46-3.66c1.57,2.24,4.16,3.66,7.01,3.66
		c4.72,0,8.55-3.84,8.56-8.56v-39.5h0.17c1.14,0,2.07-0.93,2.07-2.07S63.65,27.8,62.51,27.8z M25.71,63.59
		c-1.59,0-2.87-1.29-2.87-2.87c0-1.59,1.29-2.87,2.87-2.87c1.58,0,2.87,1.28,2.87,2.87C28.58,62.3,27.29,63.59,25.71,63.59z
		 M26.91,67.96c0,0.66-0.54,1.2-1.2,1.2c-0.66,0-1.2-0.54-1.2-1.2c0-0.66,0.54-1.2,1.2-1.2C26.37,66.76,26.91,67.29,26.91,67.96z
		 M34.94,62.48c2.55,0,4.62,2.07,4.62,4.62c0,2.55-2.07,4.62-4.62,4.62s-4.62-2.07-4.62-4.62C30.32,64.55,32.39,62.48,34.94,62.48z
		 M45.06,31.94h0.17v10.95c-0.45-0.26-0.9-0.5-1.37-0.73V31.55C44.2,31.79,44.61,31.94,45.06,31.94z M39.72,21.46V43.5
		c0,0.58,0.24,1.1,0.63,1.48c0.02,0.02,0.04,0.03,0.06,0.05c0.08,0.07,0.16,0.14,0.25,0.2c0.05,0.03,0.1,0.05,0.15,0.08
		c0.07,0.04,0.14,0.08,0.21,0.11c0.01,0,0.02,0.01,0.03,0.02c1.52,0.59,2.93,1.43,4.19,2.46v11.11c-1.94,0.21-4.13,0.01-5.69-0.57
		c-1.45-0.54-2.8-1.43-4.24-2.38c-1.74-1.14-3.53-2.33-5.68-3.01c-2.78-0.88-5.85-0.68-8.58,0.4c0.46-0.99,1.02-1.93,1.68-2.8
		c0.02-0.03,0.04-0.06,0.06-0.09c0.18-0.24,0.37-0.47,0.57-0.7c0.05-0.05,0.09-0.11,0.14-0.16c0.18-0.21,0.37-0.41,0.57-0.6
		c0.07-0.07,0.14-0.14,0.21-0.21c0.18-0.18,0.37-0.35,0.56-0.52c0.09-0.08,0.19-0.16,0.28-0.24c0.18-0.15,0.36-0.3,0.55-0.45
		c0.12-0.09,0.24-0.18,0.36-0.27c0.17-0.13,0.35-0.25,0.53-0.37c0.15-0.1,0.31-0.2,0.46-0.29c0.16-0.1,0.32-0.2,0.49-0.29
		c0.2-0.11,0.41-0.22,0.62-0.33c0.13-0.07,0.26-0.14,0.39-0.2c0.31-0.15,0.63-0.28,0.95-0.41c0.83-0.27,1.43-1.04,1.43-1.96V21.46
		H39.72z M58.2,71.45c0,2.44-1.99,4.42-4.42,4.42c-2,0-3.76-1.36-4.27-3.29c-0.09-0.36-0.14-0.74-0.14-1.13V60.73
		c0-0.05,0-0.1,0-0.15V31.94h5.48v8.37c0,0.76,0.62,1.38,1.38,1.38c0.76,0,1.38-0.62,1.38-1.37v-8.38h0.59V71.45z"/>
	<path fill="#86898C" d="M30.59,15.91c0.26,0.08,0.53,0.11,0.79,0.11c0.52,0,1.04-0.14,1.5-0.41c0.7-0.4,1.2-1.05,1.41-1.83
		c0.21-0.78,0.1-1.59-0.3-2.29c-0.4-0.7-1.05-1.2-1.83-1.41c-0.78-0.21-1.59-0.1-2.29,0.3s-1.2,1.05-1.41,1.83
		c-0.21,0.78-0.1,1.59,0.3,2.29C29.16,15.2,29.81,15.7,30.59,15.91z M30.3,12.71c0.07-0.29,0.26-0.53,0.52-0.68
		c0.17-0.1,0.36-0.15,0.56-0.15c0.1,0,0.19,0.01,0.29,0.04c0.29,0.07,0.53,0.26,0.68,0.52c0.15,0.26,0.19,0.57,0.11,0.85
		c-0.07,0.29-0.26,0.53-0.52,0.68c-0.26,0.15-0.57,0.19-0.85,0.11c-0.29-0.07-0.53-0.26-0.68-0.52
		C30.26,13.3,30.22,12.99,30.3,12.71z"/>
	<path fill="#86898C" d="M39.29,11.35c3.13,0,5.68-2.54,5.68-5.67S42.42,0,39.29,0s-5.68,2.54-5.68,5.67S36.16,11.35,39.29,11.35z
		 M39.29,4.14c0.85,0,1.54,0.69,1.54,1.54c0,0.85-0.69,1.54-1.54,1.54c-0.85,0-1.54-0.69-1.54-1.54
		C37.75,4.83,38.44,4.14,39.29,4.14z"/>
	<path fill="#86898C" d="M56.23,44.01c-0.76,0-1.38,0.62-1.38,1.38v25.3c0,0.76,0.62,1.38,1.38,1.38c0.76,0,1.38-0.61,1.38-1.37V45.39
		C57.61,44.63,56.99,44.01,56.23,44.01z"/>
</svg>
