<svg version="1.1" id="Слой_1" xmlns="http://www.w3.org/2000/svg" xmlns:xlink="http://www.w3.org/1999/xlink" viewBox="0 0 80 80">
<path fill="#86898C" d="M68.83,52.77c-0.85-0.85-2.22-0.85-3.07,0c-0.85,0.85-0.85,2.22,0,3.07l0.15,0.15
		c-9.44,8.3-22.7,10.62-35.13,6c-8.54-3.17-15.26-9.89-18.43-18.43c-4.62-12.44-2.3-25.7,6-35.14l0.1,0.1
		c0.85,0.85,2.22,0.85,3.07,0c0.85-0.85,0.85-2.22,0-3.07l-1.68-1.68c-0.85-0.85-2.22-0.85-3.07,0C6.05,14.49,2.8,30.32,8.28,45.07
		c3.61,9.73,11.26,17.38,20.99,20.99c3.32,1.23,6.68,2.01,10.04,2.38v2.05c-5.99,0.75-11.25,2.98-11.62,6.91
		c-0.03,0.14-0.05,0.29-0.05,0.44c0,1.2,0.97,2.17,2.17,2.17h28.4c0.45,0,0.87-0.14,1.21-0.37c0.58-0.39,0.96-1.05,0.96-1.8
		c0-0.15-0.02-0.3-0.05-0.44c-0.37-3.93-5.63-6.16-11.62-6.91v-2.14c8.17-1.07,15.83-4.73,21.86-10.75
		c0.41-0.41,0.64-0.96,0.64-1.54s-0.23-1.13-0.64-1.54L68.83,52.77z M52.3,75.66H35.74c2.31-0.72,5.21-1.12,8.28-1.12
		S49.99,74.94,52.3,75.66z M44.37,70.2c-0.12,0-0.24-0.01-0.36-0.01s-0.24,0.01-0.36,0.01v-1.52c0.24,0,0.48-0.01,0.72-0.02V70.2z"
		/>
	<path fill="#86898C" d="M22.24,8.75c-0.01,0.01-0.02,0.02-0.03,0.03c-0.03,0.03-0.07,0.05-0.09,0.08c-0.02,0.02-0.04,0.05-0.06,0.07
		c-0.04,0.04-0.07,0.08-0.11,0.12c-5.64,5.66-8.81,13.16-8.93,21.17c-0.01,0.42,0,0.83,0.01,1.24c0,0.04-0.01,0.08,0,0.12
		c0,0.01,0,0.01,0,0.02c0.22,7.67,3.25,14.88,8.63,20.43c0,0,0,0,0,0.01c0,0,0,0,0,0c0,0,0,0,0.01,0.01
		c5.7,5.88,13.36,9.18,21.55,9.3c0.15,0,0.3,0,0.46,0c7.94,0,15.43-3.01,21.17-8.51c0.03-0.02,0.05-0.04,0.08-0.06
		c0.04-0.03,0.07-0.06,0.1-0.09c0,0,0.01-0.01,0.02-0.01c0.01-0.01,0.02-0.02,0.02-0.03c0.02-0.02,0.05-0.05,0.07-0.07
		c0.02-0.02,0.04-0.03,0.05-0.05c0.01-0.02,0.03-0.03,0.05-0.05c5.61-5.54,8.81-12.87,9.07-20.74c0.02-0.14,0.03-0.29,0.02-0.43
		c0-0.06,0.01-0.11,0.01-0.17c0.12-8.18-2.95-15.93-8.65-21.8c0,0,0,0,0-0.01c0,0,0,0,0,0c0,0,0,0-0.01-0.01
		C59.97,3.42,52.31,0.12,44.12,0c-8.2-0.12-15.93,2.98-21.81,8.68c-0.02,0.02-0.03,0.03-0.05,0.05C22.25,8.74,22.25,8.75,22.24,8.75
		z M60.98,10.84l-7.63,7.41c-2.59-2.41-5.45-4.4-8.5-5.97c1.04-2.45,1.8-5.04,2.26-7.71C52.26,5.24,57.06,7.4,60.98,10.84z
		 M69.98,29.58c-2.45,0.44-4.83,1.13-7.1,2.06c-1.59-3.66-3.75-7.12-6.5-10.27l7.63-7.41C67.66,18.39,69.74,23.82,69.98,29.58z
		 M26.36,50.5l7.27-7.06c3.06,2.79,6.55,5.04,10.33,6.69c-0.95,2.17-1.67,4.45-2.16,6.8C36.06,56.53,30.68,54.29,26.36,50.5z
		 M17.48,33.33c2.5-0.36,4.95-1,7.3-1.88c1.49,3.18,3.44,6.17,5.82,8.89l-7.26,7.05C20.02,43.36,17.99,38.5,17.48,33.33z
		 M35.2,25.32l5.3,5.4l-6.79,6.59c-2.02-2.35-3.69-4.91-4.97-7.64C31.04,28.47,33.21,27.01,35.2,25.32z M27.14,25.61
		c-1.03-3.23-1.57-6.64-1.61-10.15l6.62,6.76C30.59,23.51,28.91,24.65,27.14,25.61z M43.54,33.83l6.62,6.75
		c-1.61,1.77-3.01,3.67-4.21,5.69c-3.36-1.44-6.47-3.41-9.19-5.86L43.54,33.83z M53.19,43.68l5.28,5.39
		c-2.87-0.12-5.67-0.56-8.35-1.33C51.02,46.32,52.05,44.96,53.19,43.68z M56.31,40.66c1.3-1.1,2.67-2.09,4.11-2.95
		c0.75,2.7,1.14,5.51,1.19,8.36L56.31,40.66z M53.27,37.55l-6.61-6.75l6.6-6.4c2.41,2.81,4.32,5.88,5.71,9.13
		C56.94,34.67,55.04,36.02,53.27,37.55z M43.61,27.7l-5.28-5.39c1.76-1.91,3.28-3.96,4.56-6.15c2.63,1.35,5.09,3.06,7.33,5.11
		L43.61,27.7z M35.28,19.2l-6.6-6.74c3.55,0.15,6.98,0.81,10.21,1.96C37.86,16.11,36.64,17.7,35.28,19.2z M23.16,27.42
		c-1.86,0.69-3.79,1.21-5.77,1.53c0.28-4.32,1.6-8.44,3.83-12.06C21.38,20.53,22.04,24.06,23.16,27.42z M48.04,51.65
		c2.9,0.9,5.93,1.46,9.03,1.68c-3.29,1.96-6.97,3.16-10.82,3.54C46.69,55.07,47.3,53.33,48.04,51.65z M64.37,35.72
		c1.74-0.72,3.55-1.3,5.41-1.7c-0.49,3.84-1.8,7.48-3.85,10.72C65.78,41.65,65.25,38.63,64.37,35.72z M40.85,10.51
		c-3.44-1.29-7.09-2.08-10.87-2.34c3.83-2.34,8.19-3.65,12.74-3.81C42.32,6.49,41.68,8.54,40.85,10.51z"/>
</svg>
