<svg version="1.1" id="Слой_1" xmlns="http://www.w3.org/2000/svg" xmlns:xlink="http://www.w3.org/1999/xlink" viewBox="0 0 80 80">
<path fill="#86898C" d="M61.33,44.89c0.34-0.32,0.44-0.82,0.25-1.25L59.94,40l1.66-3.62c0.19-0.43,0.09-0.93-0.25-1.25l-2.91-2.74
		l0.12-4c0.01-0.47-0.27-0.89-0.71-1.06l-3.74-1.42l-1.42-3.74c-0.17-0.44-0.6-0.73-1.06-0.71l-4,0.12l-2.74-2.91
		c-0.32-0.34-0.82-0.44-1.25-0.25L40,20.06l-3.62-1.66c-0.43-0.19-0.93-0.09-1.25,0.25l-2.74,2.91l-4-0.12
		c-0.47-0.01-0.89,0.27-1.06,0.71l-1.42,3.74l-3.74,1.42c-0.44,0.17-0.72,0.59-0.71,1.06l0.12,4l-2.91,2.74
		c-0.34,0.32-0.44,0.82-0.25,1.25L20.06,40l-1.65,3.63c-0.19,0.43-0.09,0.93,0.25,1.25l2.91,2.74l-0.12,4
		c-0.01,0.47,0.27,0.89,0.71,1.06l3.74,1.42l1.41,3.73c0.17,0.44,0.59,0.73,1.06,0.71l4-0.12l2.74,2.91
		c0.32,0.34,0.82,0.44,1.25,0.25L40,59.94l3.64,1.64c0.14,0.07,0.3,0.1,0.45,0.1c0.3,0,0.59-0.12,0.79-0.34l2.74-2.91l4,0.12
		c0.47,0.01,0.89-0.27,1.06-0.71l1.42-3.74l3.73-1.41c0.44-0.17,0.72-0.59,0.71-1.06l-0.12-4L61.33,44.89z M56.56,46.37
		c-0.22,0.21-0.35,0.52-0.34,0.83l0.11,3.71l-3.47,1.31c-0.3,0.11-0.53,0.35-0.64,0.64l-1.31,3.47l-3.71-0.11
		c-0.31-0.02-0.61,0.11-0.83,0.34l-2.54,2.7l-3.38-1.52c-0.14-0.07-0.3-0.1-0.45-0.1s-0.31,0.04-0.45,0.1l-3.38,1.52l-2.54-2.7
		c-0.21-0.22-0.52-0.35-0.83-0.34l-3.71,0.11l-1.31-3.47c-0.11-0.3-0.35-0.53-0.64-0.64l-3.47-1.31l0.11-3.71
		c0.01-0.31-0.11-0.61-0.34-0.83l-2.7-2.54l1.52-3.38c0.13-0.29,0.13-0.61,0-0.9l-1.52-3.38l2.7-2.54c0.22-0.21,0.35-0.52,0.34-0.83
		l-0.11-3.71l3.47-1.31c0.3-0.11,0.53-0.35,0.64-0.64l1.31-3.47l3.71,0.11c0.31,0.01,0.61-0.11,0.83-0.34l2.54-2.7l3.38,1.52
		c0.29,0.13,0.61,0.13,0.9,0l3.38-1.52l2.54,2.7c0.21,0.22,0.52,0.35,0.83,0.34l3.71-0.11l1.31,3.47c0.11,0.3,0.35,0.53,0.64,0.64
		l3.47,1.31l-0.11,3.71c-0.01,0.31,0.11,0.61,0.34,0.83l2.7,2.54l-1.52,3.38c-0.13,0.29-0.13,0.61,0,0.9l1.52,3.38L56.56,46.37z"/>
	<path fill="#86898C" d="M40,23.29c-9.22,0-16.71,7.5-16.71,16.71S30.78,56.71,40,56.71c9.22,0,16.71-7.49,16.71-16.71
		S49.22,23.29,40,23.29z M40,54.52c-8.01,0-14.52-6.51-14.52-14.52S31.99,25.48,40,25.48S54.52,31.99,54.52,40S48.01,54.52,40,54.52
		z"/>
	<path fill="#86898C" d="M79.98,52.25c0-0.03,0.02-0.05,0.02-0.08c0-0.01,0-0.02,0-0.02c0-0.1-0.03-0.2-0.06-0.3
		c-0.01-0.04-0.02-0.09-0.04-0.13c-0.01-0.02-0.01-0.04-0.02-0.06l-6.13-11.67l4.26-8.12c0.01-0.02,0.02-0.04,0.03-0.06l1.82-3.47
		c0.01-0.01,0.01-0.03,0.01-0.05c0.04-0.07,0.05-0.16,0.07-0.24c0.01-0.06,0.03-0.12,0.04-0.18c0-0.02,0.01-0.04,0.01-0.06
		c0-0.07-0.03-0.13-0.04-0.19c-0.01-0.06-0.01-0.11-0.03-0.16c-0.03-0.09-0.08-0.17-0.14-0.25c-0.02-0.03-0.04-0.07-0.07-0.1
		c-0.08-0.1-0.18-0.17-0.29-0.23c-0.01-0.01-0.01-0.01-0.02-0.02c0,0-0.01,0-0.01,0c-0.12-0.07-0.26-0.1-0.41-0.12c0,0,0,0-0.01,0
		c-0.03,0-0.06-0.02-0.09-0.02H61.19c-0.61,0-1.1,0.49-1.1,1.1c0,0.01,0.01,0.02,0.01,0.04l-0.11,3.5c0,0.02-0.01,0.03-0.01,0.05
		c0,0.01,0.01,0.02,0.01,0.03l-0.03,0.86c-0.01,0.31,0.11,0.61,0.34,0.83l2.93,2.76l-1.65,3.67c-0.13,0.29-0.13,0.61,0,0.9
		l1.65,3.67l-2.93,2.76c-0.22,0.21-0.35,0.52-0.34,0.83l0.03,0.85c0,0.01-0.01,0.02-0.01,0.03c0,0.02,0.01,0.03,0.01,0.04l0.11,3.5
		c0,0.01-0.01,0.02-0.01,0.04c0,0.16,0.04,0.31,0.1,0.45c0.03,0.06,0.07,0.11,0.11,0.16c0.04,0.06,0.07,0.13,0.12,0.18
		c0.08,0.08,0.17,0.13,0.27,0.18c0.03,0.01,0.05,0.04,0.08,0.05c0.13,0.05,0.27,0.09,0.42,0.09H78.9c0,0,0,0,0,0c0,0,0,0,0.01,0
		c0.12,0,0.25-0.03,0.37-0.08c0.03-0.01,0.05-0.02,0.08-0.03c0.02-0.01,0.04-0.01,0.06-0.02c0.05-0.03,0.08-0.07,0.13-0.1
		c0.05-0.04,0.11-0.08,0.16-0.13c0.07-0.07,0.11-0.15,0.15-0.23c0.02-0.04,0.05-0.07,0.06-0.11C79.96,52.46,79.98,52.36,79.98,52.25
		z M62.21,49.69h14.16l0.72,1.38H62.25L62.21,49.69z M62.26,28.92h14.83l-0.72,1.38H62.22L62.26,28.92z M65.3,45.18
		c0.34-0.32,0.44-0.82,0.25-1.25L63.78,40l1.78-3.94c0.19-0.43,0.09-0.93-0.25-1.25l-2.46-2.31h12.36l-3.67,6.99
		c-0.02,0.04-0.02,0.08-0.04,0.12c-0.02,0.04-0.03,0.09-0.04,0.14c-0.02,0.1-0.04,0.2-0.03,0.3c0,0.03,0.01,0.06,0.01,0.09
		c0.01,0.11,0.05,0.22,0.09,0.33c0.01,0.01,0.01,0.03,0.01,0.04l3.66,6.98H62.84L65.3,45.18z"/>
	<path fill="#86898C" d="M16.78,44.13l1.65-3.67c0.13-0.29,0.13-0.61,0-0.9l-1.65-3.67l2.93-2.76c0.22-0.21,0.35-0.52,0.34-0.83
		l-0.14-4.5c0-0.05-0.02-0.09-0.03-0.13c-0.08-0.53-0.52-0.95-1.07-0.95H1.1c-0.03,0-0.06,0.02-0.09,0.02c0,0,0,0,0,0
		c-0.15,0.01-0.29,0.05-0.42,0.12c0,0,0,0,0,0c0,0,0,0,0,0c-0.12,0.07-0.23,0.15-0.32,0.26c-0.02,0.02-0.03,0.05-0.05,0.08
		c-0.06,0.09-0.11,0.17-0.15,0.27c-0.02,0.05-0.02,0.1-0.03,0.15C0.03,27.69,0,27.75,0,27.82c0,0.02,0.01,0.04,0.01,0.06
		c0,0.06,0.02,0.12,0.04,0.19c0.02,0.08,0.03,0.15,0.07,0.23c0.01,0.02,0.01,0.03,0.01,0.05l1.82,3.48
		c0.01,0.02,0.02,0.03,0.02,0.04l4.27,8.13l-4.29,8.16c0,0,0,0.01-0.01,0.01l-1.84,3.5c-0.01,0.02-0.01,0.04-0.02,0.05
		c-0.02,0.04-0.03,0.09-0.04,0.14c-0.03,0.1-0.06,0.19-0.06,0.29c0,0.01,0,0.02,0,0.02c0,0.03,0.01,0.05,0.02,0.08
		c0.01,0.11,0.03,0.22,0.07,0.32c0.01,0.03,0.03,0.06,0.05,0.1c0.05,0.09,0.1,0.17,0.17,0.25c0.04,0.04,0.08,0.07,0.13,0.1
		c0.05,0.04,0.09,0.09,0.15,0.12c0.02,0.01,0.05,0.02,0.07,0.03c0.02,0.01,0.04,0.02,0.06,0.02c0.12,0.05,0.25,0.08,0.38,0.08
		c0,0,0,0,0.01,0c0,0,0,0,0,0h17.68c0.01,0,0.02,0,0.03,0c0.15,0,0.29-0.03,0.42-0.09c0.04-0.02,0.08-0.05,0.12-0.08
		c0.08-0.05,0.16-0.09,0.23-0.15c0.05-0.04,0.07-0.1,0.11-0.15c0.04-0.06,0.1-0.12,0.13-0.19c0.02-0.05,0.03-0.11,0.04-0.17
		c0.02-0.08,0.05-0.15,0.06-0.23l0.14-4.5c0.01-0.31-0.11-0.61-0.34-0.83L16.78,44.13z M3.64,49.69h14.15l-0.04,1.38H2.92
		L3.64,49.69z M14.7,34.82c-0.34,0.32-0.44,0.82-0.25,1.25L16.22,40l-1.77,3.94c-0.19,0.43-0.09,0.93,0.25,1.25l2.45,2.3H4.8
		l3.66-6.98c0.01-0.03,0.01-0.06,0.02-0.08c0.03-0.08,0.05-0.15,0.07-0.23c0.01-0.07,0.02-0.13,0.02-0.2c0-0.07-0.01-0.13-0.02-0.2
		c-0.01-0.08-0.04-0.16-0.07-0.23c-0.01-0.03-0.01-0.06-0.02-0.08L4.79,32.5h12.38L14.7,34.82z M17.79,30.3H3.63l-0.72-1.38h14.84
		L17.79,30.3z"/>
</svg>
