<svg version="1.1" id="Слой_1" xmlns="http://www.w3.org/2000/svg" xmlns:xlink="http://www.w3.org/1999/xlink" viewBox="0 0 80 80">
<path fill="#86898C" d="M77.37,28.45c-1.03-1.99-1.61-4.39-1.68-6.89l3.79-6.43c0.61-1.03,0.69-2.29,0.21-3.39s-1.46-1.91-2.62-2.17
	L35.08,0.23c-2.52-0.56-5.13,0.55-6.49,2.75L2.79,45.17c0,0,0,0.01-0.01,0.01l-0.01,0.01c-3.69,6.21-3.68,15.1,0.02,21.15
	c0,0.01,0.01,0.01,0.01,0.01c0.09,0.15,0.21,0.29,0.34,0.42c0.04,0.04,0.08,0.07,0.11,0.1c0.1,0.08,0.2,0.16,0.31,0.23
	c0.05,0.03,0.1,0.06,0.15,0.08c0.12,0.06,0.24,0.1,0.36,0.14c0.04,0.01,0.09,0.03,0.13,0.04c0.01,0,0.03,0.01,0.04,0.01l5.84,1.3
	c-0.27,1.99-0.38,4.26-0.23,6.86c0,0.05,0.02,0.1,0.02,0.15c0.01,0.08,0.02,0.15,0.04,0.23s0.05,0.16,0.07,0.24
	c0.02,0.04,0.02,0.09,0.04,0.13c0,0.01,0.01,0.02,0.02,0.03c0.08,0.18,0.19,0.35,0.31,0.51c0.03,0.03,0.06,0.07,0.09,0.1
	c0.12,0.14,0.26,0.26,0.41,0.37c0.01,0.01,0.02,0.02,0.03,0.03c0.16,0.11,0.34,0.18,0.53,0.24c0.04,0.01,0.09,0.03,0.13,0.04
	c0.19,0.05,0.38,0.08,0.58,0.08h0.01h0.01c0.04,0,0.08,0,0.12,0c0.05,0,0.09-0.02,0.14-0.02c0.08-0.01,0.16-0.02,0.24-0.04
	c0.08-0.02,0.15-0.04,0.23-0.07c0.04-0.02,0.09-0.02,0.14-0.04l3.48-1.46l4.13,3.36c0.04,0.03,0.08,0.05,0.11,0.08
	c0.05,0.04,0.1,0.07,0.16,0.11c0.07,0.04,0.14,0.07,0.21,0.11c0.05,0.02,0.1,0.05,0.16,0.07c0.08,0.03,0.17,0.05,0.25,0.07
	c0.05,0.01,0.09,0.03,0.14,0.04c0.13,0,0.26,0.02,0.4,0.02l0,0l0,0l0,0l0,0c0.04,0,0.09,0,0.13,0c0.07,0,0.14-0.02,0.21-0.03
	c0.06-0.01,0.13-0.02,0.19-0.03c0.11-0.03,0.21-0.07,0.31-0.11c0.04-0.02,0.09-0.03,0.13-0.05c0.14-0.07,0.28-0.15,0.41-0.25
	c0.02-0.01,0.03-0.03,0.05-0.05c0.11-0.09,0.21-0.18,0.3-0.29c0.01-0.01,0.02-0.02,0.03-0.03c0.03-0.04,0.05-0.08,0.08-0.12
	c0.05-0.07,0.1-0.14,0.14-0.21c0.04-0.06,0.06-0.13,0.09-0.19c0.03-0.07,0.06-0.14,0.08-0.21c0.02-0.07,0.04-0.15,0.05-0.22
	c0.01-0.07,0.03-0.14,0.04-0.21c0.01-0.08,0.01-0.17,0.01-0.25c0-0.05,0.01-0.1,0.01-0.15c-0.13-2.18-0.06-4.06,0.14-5.69
	l25.22,5.59c0.38,0.08,0.75,0.12,1.13,0.12c1.8,0,3.49-0.94,4.44-2.54l24.22-41.1c0.61-1.03,0.69-2.29,0.21-3.39
	C79.25,29.5,78.39,28.78,77.37,28.45z M18.14,60.88l5.05,1.08c-1.03,1.53-2.07,3.64-2.73,6.53c-0.01,0.04-0.03,0.08-0.04,0.12
	c-0.01,0.03-0.01,0.07-0.01,0.1c-0.28,1.25-0.49,2.64-0.6,4.18l-1.51-1.23c-0.03-0.02-0.06-0.04-0.09-0.06
	c-0.07-0.05-0.13-0.09-0.2-0.13c-0.06-0.04-0.12-0.07-0.19-0.1s-0.14-0.06-0.21-0.08c-0.07-0.02-0.14-0.05-0.21-0.06
	c-0.07-0.02-0.14-0.03-0.22-0.04c-0.07-0.01-0.14-0.02-0.21-0.02c-0.08,0-0.15,0-0.23,0c-0.07,0-0.14,0.01-0.21,0.02
	c-0.07,0.01-0.14,0.03-0.22,0.04c-0.08,0.02-0.15,0.04-0.23,0.07c-0.03,0.01-0.07,0.02-0.11,0.03l-1.63,0.68
	C14.6,65.06,16.99,61.97,18.14,60.88z M28.77,62.52l-0.04,0.02l0,0c0.54-0.31,0.95-0.84,1.09-1.5c0.26-1.23-0.52-2.43-1.76-2.69
	l-10.01-2.13c-0.57-0.12-1.12-0.01-1.59,0.25v-0.01c-0.02,0.01-0.06,0.03-0.12,0.07l0,0c-0.64,0.4-3.52,2.47-5.25,7.66l-4.89-1.09
	C4.1,58.97,4.03,53.3,5.96,48.94l40.41,8.95c-1.69,4.37-1.88,9.5-0.55,13.99l-20.32-4.5C26.78,63.84,28.64,62.6,28.77,62.52z
	 M51.32,72.69c-0.06,0.11-0.16,0.19-0.27,0.24c-2.07-4.16-2.11-9.85-0.12-14.17c1.75-0.04,3.39-0.97,4.31-2.53l16.88-28.63
	c0.44,1.39,1.01,2.68,1.72,3.86c0.01,0.01,0.01,0.02,0.02,0.03c0.02,0.03,0.03,0.06,0.05,0.09c0.01,0.02,0.03,0.04,0.05,0.06
	c0.09,0.13,0.18,0.25,0.29,0.36c0.02,0.02,0.04,0.04,0.06,0.06c0.12,0.12,0.26,0.21,0.41,0.3c0.04,0.02,0.08,0.04,0.11,0.06
	c0.06,0.03,0.12,0.07,0.18,0.09L51.32,72.69z"/>
</svg>
