<svg version="1.1" id="Слой_1" xmlns="http://www.w3.org/2000/svg" xmlns:xlink="http://www.w3.org/1999/xlink" viewBox="0 0 80 80">
<path fill="#86898C" d="M68.47,30.86c2.94-4.41,3.99-9.69,2.96-14.89c-1.04-5.2-4.03-9.68-8.44-12.62C58.58,0.41,53.3-0.64,48.1,0.39
	c-5.2,1.04-9.68,4.03-12.62,8.44c-0.01,0.01-0.01,0.02-0.01,0.02l-7.25,10.86c-0.01,0.02-0.02,0.03-0.03,0.05
	c-0.01,0.01-0.01,0.02-0.01,0.03L9.47,47.78c-0.52,0.78-0.88,1.63-1.09,2.52c-0.01,0.04-0.02,0.08-0.02,0.13
	c-0.17,0.81-0.22,1.64-0.12,2.47l2.89,25.24c0.07,0.61,0.41,1.17,0.92,1.51C12.39,79.88,12.8,80,13.21,80
	c0.19,0,0.39-0.03,0.58-0.09l24.42-7c1.74-0.49,3.25-1.6,4.25-3.1l18.69-28c0-0.01,0.01-0.01,0.02-0.02
	c0.01-0.02,0.02-0.03,0.03-0.05l7.24-10.85C68.45,30.88,68.46,30.87,68.47,30.86z M48.92,4.52c4.09-0.82,8.26,0.01,11.73,2.33
	c3.47,2.32,5.83,5.85,6.65,9.94c0.82,4.08-0.01,8.23-2.31,11.69c-0.01,0.01-0.02,0.02-0.02,0.03l-0.54,0.81
	c-0.27-3.65-1.54-7.18-3.72-10.19c-0.08-0.14-0.18-0.28-0.3-0.41c-1.29-1.69-2.86-3.2-4.72-4.45c-1.85-1.23-3.83-2.1-5.87-2.64
	c-0.16-0.06-0.33-0.1-0.5-0.12c-3.63-0.87-7.39-0.69-10.87,0.46l0.54-0.81c0,0,0-0.01,0.01-0.01C41.32,7.69,44.84,5.34,48.92,4.52z
	 M44.44,59.25c-0.13-3.31-1.1-6.54-2.87-9.37l17.2-25.75c2.25,4.78,2.03,10.59-1.09,15.3L44.44,59.25z M31.71,22.05
	c3.16-4.7,8.46-7.12,13.75-6.86l-17.2,25.76c-2.35-0.4-4.76-0.37-7.15,0.13c-0.9,0.19-1.77,0.46-2.63,0.77L31.71,22.05z
	 M49.93,16.09c1.18,0.42,2.33,0.97,3.41,1.7c1.1,0.73,2.06,1.59,2.91,2.53L38.82,46.42c-0.89-0.89-1.88-1.71-2.97-2.44
	c-1.07-0.72-2.19-1.31-3.35-1.8L49.93,16.09z M14.14,67.54c1.67-1.95,4.44-2.41,6.59-0.97c2.16,1.45,2.78,4.22,1.58,6.53l-7.3,2.09
	L14.14,67.54z M27.08,71.73c0.38-3.32-1.04-6.66-4.02-8.66c-2.96-1.98-6.58-2.04-9.49-0.45l-1.16-10.2
	c-0.03-0.28-0.02-0.56,0.02-0.83c2.33-3.3,5.69-5.56,9.54-6.37c3.99-0.84,8.09-0.03,11.54,2.27c6.98,4.67,8.79,13.86,4.21,21.09
	c-0.22,0.12-0.44,0.22-0.68,0.29L27.08,71.73z"/>
</svg>
