<svg version="1.1" id="Слой_1" xmlns="http://www.w3.org/2000/svg" xmlns:xlink="http://www.w3.org/1999/xlink" viewBox="0 0 80 80">
<path fill="#86898C" d="M79.46,7.64C79.46,7.64,79.46,7.63,79.46,7.64c-0.08-0.1-0.17-0.17-0.26-0.25c-0.01-0.01-0.03-0.02-0.04-0.04
	C79.08,7.3,79,7.24,78.92,7.19c-0.03-0.02-0.06-0.03-0.09-0.05c-0.03-0.02-0.06-0.04-0.1-0.05c-0.01-0.01-0.02-0.01-0.04-0.01
	c-0.03-0.01-0.06-0.02-0.08-0.03c0,0-0.01,0-0.01,0C78.56,7.03,78.52,7.01,78.47,7c-0.04-0.01-0.08-0.03-0.12-0.04
	c-0.04-0.01-0.08-0.02-0.12-0.02c-0.04-0.01-0.08-0.01-0.12-0.02c-0.04,0-0.08-0.01-0.12-0.01c-0.05,0-0.1,0-0.15,0
	c-0.03,0-0.07,0-0.1,0c-0.04,0-0.07,0-0.11,0.01c-0.06,0.01-0.12,0.01-0.18,0.02c-0.03,0-0.05,0.01-0.08,0.02
	c-0.03,0.01-0.06,0.02-0.1,0.03c-0.07,0.02-0.14,0.04-0.2,0.06c-0.02,0.01-0.03,0.01-0.05,0.01L1.34,37.78
	C0.57,38.09,0.05,38.83,0,39.66c-0.04,0.83,0.4,1.62,1.14,2.01l22.84,12.28l7.57,17.73c0,0.01,0.01,0.02,0.01,0.03l0.03,0.08
	c0,0.01,0.01,0.02,0.02,0.03c0.08,0.18,0.18,0.35,0.31,0.51c0,0,0,0.01,0.01,0.01c0.12,0.14,0.25,0.25,0.4,0.36
	c0.04,0.03,0.08,0.06,0.13,0.09c0.03,0.02,0.06,0.04,0.09,0.06c0.08,0.04,0.16,0.06,0.24,0.1c0.07,0.03,0.13,0.06,0.2,0.08
	c0.19,0.05,0.38,0.09,0.58,0.09c0.23,0,0.45-0.05,0.66-0.12c0.01,0,0.02-0.01,0.03-0.01c0.18-0.06,0.35-0.15,0.51-0.26
	c0.02-0.01,0.04-0.02,0.05-0.04c0.14-0.1,0.27-0.22,0.38-0.36c0.02-0.03,0.05-0.05,0.07-0.08c0.01-0.02,0.03-0.03,0.04-0.05
	L43,61.47l24.58,6.51c0.18,0.05,0.37,0.07,0.55,0.07c0.41,0,0.81-0.12,1.16-0.35c0.51-0.33,0.86-0.85,0.96-1.45l9.72-56.83
	C80.09,8.76,79.88,8.11,79.46,7.64z M33.45,65.18l-5.18-12.13l34.46-28.63L36.8,56.69c-0.01,0.02-0.02,0.04-0.03,0.06
	c-0.09,0.12-0.16,0.24-0.23,0.38c-0.01,0.01-0.01,0.03-0.02,0.04c-0.02,0.04-0.04,0.07-0.05,0.1L33.45,65.18z M65.76,16.29
	L25.4,49.82L7.22,40.05L65.76,16.29z M66.4,63.2l-23.72-6.29c0,0-0.01,0-0.01,0l-0.42-0.11l32.07-39.9L66.4,63.2z"/>
</svg>
