<svg version="1.1" id="Слой_1" xmlns="http://www.w3.org/2000/svg" xmlns:xlink="http://www.w3.org/1999/xlink" viewBox="0 0 80 80">
<path fill="#86898C" d="M74.09,60.05l5.28-4.83c0.59-0.54,0.79-1.39,0.5-2.14s-1.01-1.24-1.81-1.24H75.7
		c0.16-1.37,0.24-2.74,0.24-4.12c0-19.78-16.09-35.87-35.87-35.87C20.29,11.85,4.2,27.94,4.2,47.72c0,1.38,0.09,2.75,0.24,4.12H1.95
		c-0.81,0-1.53,0.5-1.82,1.25s-0.08,1.6,0.52,2.14l5.38,4.82l-5.36,4.69c-0.61,0.54-0.83,1.39-0.54,2.15
		c0.28,0.76,1.01,1.26,1.82,1.26h16.68c0,0,0,0,0,0c0,0,0,0,0.01,0c0.38,0,0.74-0.12,1.06-0.33c0.02-0.01,0.04-0.03,0.06-0.04
		c0.07-0.05,0.13-0.11,0.2-0.17c0.04-0.04,0.08-0.07,0.11-0.11c0.02-0.03,0.05-0.04,0.07-0.07c0.02-0.03,0.04-0.07,0.06-0.1
		c0.04-0.06,0.08-0.12,0.12-0.19c0.03-0.05,0.05-0.1,0.08-0.15c0.04-0.09,0.07-0.18,0.1-0.27c0.01-0.03,0.02-0.06,0.03-0.1
		c0.03-0.12,0.04-0.25,0.05-0.37c0-0.01,0-0.02,0-0.03c0-0.14-0.01-0.29-0.04-0.44l-0.18-0.85l-0.44-2.07H60.9l-0.48,3.03
		c-0.04,0.28-0.02,0.55,0.05,0.8c0.01,0.03,0.02,0.07,0.04,0.1c0.03,0.09,0.06,0.18,0.11,0.27c0.02,0.04,0.05,0.08,0.07,0.12
		c0.04,0.08,0.09,0.15,0.15,0.22c0.01,0.02,0.02,0.03,0.03,0.05c0.02,0.02,0.04,0.04,0.06,0.06c0.06,0.07,0.12,0.13,0.19,0.18
		c0.03,0.03,0.07,0.05,0.1,0.08c0.08,0.06,0.17,0.11,0.26,0.15c0.03,0.01,0.06,0.03,0.09,0.04c0.1,0.04,0.2,0.08,0.31,0.11
		c0.03,0.01,0.05,0.01,0.07,0.02c0.03,0.01,0.06,0.02,0.09,0.02c0.11,0.01,0.21,0.02,0.31,0.02h15.7c0.81,0,1.53-0.5,1.82-1.26
		c0.29-0.75,0.08-1.6-0.52-2.14L74.09,60.05z M67.09,48.81c0.04-0.25,0.02-0.5-0.03-0.74c0-0.01,0-0.02-0.01-0.04
		c-0.03-0.11-0.07-0.21-0.11-0.31c-0.01-0.02-0.01-0.03-0.02-0.05c-0.04-0.09-0.1-0.18-0.15-0.26c-0.02-0.03-0.03-0.05-0.05-0.07
		c-0.02-0.03-0.04-0.07-0.07-0.1c-0.03-0.04-0.07-0.07-0.11-0.1c-0.04-0.04-0.07-0.07-0.11-0.1c-0.06-0.05-0.11-0.09-0.17-0.13
		c-0.06-0.04-0.12-0.08-0.18-0.11c-0.05-0.03-0.1-0.05-0.15-0.07c-0.08-0.03-0.17-0.06-0.25-0.09c-0.04-0.01-0.08-0.02-0.12-0.03
		c-0.03-0.01-0.05-0.02-0.08-0.02c-0.07-0.01-0.14-0.01-0.22-0.01c-0.03,0-0.05-0.01-0.08-0.01H14.85c-0.14,0-0.28,0.01-0.42,0.04
		c-0.15,0.03-0.28,0.08-0.41,0.14c-0.02,0.01-0.03,0.02-0.05,0.03c-0.1,0.05-0.2,0.11-0.3,0.18c-0.03,0.02-0.05,0.05-0.08,0.07
		c-0.08,0.07-0.16,0.14-0.22,0.22c-0.01,0.01-0.02,0.02-0.03,0.03c-0.01,0.02-0.02,0.03-0.03,0.05c-0.07,0.09-0.13,0.18-0.18,0.28
		c-0.01,0.02-0.02,0.05-0.04,0.07c-0.05,0.11-0.09,0.23-0.13,0.35c0,0.01-0.01,0.02-0.01,0.04c-0.03,0.13-0.05,0.27-0.05,0.41
		c0,0,0,0,0,0c0,0.14,0.01,0.29,0.04,0.43l0.63,2.93H12.3c-0.2-1.36-0.3-2.74-0.3-4.12c0-15.81,12.33-28.19,28.07-28.19
		c15.75,0,28.08,12.38,28.08,28.19c0,1.35-0.11,2.75-0.3,4.12h-1.24L67.09,48.81z M6.79,47.72c0-18.35,14.93-33.28,33.28-33.28
		s33.28,14.93,33.28,33.28c0,1.38-0.11,2.76-0.27,4.12h-2.63c0.18-1.38,0.3-2.77,0.3-4.12c0-8.29-3.17-16.04-8.91-21.81
		c-5.75-5.79-13.48-8.97-21.76-8.97c-8.28,0-16,3.19-21.76,8.97c-5.74,5.77-8.9,13.52-8.9,21.81c0,1.38,0.11,2.76,0.29,4.12H7.06
		C6.89,50.48,6.79,49.1,6.79,47.72z M7.12,64.26l3.12-2.73c0.41-0.36,0.66-0.89,0.66-1.45s-0.24-1.09-0.65-1.46l-3.22-2.89h7.37
		l1.25,5.82l0.57,2.71H7.12z M19.07,58.98l-1.83-8.53h45.63l-0.26,1.66l-1.09,6.87H19.07z M69.89,61.52l3.07,2.74h-8.3l0.51-3.01
		c0.03-0.16,0.03-0.33,0.02-0.49l0.8-5.03h7.05l-3.17,2.9c-0.4,0.37-0.63,0.9-0.63,1.45S69.48,61.15,69.89,61.52z"/>
	<path fill="#86898C" d="M50.73,31.59c-0.23-0.7-0.84-1.21-1.57-1.32l-5.09-0.74l-2.28-4.62c-0.32-0.66-1-1.08-1.74-1.08
		s-1.41,0.42-1.74,1.08l-2.28,4.62l-5.09,0.74c-0.73,0.1-1.34,0.62-1.57,1.32c-0.23,0.7-0.04,1.47,0.49,1.99l3.69,3.59l-0.87,5.07
		c-0.13,0.73,0.17,1.46,0.77,1.9c0.6,0.44,1.39,0.5,2.05,0.15l4.56-2.4l4.56,2.4c0.29,0.15,0.6,0.22,0.91,0.22
		c0.41,0,0.81-0.13,1.12-0.37c0.6-0.43,0.9-1.17,0.77-1.9l-0.87-5.07l3.69-3.59C50.77,33.07,50.96,32.29,50.73,31.59z M43.13,35.08
		c-0.46,0.45-0.67,1.09-0.56,1.72l0.38,2.2l-1.97-1.04c-0.29-0.15-0.6-0.22-0.91-0.22s-0.62,0.08-0.91,0.22L37.19,39l0.38-2.2
		c0.11-0.63-0.1-1.27-0.56-1.72l-1.6-1.56l2.21-0.32c0.63-0.09,1.18-0.49,1.46-1.06l0.99-2l0.99,2c0.28,0.57,0.83,0.97,1.46,1.06
		l2.21,0.32L43.13,35.08z"/>
	<path fill="#86898C" d="M28.23,34.46l-2.9-0.42l-1.3-2.63c-0.22-0.44-0.67-0.72-1.16-0.72s-0.94,0.28-1.16,0.72l-1.3,2.63l-2.9,0.42
		c-0.49,0.07-0.9,0.41-1.05,0.88c-0.15,0.47-0.02,0.99,0.33,1.33l2.1,2.05l-0.5,2.89c-0.08,0.49,0.12,0.98,0.52,1.27
		c0.22,0.17,0.49,0.25,0.76,0.25c0.21,0,0.41-0.05,0.61-0.15l2.59-1.36l2.59,1.36c0.44,0.23,0.97,0.19,1.37-0.1
		c0.4-0.29,0.6-0.78,0.52-1.27l-0.5-2.89l2.1-2.05c0.36-0.35,0.48-0.86,0.33-1.33C29.12,34.87,28.72,34.53,28.23,34.46z
		 M24.54,37.35c-0.3,0.3-0.44,0.73-0.37,1.15l0.17,0.97l-0.87-0.46c-0.19-0.1-0.39-0.15-0.6-0.15s-0.42,0.05-0.62,0.15l-0.87,0.46
		l0.17-0.97c0.08-0.42-0.06-0.85-0.37-1.15l-0.71-0.69l0.97-0.14c0.43-0.06,0.79-0.33,0.98-0.71l0.44-0.88l0.44,0.88
		c0.19,0.38,0.56,0.65,0.98,0.71l0.97,0.14L24.54,37.35z"/>
	<path fill="#86898C" d="M62.5,34.46l-2.9-0.42l-1.3-2.63c-0.22-0.44-0.67-0.72-1.16-0.72s-0.94,0.28-1.16,0.72l-1.3,2.63l-2.9,0.42
		c-0.49,0.07-0.9,0.41-1.05,0.88c-0.15,0.47-0.02,0.99,0.33,1.33l2.1,2.05l-0.5,2.89c-0.08,0.49,0.12,0.98,0.52,1.27
		c0.22,0.17,0.49,0.25,0.76,0.25c0.2,0,0.41-0.05,0.61-0.15l2.59-1.36l2.59,1.36c0.44,0.23,0.97,0.19,1.37-0.1
		c0.4-0.29,0.6-0.78,0.52-1.27l-0.5-2.89l2.1-2.05c0.36-0.35,0.48-0.86,0.33-1.33C63.39,34.87,62.99,34.53,62.5,34.46z M58.8,37.35
		c-0.3,0.3-0.44,0.73-0.37,1.15l0.17,0.97l-0.87-0.46c-0.19-0.1-0.39-0.15-0.6-0.15c-0.2,0-0.41,0.05-0.62,0.15l-0.87,0.46
		l0.17-0.97c0.08-0.42-0.06-0.85-0.37-1.15l-0.71-0.69l0.97-0.14c0.43-0.06,0.79-0.33,0.98-0.71l0.44-0.88l0.44,0.88
		c0.19,0.38,0.56,0.65,0.98,0.71l0.97,0.14L58.8,37.35z"/>
</svg>
