<svg version="1.1" id="Слой_1" xmlns="http://www.w3.org/2000/svg" xmlns:xlink="http://www.w3.org/1999/xlink" viewBox="0 0 80 80">
<path fill="#86898C" d="M79.91,28.18c-0.01-0.04-0.02-0.08-0.03-0.11c-0.06-0.16-0.14-0.3-0.23-0.43c-5.67-8.99-14.21-10.83-20.31-9.54
	c-3.96,0.84-7.21,2.93-9.02,5.62c-0.13-0.19-0.24-0.37-0.38-0.55c-1.11-1.53-3.09-3.03-5.18-3.56c0,0,0-0.01,0-0.01
	c-0.25-1.53-0.91-2.87-1.56-4.1c-0.87-1.64-1.97-3.48-3.9-4.43c-1.9-0.93-4.32-0.76-6.47,0.46c-1.15,0.66-2.34,1.73-3.4,2.8
	c-0.34-0.2-0.7-0.38-1.11-0.5c-2.02-0.58-3.86,0.43-4.96,1.03l-5.17,2.82c-1.3,0.71-2.77,1.51-4.02,2.69
	c-1.21,1.14-2.12,3.17-2.5,4.89c-0.57-0.11-1.11-0.15-1.59-0.19c-0.72-0.05-1.29-0.09-1.82-0.34c-0.93-0.44-1.89-0.6-2.79-0.46
	c-1.57,0.24-2.76,1.56-2.77,3.06c-0.03,3.19-0.82,6.63-1.59,9.95c-0.29,1.23-0.58,2.51-0.83,3.74c-0.16,0.81-0.36,1.81-0.24,2.89
	c0.22,1.84,1.23,3.21,2.44,4.35c0.1,0.91-0.23,2.38-0.87,3.78c-0.64,1.4-1.83,4.01-0.85,6.54c1.03,2.65,3.8,3.64,5.29,4.17
	c2.22,0.79,4.62,1.64,7.13,2.19c1.02,1.8,3.06,2.87,4.03,3.28c2.05,0.87,4.12,1.31,6.28,1.31c0.9,0,1.82-0.07,2.77-0.2
	c0.84-0.14,1.75-0.22,2.71-0.3c2.33-0.2,4.75-0.41,6.95-1.51l9.24-4.61c1.73-0.86,3.66-1.85,5.33-3.29
	c3.09,2.99,7.44,2.98,11.34,2.95c2.82-0.02,5.48-0.03,7.52,0.97c0.02,0.01,0.05,0.02,0.08,0.03c0.07,0.03,0.15,0.06,0.22,0.09
	c0.02,0.01,0.04,0.01,0.06,0.01c0.06,0.01,0.11,0.02,0.17,0.03c0.04,0.01,0.08,0.02,0.12,0.03c0.07,0.01,0.14,0.01,0.21,0.01
	c0.14,0,0.27-0.02,0.4-0.04c0.02-0.01,0.05-0.01,0.07-0.02c0,0,0,0,0,0c0.04-0.01,0.08-0.02,0.12-0.03c0.14-0.04,0.27-0.1,0.39-0.17
	c0.04-0.02,0.07-0.04,0.1-0.06c0.1-0.07,0.19-0.14,0.28-0.22c0.06-0.06,0.12-0.12,0.17-0.19c0.02-0.02,0.03-0.04,0.04-0.06
	c0.07-0.1,0.15-0.19,0.21-0.3c0.18-0.36,0.23-0.74,0.19-1.11c0.46-5.59-1.54-11.5-5.42-15.89c-0.71-0.81-1.44-1.5-2.17-2.08
	c2.39-1.64,4.29-3.92,6.07-6.05c2.43-2.94,4.74-5.71,8.04-6.92c0.08-0.03,0.14-0.07,0.22-0.1c0.05-0.03,0.1-0.04,0.15-0.07
	C79.85,29.93,80.16,29.01,79.91,28.18z M60.15,21.94c1.93-0.4,7.78-1.08,13.02,3.89c-5.77-0.64-10.16,0.69-15.42,4.55
	c-0.45-0.7-1.11-1.33-1.93-1.83c-0.5-0.3-1.02-0.54-1.47-0.74c-0.43-0.19-0.84-0.38-1.17-0.59c-0.07-0.05-0.14-0.11-0.21-0.17
	C53.86,24.7,56.65,22.68,60.15,21.94z M46.75,25.48c0.25,0.35,0.5,0.72,0.76,1.11c0.48,0.73,1.02,1.51,1.64,2.24
	c0.12,0.18,0.26,0.33,0.43,0.46c0.43,0.45,0.9,0.88,1.45,1.24c0.58,0.38,1.18,0.64,1.7,0.88c0.39,0.18,0.75,0.35,1.06,0.53
	c0.48,0.28,0.74,0.64,0.75,0.82c0,0.12-0.07,0.31-0.16,0.51c-0.01,0.03-0.02,0.05-0.04,0.08c-0.11,0.22-0.24,0.44-0.33,0.6l-4,6.79
	c-1.28,2.18-2.61,4.44-4.25,6.26c-0.57,0.64-1.36,1.32-2.23,1.98c2.47-4.58,3.76-10.63,3.58-14.88c0.37-3.35-0.69-6.91-2.93-9.84
	c0.08-0.2,0.16-0.41,0.22-0.62C45.26,24,46.19,24.7,46.75,25.48z M40.54,25.99c2.08,2.34,3.08,5.45,2.63,8.11
	c-0.28,1.63-1.13,3.33-2.45,4.9c0.04-0.35,0.08-0.69,0.09-1.04c0.09-0.74,0.2-1.38,0.3-1.99c0.24-1.49,0.45-2.78,0.42-4.66
	c-0.02-1.48-0.4-3.55-1.04-5.36C40.5,25.95,40.52,25.97,40.54,25.99z M36.69,36.15c0.01,0.04,0.04,0.07,0.05,0.12
	c0.11,0.49,0.15,0.97,0.15,1.42c-0.01,0.13-0.01,0.25,0,0.37c-0.06,1.04-0.38,1.94-0.83,2.64c-0.1,0.11-0.19,0.22-0.26,0.36
	c-0.01,0.01-0.01,0.02-0.02,0.03c-0.24,0.29-0.49,0.54-0.77,0.72c-0.75,0.48-1.68,0.81-2.83,1.02c-1.55,0.28-3.27,0.3-4.83,0.21
	c1.29-0.84,2.61-1.71,3.86-2.56c1.08-0.73,2.3-1.55,3.25-2.8c0.82-1.07,1.31-2.34,1.5-3.68C36.25,34.67,36.5,35.38,36.69,36.15z
	 M21.99,39.23c0.32,0.11,0.64,0.21,0.97,0.31c0.07,0.02,0.14,0.04,0.22,0.05c0.55,0.15,1.12,0.27,1.7,0.37
	c-0.72,0.47-1.44,0.95-2.16,1.43C22.42,40.68,22.18,39.95,21.99,39.23z M17.71,37.37c-0.24-0.68-0.41-1.39-0.49-2.1
	c-0.09-0.81-0.03-1.53,0.13-2.19c0.41-0.33,0.87-0.62,1.41-0.87c-0.14,0.26-0.28,0.53-0.39,0.81c-0.3,0.76-0.49,1.58-0.59,2.45
	c-0.04,0.16-0.05,0.31-0.05,0.47C17.7,36.41,17.69,36.88,17.71,37.37z M25.43,33c-0.43-0.22-0.88-0.48-1.3-0.77
	c0.46-0.24,0.95-0.4,1.45-0.46C25.57,32.18,25.53,32.6,25.43,33z M28.23,36.35c0.17-0.27,0.33-0.54,0.46-0.84
	c0.27-0.58,0.47-1.19,0.61-1.81c0.48,0.75,0.8,1.62,0.88,2.51C29.6,36.32,28.93,36.37,28.23,36.35z M30.22,28.49
	c0.57,0.46,1.01,1.07,1.33,1.75c-0.98-1.05-2.19-1.83-3.51-2.19c-0.1-0.03-0.19-0.04-0.29-0.06c-0.07-0.02-0.13-0.03-0.2-0.04
	c-0.34-0.07-0.68-0.11-1.02-0.13c-0.57-0.16-1.15-0.27-1.76-0.34c0.56-0.1,1.15-0.18,1.75-0.18C27.82,27.29,29.14,27.59,30.22,28.49
	z M13.8,31.2C13.8,31.2,13.8,31.2,13.8,31.2c-0.04,0.11-0.07,0.22-0.1,0.33c0,0.01-0.01,0.02-0.01,0.04
	c-0.4,1.29-0.54,2.67-0.38,4.13c0.14,1.24,0.49,2.55,1.04,3.83c-0.05-0.04-0.11-0.08-0.15-0.12c-1.59-1.31-2.39-2.48-2.79-4.02
	c-0.5-1.96,0.19-4.33,1.77-6.02c0.99-1.07,2.21-1.78,3.4-2.27C15.29,28.27,14.35,29.65,13.8,31.2z M21.55,46.28
	c0.67,0.14,3.83,0.74,7.31,0.74c0.51,0,1.04-0.03,1.56-0.06c-1.65,1.14-3.45,1.94-5.25,2.3c-0.05,0.01-0.09,0.01-0.14,0.02
	c-0.55,0.1-1.1,0.17-1.64,0.19c-1.82,0.07-3.59-0.23-5.14-0.87c-2.37-0.97-4.38-2.79-5.67-5.11c-0.11-0.19-0.2-0.41-0.3-0.62
	C14.26,44.23,18.25,45.95,21.55,46.28z M36.86,46.37c1.66-0.68,3.33-1.68,4.75-2.82c-0.84,2.42-1.97,4.65-3.32,6.19
	c-2.81,0.95-5.68,1.65-8.58,2.11C32.36,50.62,34.84,48.73,36.86,46.37z M34.78,14.95c0.79-0.44,1.93-0.76,2.8-0.34
	c0.88,0.42,1.58,1.64,2.16,2.74c0.53,0.98,1.01,1.95,1.16,2.89c0.04,0.26,0.04,0.59,0.01,0.93c-2.32-1.59-5.1-2.73-7.54-3.59
	l-0.87-0.75C33.23,16.11,34.07,15.35,34.78,14.95z M20.08,21.13l5.17-2.82c0.53-0.29,1.52-0.83,1.99-0.7
	c0.27,0.07,0.68,0.44,1.02,0.73l0.03,0.03c0.01,0.01,0.02,0.03,0.04,0.04c0.02,0.02,0.05,0.03,0.07,0.05l4.43,3.86
	c1.21,1.06,2.47,2.15,3.28,3.44c0.41,0.65,0.8,1.7,1.08,2.8c-1.34-1.56-2.97-2.71-4.8-3.35c-1.21-0.91-2.62-1.48-4.17-1.71
	c-0.02-0.01-0.03-0.02-0.05-0.03c-2.64-1.23-6.3-1.62-9.56-1.03c-0.36,0.07-0.71,0.15-1.06,0.23C18.31,22.1,19.17,21.62,20.08,21.13
	z M4.15,41.81c0.23-1.18,0.51-2.37,0.8-3.63c0.74-3.23,1.51-6.56,1.66-9.87c0.74,0.35,1.45,0.5,2.1,0.58
	c-1.02,1.83-1.49,3.9-1.35,5.88c-0.48,3.68,0.2,7.75,1.8,10.63c1.59,2.87,4.04,5.16,6.93,6.52c-0.48-0.12-0.94-0.25-1.38-0.4
	c-2.95-1.02-5.62-3.06-8.21-5.03c-1.21-0.92-2.4-1.91-2.53-3.02C3.91,43.01,4.03,42.4,4.15,41.81z M4.43,57.17
	C4.1,56.3,4.6,54.98,5.19,53.68c0.25-0.55,0.63-1.49,0.9-2.58c2.2,1.61,4.62,3.18,7.32,4.12c2.37,0.83,4.97,1.2,8.36,1.2
	c0.21,0,0.43,0,0.67,0.01c4.26-0.06,8.47-0.61,12.6-1.63c-0.87,0.65-1.86,1.2-2.9,1.77c-4.18,2.29-8.91,4.88-13.74,5.01
	c-1.13,0.03-2.27-0.09-3.4-0.28c-0.03-0.01-0.06-0.01-0.1-0.02c-2.54-0.45-5.07-1.34-7.54-2.22C6.13,58.62,4.78,58.07,4.43,57.17z
	 M43.4,59.39L34.16,64c-1.53,0.76-3.47,0.92-5.53,1.1c-0.99,0.08-2.02,0.17-3.01,0.33c-1.67,0.27-3.25,0.22-4.8-0.15
	c4.85-0.71,9.26-3.12,13.21-5.28c1.41-0.77,2.88-1.57,4.21-2.73c0.55-0.47,1.02-1.04,1.43-1.65c3.07-1.16,6.97-3.73,9.02-6.01
	c1.9-2.12,3.33-4.54,4.71-6.89l0.39-0.67c0.24,0.61,0.39,1.27,0.43,1.89c0,0.05,0,0.1,0.01,0.15c0.01,0.2,0,0.39-0.02,0.58
	c-0.21,1.76-1.02,3.49-1.84,5.17c-0.09,0.14-0.17,0.29-0.22,0.45c-1.1,2.22-2.24,4.51-3.92,6.1C46.88,57.65,45.11,58.54,43.4,59.39z
	 M61.82,58.64c-4.1,0.02-6.9-0.12-8.72-1.97c0.78-1.14,1.42-2.34,2.01-3.51c3.62,0.83,7.62,2.62,10.53,5.55
	C64.37,58.63,63.09,58.63,61.82,58.64z M63.83,48.24c0.8,0.91,2.77,3.41,3.82,6.96c-3.15-2.85-7.11-4.68-10.8-5.66
	c0.5-1.16,0.93-2.4,1.16-3.72c0.75-0.04,1.47-0.14,2.14-0.29C60.79,45.63,62.21,46.39,63.83,48.24z M67.64,35
	c-2.94,3.54-5.53,6.64-9.79,6.89c-0.35-1.36-0.97-2.65-1.78-3.69l1.33-2.27c0.09-0.15,0.19-0.32,0.29-0.5
	c5.54-4.63,9.41-6.25,14.91-5.69C70.73,31.29,69.17,33.16,67.64,35z"/>
</svg>
