<svg version="1.1" id="Слой_1" xmlns="http://www.w3.org/2000/svg" xmlns:xlink="http://www.w3.org/1999/xlink" viewBox="0 0 80 80">
<path fill="#86898C" d="M77.82,13.63H56.93V8.81c0-3.12-2.54-5.65-5.65-5.65H27.95c-3.12,0-5.65,2.54-5.65,5.65v4.82H2.18
	C0.98,13.63,0,14.6,0,15.81v25.34c0,0.95,0.62,1.79,1.52,2.09c0.12,0.04,1.15,0.36,2.95,0.82v25.81c0,3.84,3.13,6.97,6.97,6.97
	h57.13c3.84,0,6.97-3.12,6.96-6.96V44.01c0.95-0.24,1.91-0.49,2.87-0.76c0.94-0.27,1.6-1.13,1.6-2.11V15.81
	C80,14.61,79.03,13.63,77.82,13.63z M30.76,11.67h17.77v1.96H30.76V11.67z M71.17,69.88c0,1.44-1.17,2.6-2.6,2.6H11.43
	c-1.44,0-2.6-1.17-2.6-2.6v-24.8c1.96,0.42,4.27,0.86,6.91,1.29v6.19c0,1.2,0.97,2.18,2.18,2.18h0.56v4.21
	c0,1.2,0.97,2.18,2.18,2.18h6.18c1.2,0,2.18-0.97,2.17-2.17v-4.21h0.02c1.2,0,2.18-0.97,2.18-2.18v-4.53
	c2.77,0.16,5.75,0.26,8.91,0.26c2.57,0,5.27-0.07,8.05-0.21v4.47c0,1.2,0.97,2.18,2.18,2.18h0.17v4.34c0,1.2,0.97,2.18,2.18,2.18
	h6.15c1.2,0,2.18-0.98,2.17-2.18v-4.34h0.3c1.2,0,2.18-0.97,2.18-2.18v-6.08c2.51-0.4,5.07-0.88,7.66-1.44V69.88z M20.66,50.38H20.1
	V47c1.44,0.19,2.94,0.37,4.52,0.52c0.72,0.07,1.47,0.14,2.23,0.2v2.65h-0.02c-1.2,0-2.18,0.97-2.18,2.18v4.21h-1.81v-4.21
	C22.84,51.36,21.87,50.38,20.66,50.38z M52.71,50.37h-0.17v-2.58c2.16-0.18,4.36-0.4,6.61-0.69v3.27h-0.3
	c-1.2,0-2.18,0.97-2.18,2.18v4.34h-1.78v-4.34C54.89,51.35,53.92,50.37,52.71,50.37z M75.64,39.48C41.66,48.41,11.39,41.4,4.37,39.5
	V18h71.27V39.48z"/>
</svg>
