<svg version="1.1" id="Слой_1" xmlns="http://www.w3.org/2000/svg" xmlns:xlink="http://www.w3.org/1999/xlink" viewBox="0 0 80 80">
<path fill="#86898C" d="M77.79,55.03H54.83V35.57c0-1.23-1-2.23-2.23-2.23H27.42c-1.23,0-2.23,1-2.23,2.23v8.62H2.23
		C1,44.19,0,45.19,0,46.42v21.7c0,1.23,0.99,2.23,2.22,2.23c1.23,0,2.23-1,2.23-2.23V48.66h22.96c1.23,0,2.23-1,2.23-2.23v-8.62
		h20.72v19.46c0,1.23,1,2.23,2.23,2.23h22.95v8.61c0,1.23,1,2.23,2.23,2.23c1.23,0,2.23-0.99,2.25-2.23V57.26
		C80.02,56.03,79.02,55.03,77.79,55.03z"/>
	<path fill="#86898C" d="M42.84,28.39h2.67v-1.33l-2.72-0.77c-0.02-1.11-0.03-2.22-0.03-3.28v-7.2l0.1-3.69l-0.36-0.26l-6.91,1.46v1.69
		l2.16-0.21v8.21c0,1.07-0.01,2.18-0.03,3.3l-2.94,0.75v1.33h2.89H42.84z"/>
	<path fill="#86898C" d="M9.67,28c0.83,0,1.84-0.39,2.1-2.37l0.25-1.85c0.13-0.01,0.26-0.02,0.4-0.02c1.5,0,2.44,1.09,2.44,3.07
		c0,2.47-1.27,3.97-3.66,6.39c-1.04,1.04-2.15,2.11-3.27,3.2v2.57h12.05v-3.64h-8.73c0.64-0.38,1.27-0.75,1.93-1.14
		c4.45-2.55,6.63-4.73,6.63-7.33c0-2.52-1.69-4.52-5.61-4.52c-3.49,0-6.37,1.59-6.37,4.5C8.16,27.56,8.86,28,9.67,28z"/>
	<path fill="#86898C" d="M65.42,50.26c4.32,0,6.76-1.95,6.76-4.63c0-2.3-1.1-3.79-4.3-4.35c2.8-0.71,3.8-2.36,3.8-3.88
		c0-2.33-1.84-4.18-6-4.18c-2.89,0-5.51,1.3-5.33,4.34c0.31,0.44,0.88,0.78,1.53,0.78c0.96,0,1.92-0.47,2.1-1.87l0.25-1.83
		c0.06,0,0.14-0.01,0.19-0.01c1.53,0,2.44,0.93,2.44,2.96c0,2.29-1.12,3.12-2.96,3.12v-0.02h-0.65v1.51h0.78
		c1.95,0,3.07,1.09,3.07,3.2c0,2.42-1.17,3.43-3.35,3.43c-0.1,0-0.18-0.01-0.27-0.02l-0.16-1.87c-0.18-1.98-0.94-2.5-2.08-2.5
		c-0.67,0-1.43,0.36-1.74,1.27C59.5,48.52,61.39,50.26,65.42,50.26z"/>
</svg>
