<svg version="1.1" id="Слой_1" xmlns="http://www.w3.org/2000/svg" xmlns:xlink="http://www.w3.org/1999/xlink" viewBox="0 0 80 80">
<path fill="#86898C" d="M75.59,6.64c-0.46-0.46-1.09-0.73-1.74-0.72l-9.29,0.07c0.05-2.23-0.01-3.61-0.01-3.67
	C64.5,1.02,63.44,0,62.14,0H16.02c-1.31,0-2.38,1.05-2.42,2.36c0,0.07-0.03,1.5,0.06,3.81H6.13c-0.66,0-1.28,0.27-1.74,0.74
	c-0.45,0.47-0.7,1.11-0.67,1.76c0.03,0.91,0.9,21.68,15.85,24.75c2.91,5.89,6.82,9.92,11.58,11.97c-0.02,0.11-0.04,0.23-0.04,0.35
	c-0.02,1.29,0.84,2.35,2.12,2.42c0.2,0.12,0.24,0.5,0.24,0.81c-0.02,2.65-0.79,5.9-1.39,7.73H21.76c-1.34,0-2.42,1.08-2.42,2.42
	c0,1.34,1.09,2.42,2.42,2.42h2.37v13.62h-2.37c-1.34,0-2.42,1.09-2.42,2.42c0,1.34,1.09,2.42,2.42,2.42H56.4
	c1.34,0,2.42-1.08,2.42-2.42c0-1.34-1.09-2.42-2.42-2.42h-2.37V61.54h2.37c1.34,0,2.42-1.08,2.42-2.42c0-1.34-1.09-2.42-2.42-2.42
	H46.12c-0.61-1.83-1.37-5.09-1.4-7.73c-0.01-0.31,0.03-0.69,0.23-0.81c1.28-0.06,2.13-1.12,2.12-2.42c0-0.1-0.02-0.19-0.03-0.28
	c4.9-2.02,8.89-6.04,11.82-11.93c0.03,0,0.05,0.01,0.07,0.01c0.11,0,0.21-0.01,0.32-0.03C75.49,31.34,76.26,9.34,76.28,8.4
	C76.3,7.74,76.05,7.11,75.59,6.64z M8.79,11.01h5.18c0.43,4.77,1.32,10.67,3.14,16.31C11.22,23.77,9.36,15.26,8.79,11.01z
	 M22.36,10.28c-0.07-1.33,0.96-2.47,2.29-2.54c1.34-0.07,2.47,0.96,2.54,2.29c0.28,5.31,2.44,19.94,9.01,23.75
	c1.15,0.67,1.55,2.15,0.88,3.3c-0.45,0.78-1.26,1.21-2.1,1.21c-0.41,0-0.83-0.11-1.21-0.33C23.6,32.06,22.41,11.17,22.36,10.28z
	 M47.19,64.47v7.78H30.97v-7.78H47.19z M37.11,56.7c0.64-2.3,1.17-5.18,1.19-7.69c0-0.28-0.01-0.55-0.04-0.81h1.65
	c-0.03,0.26-0.04,0.53-0.04,0.81c0.02,2.51,0.54,5.39,1.18,7.69H37.11z M61.08,28.12c1.98-5.94,2.87-12.25,3.24-17.28l6.92-0.06
	C70.65,15.48,68.54,25.38,61.08,28.12z"/>
</svg>
