<svg version="1.1" id="Слой_1" xmlns="http://www.w3.org/2000/svg" xmlns:xlink="http://www.w3.org/1999/xlink" viewBox="0 0 80 80">
<path fill="#86898C" d="M74.9,11.5c-6.7-5.1-19.9-0.6-30.1,6.8c-0.8-0.4-1.7-0.7-2.6-0.7h-4.3c-1,0-1.8,0.2-2.6,0.7
	C25,10.9,11.8,6.4,5.1,11.5C0.9,14.8,0,20,0,26.9C0,33.8,0.9,39,5.1,42.3c2,1.5,4.5,2.2,7.4,2.2c4.6,0,10.1-1.7,15.4-4.5
	c-3,6.5-8.4,11.1-16.4,16.6c-0.8,0.6-1.2,1.6-0.9,2.5c0.3,0.9,1.2,1.6,2.1,1.5c4.1-0.1,7.5-0.2,10.6-1.1c-0.6,2.7-1.6,4.9-3.3,7.8
	c-0.5,0.9-0.4,2,0.4,2.7c0.4,0.4,1,0.6,1.5,0.6c0.4,0,0.8-0.1,1.2-0.4c7.1-4.6,12.7-11.4,16.9-20.7c3.5,7.7,8.7,15.5,16.9,20.7
	c0.4,0.2,0.8,0.4,1.2,0.4c0.5,0,1.1-0.2,1.5-0.6c0.7-0.7,0.9-1.8,0.4-2.7c-1.7-2.9-2.7-5-3.3-7.8c3.1,0.9,6.5,1,10.6,1.1
	c1,0,1.8-0.6,2.1-1.5c0.3-0.9,0-1.9-0.8-2.5c-8-5.5-13.4-10.2-16.4-16.7c5.3,2.7,10.8,4.5,15.4,4.5c2.9,0,5.4-0.7,7.4-2.2
	C79.1,39,80,33.8,80,26.9S79.1,14.8,74.9,11.5z M42.1,22.1c0.6,0,1.1,0.5,1.1,1.1v7.5c0,0.6-0.5,1.1-1.1,1.1h-4.3
	c-0.6,0-1.1-0.5-1.1-1.1v-7.5c0-0.6,0.5-1.1,1.1-1.1H42.1z M7.8,38.8c-2.4-1.9-3.4-5.2-3.4-11.9s1-10,3.4-11.9
	c4.2-3.2,15-0.1,24.7,6.8c-0.1,0.4-0.2,0.9-0.2,1.3v7.5c0,0.4,0.1,0.9,0.2,1.3c-0.6,0.4-1.2,0.8-1.8,1.2c0,0,0,0-0.1,0
	C21.5,39.3,11.7,41.8,7.8,38.8z M27.6,60.8c0.3-1.4,0.5-2.9,0.7-4.6c0.1-0.8-0.3-1.6-1-2c-0.7-0.4-1.6-0.5-2.3,0
	c-1.4,0.8-3,1.3-4.8,1.6c6.2-4.9,11.4-10.7,13.6-19.3c0.4-0.3,0.9-0.6,1.3-0.9c0.7,2.6,1.5,5.4,2.5,8.2C35,50.8,31.7,56.4,27.6,60.8
	z M59.8,55.8C58,55.5,56.5,55,55,54.2c-0.7-0.4-1.6-0.4-2.3,0c-0.7,0.4-1.1,1.2-1,2c0.1,1.7,0.3,3.2,0.7,4.5
	C45.6,53.5,42,44,39.8,36.1h2.3c0.9,0,1.8-0.2,2.6-0.7c0.5,0.3,0.9,0.7,1.4,1C48.4,45.1,53.6,50.9,59.8,55.8z M72.2,38.8
	c-4.2,3.2-15,0.2-24.7-6.8c0.1-0.4,0.2-0.9,0.2-1.3v-7.5c0-0.5-0.1-0.9-0.2-1.3c9.7-7,20.5-10,24.7-6.8c2.4,1.9,3.4,5.2,3.4,11.9
	S74.6,36.9,72.2,38.8z"/>
</svg>
