<svg version="1.1" id="Слой_1" xmlns="http://www.w3.org/2000/svg" xmlns:xlink="http://www.w3.org/1999/xlink" viewBox="0 0 80 80">
<path fill="#86898C" d="M65.2,62.1H14.8c-3.7,0-6.8,3-6.8,6.8c0,3.7,3,6.8,6.8,6.8h17.8C34,78.2,36.8,80,40,80s6-1.8,7.4-4.4h17.8
		c3.7,0,6.7-3,6.7-6.8C71.9,65.1,68.9,62.1,65.2,62.1z M65.2,69.6H45.4c0,0-0.1,0-0.1,0H34.8c-0.1,0-0.1,0-0.2,0H14.8
		c-0.5,0-0.8-0.4-0.8-0.8s0.4-0.8,0.8-0.8h50.4c0.5,0,0.8,0.4,0.8,0.8S65.6,69.6,65.2,69.6z"/>
	<path fill="#86898C" d="M12.2,27.8c1.8,1.4,4,2,6.5,2c0.5,0,0.9,0,1.4-0.1c-1.3,3.1-2.2,6.7-2.4,10.3c-0.5,6.7-1.1,11.3-3.2,16.4
		c-0.4,0.9-0.3,2,0.3,2.8c0.6,0.8,1.5,1.3,2.5,1.3h45.5c1,0,1.9-0.5,2.5-1.3s0.7-1.9,0.3-2.8c-2-5.1-2.7-9.7-3.2-16.4
		c-0.3-3.6-1.1-7.1-2.4-10.3c0.5,0,0.9,0.1,1.4,0.1c2.5,0,4.7-0.6,6.5-2c3.9-3,4.5-8,4.5-12.9S71.7,5,67.8,2
		C62-2.5,51.4,1.3,43.4,6.9c-0.6-0.2-1.2-0.3-1.8-0.3h-3.2c-0.6,0-1.2,0.1-1.8,0.3c-8-5.7-18.6-9.4-24.4-5c-3.9,3-4.5,8-4.5,12.9
		S8.3,24.8,12.2,27.8z M56.4,40.4c0.3,4.6,0.8,9.3,2.2,14.1H21.4c1.4-4.9,1.9-9.5,2.2-14.1c0.4-4.9,2.1-9.7,4.6-12.8
		c2.9-1.2,5.8-2.9,8.4-4.7c0.6,0.2,1.2,0.3,1.8,0.3h3.2c0.6,0,1.2-0.1,1.8-0.3c2.6,1.9,5.5,3.5,8.5,4.7C54.3,30.7,56,35.5,56.4,40.4
		z M41.1,17.2h-2.3v-4.7h2.3V17.2z M64.2,6.7c1.5,1.2,2.1,3.5,2.1,8.2c0,4.7-0.6,7-2.1,8.2c-2.4,1.8-9.8,0.2-17.1-4.9
		c0-0.1,0-0.3,0-0.4V12c0-0.1,0-0.3,0-0.4C54.4,6.5,61.8,4.8,64.2,6.7z M15.8,6.7c2.4-1.8,9.8-0.2,17.1,4.9c0,0.1,0,0.3,0,0.4v5.7
		c0,0.1,0,0.3,0,0.4c-7.4,5.1-14.7,6.8-17.1,4.9c-1.5-1.2-2.1-3.5-2.1-8.2S14.3,7.8,15.8,6.7z"/>
</svg>
