<svg version="1.1" id="Слой_1" xmlns="http://www.w3.org/2000/svg" xmlns:xlink="http://www.w3.org/1999/xlink" viewBox="0 0 80 80">
<path fill="#86898C" d="M8.4,45.9l26.5,13.8c0.3,0.2,0.6,0.2,0.9,0.2c0.3,0,0.6-0.1,0.9-0.2c0.6-0.3,1-0.9,1-1.5
		c0.3-2.9,1-5.4,2.3-8.4c1.2,3,2,5.5,2.3,8.4c0.1,0.7,0.4,1.2,1,1.5c0.3,0.1,0.6,0.2,0.9,0.2c0.3,0,0.6-0.1,0.9-0.2l26.5-13.8
		c0.6-0.3,1-0.9,1-1.5s-0.2-1.3-0.7-1.7c-2.8-2.4-4.5-4.8-6.8-8.6c-0.5-0.7-1-1.5-1.5-2.2c2.5-2.4,2.9-6.2,2.9-9.9
		c0-4-0.4-8-3.5-10.4c-4.5-3.5-13.3-0.5-20.1,4.3c-0.5-0.2-1-0.3-1.6-0.3h-2.7c-0.6,0-1.1,0.1-1.6,0.3c-6.8-4.9-15.5-7.8-20.1-4.3
		c-3.1,2.4-3.5,6.4-3.5,10.4c0,3.7,0.4,7.5,2.9,9.9c-0.6,0.7-1.1,1.4-1.5,2.2c-2.3,3.8-4.1,6.2-6.8,8.6c-0.5,0.4-0.7,1.1-0.7,1.7
		C7.5,45.1,7.8,45.6,8.4,45.9z M36.7,28.5c0.1-0.1,0.3-0.2,0.4-0.3c0.5,0.2,1,0.3,1.6,0.3h2.7c0.6,0,1.1-0.1,1.6-0.3
		c0.1,0.1,0.3,0.2,0.4,0.3c-1.4,0.9-2.5,1.8-3.3,2.9C39.1,30.3,38,29.3,36.7,28.5z M41.5,19.7v4.8c0,0.1-0.1,0.1-0.1,0.1h-2.7
		c-0.1,0-0.1-0.1-0.1-0.1v-4.8c0-0.1,0.1-0.1,0.1-0.1h2.7C41.4,19.6,41.5,19.7,41.5,19.7z M67.4,43.8L45.7,55.1
		c-0.7-3.3-1.8-6.1-3-8.9c-0.3-0.6-0.5-1.2-0.7-1.8c0.8-3,0.9-6,0.2-8.6c0-0.2-0.1-0.3-0.2-0.5c0.7-1.5,1.9-2.9,4.8-4.4
		c0.1,0,0.2-0.1,0.2-0.1c3.7,2,7.5,3.2,10.7,3.2c0.7,0,1.4-0.1,2.1-0.2c0.7,0.8,1.3,1.6,1.8,2.4C63.4,38.8,65.1,41.3,67.4,43.8z
		 M60.6,14.8c1.4,1.1,2,3.2,2,7.3c0,4.2-0.6,6.2-2,7.3c-0.2,0.1-0.4,0.3-0.6,0.4c0,0-0.1,0-0.1,0C57,31,50.8,29,45.3,25.1
		c0-0.2,0.1-0.4,0.1-0.6v-4.8c0-0.2,0-0.4-0.1-0.6C51.3,14.8,58.1,12.9,60.6,14.8z M19.4,14.8c2.5-1.9,9.3,0.1,15.3,4.3
		c0,0.2-0.1,0.4-0.1,0.6v4.8c0,0.2,0,0.4,0.1,0.6C29.2,29,23.1,31,20.1,29.8c-0.1,0-0.1,0-0.2-0.1c-0.2-0.1-0.4-0.2-0.6-0.3
		c-1.4-1.1-2-3.2-2-7.3C17.4,17.9,18,15.9,19.4,14.8z M18.2,36.2c0.5-0.8,1.1-1.7,1.8-2.4c0.7,0.1,1.4,0.2,2.1,0.2
		c3.2,0,7.1-1.3,10.7-3.2c0.1,0,0.2,0.1,0.3,0.1c3.1,1.6,4.3,3.1,5,4.9c0,0.1,0.1,0.2,0.1,0.3c0.1,0.2,0.2,0.5,0.2,0.7
		c0.5,2,0.4,4.5-0.3,7c0,0,0,0,0,0c-0.2,0.8-0.5,1.6-0.8,2.4c-1.2,2.8-2.4,5.6-3,8.9L12.6,43.8C15,41.3,16.6,38.8,18.2,36.2z"/>
	<path fill="#86898C" d="M35.8,61.5L6.5,46.1c-1-0.5-2.3-0.7-3.4-0.3C2,46.2,1,47,0.5,48c-1.1,2.2-0.3,4.9,1.9,6l10.4,5.4
		c0,2,1.1,3.9,2.9,4.8c0.8,0.4,1.7,0.6,2.6,0.6c1.1,0,2.2-0.3,3.1-1l10.4,5.4c0.6,0.3,1.3,0.5,2,0.5c0.4,0,0.9-0.1,1.3-0.2
		c1.1-0.4,2-1.1,2.6-2.2s0.7-2.3,0.3-3.4C37.6,62.9,36.9,62,35.8,61.5z M34.3,65.6c-0.1,0.2-0.2,0.2-0.3,0.3c-0.1,0-0.3,0-0.4,0
		l-17.7-9.3c0,0,0,0,0,0L4.2,50.5c-0.3-0.1-0.4-0.5-0.2-0.7c0.1-0.2,0.2-0.2,0.3-0.3c0,0,0.1,0,0.2,0c0.1,0,0.2,0,0.2,0.1L34,64.9
		c0.2,0.1,0.2,0.2,0.3,0.3C34.3,65.3,34.3,65.5,34.3,65.6z"/>
	<path fill="#86898C" d="M79.5,48c-0.5-1-1.5-1.8-2.6-2.2c-1.1-0.4-2.3-0.3-3.4,0.3L44.2,61.5c-2.2,1.1-3,3.8-1.9,6
		c0.5,1,1.5,1.8,2.6,2.2c0.4,0.1,0.9,0.2,1.3,0.2c0.7,0,1.4-0.2,2-0.5l10.4-5.4c0.9,0.6,2,1,3.1,1c0.9,0,1.7-0.2,2.6-0.6
		c1.8-1,2.9-2.8,2.9-4.8L77.6,54C79.8,52.8,80.6,50.2,79.5,48z M75.8,50.5l-11.6,6.1c0,0,0,0,0,0l-17.7,9.3c-0.2,0.1-0.3,0.1-0.4,0
		c-0.1,0-0.2-0.1-0.3-0.3c-0.1-0.3,0-0.6,0.2-0.7l29.3-15.3c0.1,0,0.2-0.1,0.3-0.1s0.1,0,0.2,0c0.1,0,0.2,0.1,0.3,0.3
		C76.2,50.1,76.1,50.4,75.8,50.5z"/>
</svg>
