<svg version="1.1" id="Слой_1" xmlns="http://www.w3.org/2000/svg" xmlns:xlink="http://www.w3.org/1999/xlink" viewBox="0 0 80 80">
<path fill="#86898C" d="M79.4,30.9c-1.2-5.4-4.4-10.8-8.7-10c-0.1,0-0.1,0-0.2,0.1c-6.2,2.3-14.3,4.4-22.6,6c0,0-0.1,0-0.1,0l0,0
	c-3.1,0.5-6.1,1-9,1.4h0c-0.2,0-0.3,0-0.5,0.1h0c-8.5,1-20.5,1.8-30.7-0.1c-0.3-0.1-0.7-0.2-1-0.2c0,0,0,0,0,0c-0.1,0-0.2,0-0.4,0
	c-0.4,0-0.8,0-1.2,0.1c-0.7,0.1-1.2,0.9-1.1,1.6c0.1,0.7,0.9,1.2,1.6,1.1c0.2,0,0.5-0.1,0.7,0c0.2,0,0.5,0.1,0.7,0.1
	c2.6,0.8,5.4,5.4,6.6,11l0,0c1.3,6,0.7,12.5-1.3,14c-1.3,0.6-2.2,0.7-2.7,0.5c-1.8-0.8-4.5-4.2-6-9.8c-1.4-5.2-0.5-9.1,0.7-9.5
	C4.4,37,5,37.3,5.8,38.3c0.9,1.2,1.8,2.9,2.3,4.8c0.9,3.3,0.2,5.3-0.1,5.4c-0.7,0.2-1.1,0.9-0.9,1.7c0.2,0.7,0.9,1.1,1.7,0.9
	c0.5-0.1,1.2-0.5,1.8-1.5c0.9-1.6,1-4.4,0.2-7.3c-0.6-2.3-1.6-4.4-2.8-5.8c-1.9-2.4-3.7-2.3-4.5-2.1c-3.2,0.9-4.3,6.4-2.6,12.8
	C2.4,53,5.4,57.6,8.4,58.9c0.6,0.2,1.1,0.3,1.7,0.3c1.2,0,2.4-0.4,3.3-0.8c0,0,0.1,0,0.1-0.1c0.4-0.2,0.8-0.4,1.2-0.6l0.2-0.1
	c7.6-3.9,16.6-7.2,25.8-9.6c2,4.2,5.5,7.3,9.9,8.9c0,0,0,0,0,0s0,0,0,0c0,0,0,0,0,0c0.1,0,0.1,0,0.2,0c0,0,0,0,0,0
	c0.1,0,0.1,0,0.2,0l0,0l0,0c0,0,0,0,0,0c0.1,0,0.1,0,0.2,0c0,0,0,0,0.1,0c0,0,0.1,0,0.1,0c0,0,0,0,0.1,0c0,0,0.1,0,0.1,0
	c0,0,0,0,0.1,0c0,0,0.1,0,0.1-0.1c0,0,0,0,0.1,0c0,0,0.1,0,0.1-0.1c0,0,0,0,0.1,0c0,0,0-0.1,0.1-0.1c0,0,0,0,0-0.1
	c0,0,0-0.1,0.1-0.1c0,0,0,0,0-0.1l0,0c0.5-1.1,0.9-2.3,1-3.6c2.3,0.4,5.5,0.4,9.6-1.3c0,0,0,0,0,0c0,0,0,0,0,0c0,0,0,0,0.1,0
	c0.1,0,0.1,0,0.2-0.1c0,0,0.1,0,0.1-0.1c0,0,0.1-0.1,0.1-0.1s0-0.1,0.1-0.1c0,0,0.1-0.1,0.1-0.1c0,0,0-0.1,0.1-0.1
	c0,0,0-0.1,0.1-0.1c0,0,0-0.1,0-0.1c0,0,0-0.1,0-0.1c0,0,0-0.1,0-0.1c0,0,0,0,0-0.1c0,0,0,0,0,0c0,0,0-0.1,0-0.1c0,0,0-0.1,0-0.1
	c0,0,0-0.1,0-0.1c0,0,0-0.1,0-0.1c0,0,0,0,0,0c0,0,0,0,0-0.1c0,0,0-0.1-0.1-0.1c0,0,0-0.1-0.1-0.1c0,0,0-0.1-0.1-0.1
	c0,0-0.1-0.1-0.1-0.1s-0.1-0.1-0.1-0.1c0,0-0.1,0-0.1-0.1c0,0-0.1,0-0.1-0.1c0,0-0.1,0-0.1,0c0,0-0.1,0-0.1,0c0,0-0.1,0-0.1,0
	c0,0,0,0-0.1,0c-4.5-0.5-6.7-1.6-8.3-3.4c7.4-1.1,14.6-1.4,21.6-1.1c0.1,0,0.2,0,0.4,0c0.7-0.1,1.6-0.6,2.4-1.8
	C80.4,39.7,80.3,34.5,79.4,30.9z M45.6,36.6c-0.5-2.2-1.4-4.5-2.7-6.1c1.8-0.3,3.6-0.6,5.5-0.9l0,0c0,0,0,0,0.1,0
	c1.3-0.2,3.1,2.5,3.9,5.9c0.8,3.6,0.2,6.9-0.5,7.4c-2,0.3-4,0.7-6.1,1.1C46.3,41.7,46.1,38.7,45.6,36.6z M56.5,50.1
	c-1.7,0.1-3-0.2-4.2-0.5c-0.4-0.1-0.9,0-1.2,0.3c-0.3,0.3-0.5,0.7-0.5,1.2c0.1,0.8,0,1.9-0.3,2.8c-3.6-1.6-5.7-4.2-6.9-6.5
	c0,0,0,0,0,0c2.6-0.6,5.3-1.1,7.8-1.6C52.7,47.8,54.3,49.2,56.5,50.1z"/>
</svg>
