<svg version="1.1" id="Слой_1" xmlns="http://www.w3.org/2000/svg" xmlns:xlink="http://www.w3.org/1999/xlink" viewBox="0 0 80 80">
<path fill="#86898C" d="M75.18,59.05c0.1-0.14,0.17-0.29,0.23-0.45c2.93-5.56,4.6-11.88,4.6-18.6c0-2.39-0.22-4.73-0.63-7
	c-0.01-0.22-0.05-0.44-0.12-0.65c-1.89-9.72-7.31-18.19-14.87-24.02c-0.08-0.07-0.16-0.14-0.25-0.2c-1.26-0.96-2.59-1.84-3.97-2.65
	c-0.03-0.01-0.05-0.03-0.08-0.04C58.82,4.69,57.49,4,56.12,3.4c-0.11-0.05-0.21-0.1-0.32-0.14c-0.33-0.14-0.67-0.28-1.01-0.41
	c-0.21-0.08-0.42-0.17-0.63-0.25c-0.34-0.13-0.69-0.25-1.03-0.37c-0.2-0.07-0.4-0.14-0.6-0.2c-0.38-0.12-0.75-0.24-1.13-0.36
	c-0.13-0.04-0.26-0.07-0.39-0.11c-3.5-1-7.18-1.55-11-1.55c-0.39,0-0.78,0.02-1.17,0.03c-0.12-0.01-0.23,0-0.35,0.01
	C32.81,0.25,27.44,1.64,22.6,3.99c-0.08,0.04-0.16,0.07-0.24,0.12c-0.27,0.13-0.53,0.27-0.8,0.41c-0.21,0.11-0.43,0.22-0.65,0.33
	C12.85,9.24,6.54,16.23,3.02,24.73c-0.04,0.09-0.06,0.18-0.08,0.28c-0.06,0.15-0.12,0.29-0.17,0.44c-0.08,0.15-0.14,0.31-0.19,0.48
	c-1.62,4.29-2.52,8.93-2.56,13.77C0,39.8-0.01,39.91-0.01,40.02c0,8.53,2.65,16.68,7.67,23.55c0.08,0.11,0.17,0.2,0.27,0.3
	c5.62,7.54,13.84,13.03,23.31,15.15c0.05,0.01,0.1,0.03,0.15,0.04c2.78,0.61,5.66,0.94,8.61,0.94c9.21,0,17.7-3.14,24.47-8.39
	c0.17-0.1,0.32-0.22,0.46-0.36C69.11,67.92,72.61,63.77,75.18,59.05z M62.46,67.36l-8.06,0.01l0.2-8.86l8.89-9.94l7.55,0.67
	l-0.05,7.89C68.8,61.06,65.91,64.53,62.46,67.36z M45.27,8.98l13.14,4.03l5.72,8.38l-5.16,4.64l-1.03,0.93l-12.2-2.57l-5.18-11.15
	L45.27,8.98z M9.29,38.95l-2.64-2.51l0.41-9.38c0.03-0.07,0.05-0.13,0.08-0.2l9.63-9.6l0.88,0.64l-1.9,13.61L9.29,38.95z
	 M51.55,55.05L38.2,51.69l-3.47-12.52l10.15-10.28l11.84,2.49l3.32,14.17L51.55,55.05z M38.01,4.65l2.98,2.01l-4.34,3.9l-16.04,3.81
	l-0.71-0.52l5.03-5.88C28.93,6.08,33.35,4.91,38.01,4.65z M15.61,56.36L12,42.85l6.58-7.6l11.66,4.93l3.56,12.82l-7.15,7.89
	L15.61,56.36z M70.56,22.13l-1.66-1.9c-0.01-0.01-0.01-0.01-0.02-0.02l-2.91-4.26C67.72,17.83,69.25,19.9,70.56,22.13z M12.6,62.39
	l1.64-1.63l11.73,4.83l7.03,7.16l-1.8,1.55C23.78,72.39,17.31,68.14,12.6,62.39z M37.09,75.28l0.29-0.25l14.93-3.07l2.93,0
	c-4.62,2.21-9.79,3.45-15.24,3.45C39.03,75.41,38.06,75.36,37.09,75.28z"/>
</svg>
