<svg version="1.1" id="Слой_1" xmlns="http://www.w3.org/2000/svg" xmlns:xlink="http://www.w3.org/1999/xlink" viewBox="0 0 80 80">
<path fill="#86898C" d="M69.13,67.37C75.86,60.21,80,50.58,80,40c0-5.07-0.96-9.91-2.68-14.37c-0.05-0.18-0.12-0.35-0.2-0.52
	c-1.98-4.92-4.9-9.35-8.55-13.08c-0.11-0.14-0.24-0.27-0.37-0.38C60.95,4.45,50.99,0,40,0C25.73,0,13.2,7.51,6.12,18.78
	c-0.07,0.09-0.13,0.19-0.18,0.29c-2.76,4.48-4.67,9.55-5.48,14.96c-0.02,0.11-0.03,0.22-0.04,0.34C0.14,36.21,0,38.09,0,40
	c0,3.19,0.39,6.29,1.09,9.26c0.01,0.05,0.02,0.1,0.04,0.15C5.37,66.94,21.18,80,40,80c4.96,0,9.7-0.91,14.08-2.57c0,0,0.01,0,0.01,0
	c5.66-2.14,10.71-5.53,14.82-9.83C68.98,67.53,69.07,67.46,69.13,67.37z M59.16,69.75c5.69-11.69,3.7-21.77,0.62-28.61
	c-2.56-5.66-6.13-9.84-8.4-12.15c0.37-0.23,0.75-0.45,1.14-0.65c1.86-0.96,3.89-1.61,6.06-1.96c2.96,2.86,14.16,15.63,6.69,38.39
	C63.42,66.65,61.38,68.32,59.16,69.75z M42.72,75.29c5.15-6.45,7.61-13.02,7.29-19.58c-0.08-1.55-0.32-3-0.65-4.37
	c-0.02-0.15-0.06-0.31-0.12-0.46c-1.51-5.67-4.78-9.67-6.56-11.5c0.69-1.68,2.24-4.76,5.05-7.54c1.94,1.91,5.44,5.81,7.86,11.19
	c4.53,10.06,3.19,20.29-3.97,30.41C48.8,74.42,45.82,75.06,42.72,75.29z M5.5,47.96c-0.41-1.77-0.68-3.58-0.81-5.44
	c1.65,2.27,3.83,4.79,6.6,7.1c4.59,3.82,11.41,7.48,20.67,7.48c3.99,0,8.44-0.69,13.36-2.34c0.05,0.4,0.08,0.81,0.1,1.23
	c0.1,2.17-0.19,4.36-0.85,6.57c-1.99,0.68-6.98,2.11-13.14,1.67C21.02,63.51,12.3,58.02,5.5,47.96z M7.63,25.67
	c1.03,2.21,2.54,4.9,4.63,7.51c0.08,0.11,0.16,0.22,0.26,0.32c0.1,0.12,0.19,0.24,0.29,0.36c2.55,3,6.18,6.1,11.08,7.87
	c0.11,0.05,0.22,0.09,0.34,0.13c4.11,1.42,9.08,1.91,15.07,0.64c1.2,1.25,3.52,3.97,4.93,7.78c-11.65,4.01-21.69,2.64-29.87-4.1
	c-5.53-4.55-8.47-10.22-9.3-11.98C5.56,31.23,6.44,28.36,7.63,25.67z M52.48,6.87c2.48,0.94,4.83,2.15,7.01,3.59
	c-14.79-0.25-23.72,6.39-28.78,12.5c-4.2,5.08-6.35,10.43-7.34,13.56c-2.7-1.34-4.9-3.17-6.67-5.16c0.63-2.04,2.41-6.8,6.38-11.55
	C29.92,11.6,39.81,7.25,52.48,6.87z M59.08,21.68c-0.01,0-0.02,0-0.02,0c-3.1,0.35-5.99,1.21-8.65,2.59
	c-1.46,0.76-2.75,1.63-3.91,2.56c-0.12,0.08-0.24,0.17-0.35,0.28c-4.65,3.85-6.97,8.62-7.87,10.92c-4.05,0.84-7.55,0.76-10.58,0.05
	c0.84-2.68,2.75-7.58,6.55-12.18c7.29-8.81,17.84-12.27,31.35-10.31c2,2.1,3.75,4.44,5.19,6.97C66.61,21.57,62.7,21.28,59.08,21.68z
	 M72.11,54.9c1-9.32-0.94-16.52-3.15-21.39c-1.39-3.07-3-5.5-4.42-7.32c2.74,0.21,5.67,0.82,8.78,1.83
	c1.35,3.75,2.09,7.78,2.09,11.99C75.41,45.32,74.22,50.37,72.11,54.9z M37.95,4.65c-9.01,2.91-14.89,7.96-18.55,12.4
	c-2.97,3.6-4.84,7.17-5.96,9.85c-1.6-2.68-2.53-5.12-2.96-6.42C16.47,11.45,26.49,5.31,37.95,4.65z M11.95,61.57
	c6.89,5.21,13.91,6.91,19.38,7.26c0.82,0.06,1.63,0.08,2.42,0.08c3.29,0,6.17-0.43,8.43-0.92c-1.39,2.42-3.23,4.84-5.51,7.26
	C26.63,74.31,17.79,69.15,11.95,61.57z"/>
</svg>
