<svg viewBox="0 0 80 80">
<path fill-rule="evenodd" clip-rule="evenodd" fill="#929497" d="M40.077,0C61.921,0.027,80.074,18.317,80,40.221
	C79.927,61.913,61.677,80.027,39.924,80C18.083,79.973-0.075,61.681,0,39.781C0.075,18.087,18.323-0.027,40.077,0z M69.562,40.094
	c0.124-16.061-13.14-29.439-29.398-29.657C24.162,10.224,10.75,23.455,10.438,39.765c-0.308,16.031,13.311,29.77,29.54,29.798
	C56.089,69.592,69.439,56.293,69.562,40.094z"/>
<path fill-rule="evenodd" clip-rule="evenodd" fill="#929497" d="M39.891,60.609c-11.286-0.062-20.522-9.366-20.5-20.647
	c0.022-11.395,9.478-20.717,20.862-20.571c11.288,0.145,20.461,9.514,20.356,20.791C60.506,51.466,51.169,60.671,39.891,60.609z
	 M39.901,29.784c-5.497,0.05-10.164,4.81-10.117,10.314c0.047,5.49,4.819,10.171,10.314,10.117
	c5.498-0.053,10.174-4.818,10.118-10.314C50.161,34.4,45.403,29.733,39.901,29.784z"/>
</svg>
