<svg viewBox="0 0 80 80">
<path fill-rule="evenodd" clip-rule="evenodd" fill="#929497" d="M2.455,20.491c-0.194-3.132,0.207-5.837,7.074-8.588
	C18.347,8.371,27.105,4.684,35.832,0.93c2.955-1.271,5.653-1.222,8.594,0.04c9.071,3.893,18.213,7.625,27.317,11.441
	c4.714,1.978,5.89,3.858,5.835,8.985c-0.11,10.58-2.177,20.749-6.873,30.247c-5.808,11.745-14.214,21.08-26.024,27.153
	c-3.196,1.643-6.09,1.579-9.286-0.04C23.05,72.5,14.576,62.67,8.918,50.27C4.932,41.533,2.851,32.309,2.455,20.491z M40.167,69.841
	c1.405-0.735,2.402-1.194,3.336-1.758c5.844-3.526,10.569-8.246,14.343-13.883c6.103-9.114,9.33-19.192,9.778-30.162
	c0.104-2.554,0.163-2.562-2.043-3.491c-7.554-3.178-15.108-6.351-22.667-9.514c-0.821-0.343-1.671-0.619-2.747-1.014
	C40.167,30.016,40.167,49.64,40.167,69.841z"/>
</svg>
