--all
<svg viewBox="0 0 24 24" role="presentation" class="mdi mdiTextBoxMultipleOutline" style="width: 2.4rem; height: 2.4rem;"><path d="M16,15H9V13H16V15M19,11H9V9H19V11M19,7H9V5H19V7M3,5V21H19V23H3A2,2 0 0,1 1,21V5H3M21,1A2,2 0 0,1 23,3V17C23,18.11 22.11,19 21,19H7A2,2 0 0,1 5,17V3C5,1.89 5.89,1 7,1H21M7,3V17H21V3H7Z" style="fill: currentcolor;"></path></svg>
--none
<svg viewBox="0 0 24 24" role="presentation" class="mdi mdiBookOpenBlankVariant" style="width: 2.4rem; height: 2.4rem;"><path d="M21,5C19.89,4.65 18.67,4.5 17.5,4.5C15.55,4.5 13.45,4.9 12,6C10.55,4.9 8.45,4.5 6.5,4.5C4.55,4.5 2.45,4.9 1,6V20.65C1,20.9 1.25,21.15 1.5,21.15C1.6,21.15 1.65,21.1 1.75,21.1C3.1,20.45 5.05,20 6.5,20C8.45,20 10.55,20.4 12,21.5C13.35,20.65 15.8,20 17.5,20C19.15,20 20.85,20.3 22.25,21.05C22.35,21.1 22.4,21.1 22.5,21.1C22.75,21.1 23,20.85 23,20.6V6C22.4,5.55 21.75,5.25 21,5M21,18.5C19.9,18.15 18.7,18 17.5,18C15.8,18 13.35,18.65 12,19.5V8C13.35,7.15 15.8,6.5 17.5,6.5C18.7,6.5 19.9,6.65 21,7V18.5Z" style="fill: currentcolor;"></path></svg>
-- çeyrek saat
<svg viewBox="0 0 24 24" role="presentation" class="mdi mdiClockTimeThree" style="width: 2.4rem; height: 2.4rem;"><path d="M12 2C6.5 2 2 6.5 2 12C2 17.5 6.5 22 12 22C17.5 22 22 17.5 22 12S17.5 2 12 2M17 13H11V7H12.5V11.5H17V13Z" style="fill: currentcolor;"></path></svg>
--yarım saat ( 25 dk )
<svg viewBox="0 0 24 24" role="presentation" class="mdi mdiClockTimeFive" style="width: 2.4rem; height: 2.4rem;"><path d="M12 2C6.5 2 2 6.5 2 12C2 17.5 6.5 22 12 22C17.5 22 22 17.5 22 12S17.5 2 12 2M14 17L11 11.8V7H12.5V11.4L15.3 16.3L14 17Z" style="fill: currentcolor;"></path></svg>
--yarım saat  ( 35 dk)
<svg viewBox="0 0 24 24" role="presentation" class="mdi mdiClockTimeSeven" style="width: 2.4rem; height: 2.4rem;"><path d="M12 2C6.5 2 2 6.5 2 12C2 17.5 6.5 22 12 22C17.5 22 22 17.5 22 12S17.5 2 12 2M12.5 12.2L9.8 17L8.5 16.2L11 11.8V7H12.5V12.2Z" style="fill: currentcolor;"></path></svg>
-- 1 saat ( 50 dk)
<svg viewBox="0 0 24 24" role="presentation" class="mdi mdiClockTimeTen" style="width: 2.4rem; height: 2.4rem;"><path d="M12 2C6.5 2 2 6.5 2 12C2 17.5 6.5 22 12 22C17.5 22 22 17.5 22 12S17.5 2 12 2M12.5 13H11L7 10.7L7.8 9.4L11.1 11.3V7H12.6V13Z" style="fill: currentcolor;"></path></svg>
-- takvim
<svg viewBox="0 0 24 24" role="presentation" class="mdi mdiCalendarMonth" style="width: 2.4rem; height: 2.4rem;"><path d="M9,10V12H7V10H9M13,10V12H11V10H13M17,10V12H15V10H17M19,3A2,2 0 0,1 21,5V19A2,2 0 0,1 19,21H5C3.89,21 3,20.1 3,19V5A2,2 0 0,1 5,3H6V1H8V3H16V1H18V3H19M19,19V8H5V19H19M9,14V16H7V14H9M13,14V16H11V14H13M17,14V16H15V14H17Z" style="fill: currentcolor;"></path></svg>
