<?xml version="1.0" encoding="utf-8" ?>
<svg baseProfile="tiny" height="200px" version="1.2" width="200px" xmlns="http://www.w3.org/2000/svg" xmlns:ev="http://www.w3.org/2001/xml-events" xmlns:xlink="http://www.w3.org/1999/xlink"><defs /><circle cx="100px" cy="100px" fill="none" r="90px" stroke="silver" stroke-width="4px" /><polygon fill="none" points="100,20 170,60 170,140 100,180 30,140 30,60" stroke="silver" stroke-width="4px" /><line stroke="silver" stroke-width="2px" x1="100" x2="170" y1="20" y2="60" /><line stroke="silver" stroke-width="2px" x1="100" x2="170" y1="20" y2="140" /><line stroke="silver" stroke-width="2px" x1="100" x2="100" y1="20" y2="180" /><line stroke="silver" stroke-width="2px" x1="100" x2="30" y1="20" y2="140" /><line stroke="silver" stroke-width="2px" x1="100" x2="30" y1="20" y2="60" /><line stroke="silver" stroke-width="2px" x1="170" x2="100" y1="60" y2="20" /><line stroke="silver" stroke-width="2px" x1="170" x2="170" y1="60" y2="140" /><line stroke="silver" stroke-width="2px" x1="170" x2="100" y1="60" y2="180" /><line stroke="silver" stroke-width="2px" x1="170" x2="30" y1="60" y2="140" /><line stroke="silver" stroke-width="2px" x1="170" x2="30" y1="60" y2="60" /><line stroke="silver" stroke-width="2px" x1="170" x2="100" y1="140" y2="20" /><line stroke="silver" stroke-width="2px" x1="170" x2="170" y1="140" y2="60" /><line stroke="silver" stroke-width="2px" x1="170" x2="100" y1="140" y2="180" /><line stroke="silver" stroke-width="2px" x1="170" x2="30" y1="140" y2="140" /><line stroke="silver" stroke-width="2px" x1="170" x2="30" y1="140" y2="60" /><line stroke="silver" stroke-width="2px" x1="100" x2="100" y1="180" y2="20" /><line stroke="silver" stroke-width="2px" x1="100" x2="170" y1="180" y2="60" /><line stroke="silver" stroke-width="2px" x1="100" x2="170" y1="180" y2="140" /><line stroke="silver" stroke-width="2px" x1="100" x2="30" y1="180" y2="140" /><line stroke="silver" stroke-width="2px" x1="100" x2="30" y1="180" y2="60" /><line stroke="silver" stroke-width="2px" x1="30" x2="100" y1="140" y2="20" /><line stroke="silver" stroke-width="2px" x1="30" x2="170" y1="140" y2="60" /><line stroke="silver" stroke-width="2px" x1="30" x2="170" y1="140" y2="140" /><line stroke="silver" stroke-width="2px" x1="30" x2="100" y1="140" y2="180" /><line stroke="silver" stroke-width="2px" x1="30" x2="30" y1="140" y2="60" /><line stroke="silver" stroke-width="2px" x1="30" x2="100" y1="60" y2="20" /><line stroke="silver" stroke-width="2px" x1="30" x2="170" y1="60" y2="60" /><line stroke="silver" stroke-width="2px" x1="30" x2="170" y1="60" y2="140" /><line stroke="silver" stroke-width="2px" x1="30" x2="100" y1="60" y2="180" /><line stroke="silver" stroke-width="2px" x1="30" x2="30" y1="60" y2="140" /></svg>